<svg xmlns="http://www.w3.org/2000/svg" viewBox="0 0 13 11">
    <defs>
        <style>.cls-1{fill:#e74c3c;}</style>
    </defs>
    <title>brackets</title>
    <g id="Слой_2" data-name="Слой 2">
        <g id="Слой_1-2" data-name="Слой 1">
            <path class="cls-1"
                  d="M6,9.5A1.5,1.5,0,0,1,4.5,11h-3A1.5,1.5,0,0,1,0,9.5V4A4,4,0,0,1,4,0h.5A.5.5,0,0,1,5,.5v1a.5.5,0,0,1-.5.5H4A2,2,0,0,0,2,4v.25A.75.75,0,0,0,2.75,5H4.5A1.5,1.5,0,0,1,6,6.5Zm7,0A1.5,1.5,0,0,1,11.5,11h-3A1.5,1.5,0,0,1,7,9.5V4a4,4,0,0,1,4-4h.5a.5.5,0,0,1,.5.5v1a.5.5,0,0,1-.5.5H11A2,2,0,0,0,9,4v.25A.75.75,0,0,0,9.75,5H11.5A1.5,1.5,0,0,1,13,6.5Z"/>
        </g>
    </g>
</svg>