<svg xmlns="http://www.w3.org/2000/svg" viewBox="0 0 245 245"><title>csharp-course-bg</title><g id="Слой_2" data-name="Слой 2"><g id="Слой_1-2" data-name="Слой 1"><circle cx="122.5" cy="122.5" r="76.56" fill="#fff" opacity="0.2"/><circle cx="122.5" cy="122.5" r="91.88" fill="#fff" opacity="0.2"/><circle cx="122.5" cy="122.5" r="107.19" fill="#fff" opacity="0.2"/><circle cx="122.5" cy="122.5" r="122.5" fill="#fff" opacity="0.2"/><circle cx="122.5" cy="122.5" r="61.25" fill="#fff"/><path d="M122.5,122.5h46.34A46.34,46.34,0,0,0,122.5,76.16Z" fill="#4eba6f"/><path d="M122.5,122.5v46.34a46.34,46.34,0,0,0,46.34-46.34Z" fill="#f0c419"/><path d="M122.5,122.5H76.16a46.34,46.34,0,0,0,46.34,46.34Z" fill="#348ec1"/><path d="M122.5,122.5V76.16A46.34,46.34,0,0,0,76.16,122.5Z" fill="#e64c3c"/><path d="M170.79,120.5A48.39,48.39,0,0,0,124.5,74.21v-.05h-4v.05A48.39,48.39,0,0,0,74.21,120.5h-.05v4h.05a48.39,48.39,0,0,0,46.29,46.28v.05h4v-.05a48.39,48.39,0,0,0,46.29-46.28h.05v-4Zm-4,0H124.5V78.21A44.4,44.4,0,0,1,166.79,120.5ZM120.5,78.21V120.5H78.21A44.4,44.4,0,0,1,120.5,78.21ZM78.21,124.5H120.5v42.29A44.4,44.4,0,0,1,78.21,124.5Zm46.29,42.29V124.5h42.29A44.4,44.4,0,0,1,124.5,166.79Z" fill="#fff"/></g></g></svg>