<svg xmlns="http://www.w3.org/2000/svg" viewBox="0 0 40 40"><defs><style>.cls-1{fill:#fff;}.cls-2{fill:#e64c3c;}</style></defs><title>github-social-footer-ico</title><g id="Слой_2" data-name="Слой 2"><g id="Слой_1-2" data-name="Слой 1"><g id="github-ico"><circle class="cls-1" cx="20" cy="20" r="20"/><path class="cls-2" d="M30,20.25a10,10,0,0,1-6.84,9.49c-.51.09-.69-.22-.69-.48s0-1.41,0-2.75a2.35,2.35,0,0,0-.68-1.85c2.23-.25,4.57-1.09,4.57-4.93a3.87,3.87,0,0,0-1-2.68,3.62,3.62,0,0,0-.1-2.66c-.83-.26-2.75,1-2.75,1a9.42,9.42,0,0,0-5,0s-1.91-1.29-2.75-1a3.62,3.62,0,0,0-.1,2.66,3.87,3.87,0,0,0-1,2.68c0,3.83,2.33,4.69,4.56,4.93A2.21,2.21,0,0,0,17.54,26a2.11,2.11,0,0,1-2.9-.83,2.09,2.09,0,0,0-1.54-1c-1,0-.07.61-.07.61.65.3,1.11,1.46,1.11,1.46.59,1.78,3.37,1.18,3.37,1.18,0,.83,0,1.61,0,1.86s-.18.57-.69.48A10,10,0,1,1,30,20.25ZM13.7,24.45c-.08,0-.14,0-.17,0s0,.12.09.16a.12.12,0,0,0,.17,0C13.82,24.56,13.78,24.49,13.7,24.45Zm.47.39c-.06-.06-.16-.09-.21,0s0,.13,0,.21.16.09.21,0S14.23,24.92,14.17,24.84Zm.42.55a.16.16,0,0,0-.22-.08c-.06,0-.06.14,0,.24s.17.13.22.09A.18.18,0,0,0,14.58,25.39Zm.49.55c-.09-.09-.21-.1-.26,0s0,.17.05.25.21.1.26,0S15.16,26,15.08,25.94Zm.62.36a.21.21,0,0,0-.25.09c0,.08.05.17.17.2a.19.19,0,0,0,.25-.08C15.9,26.43,15.82,26.34,15.7,26.3Zm.77.13c-.12,0-.21.07-.21.14s.09.16.22.14.21-.06.21-.14S16.59,26.42,16.47,26.43Zm.74-.1c-.12,0-.2.1-.18.2s.12.13.24.1.19-.1.18-.18S17.33,26.31,17.21,26.33Z"/></g></g></g></svg>