<svg xmlns="http://www.w3.org/2000/svg" viewBox="0 0 245 245">
    <title>html-course-bg</title>
    <g id="Слой_2" data-name="Слой 2">
        <g id="Слой_1-2" data-name="Слой 1">
            <circle cx="122.5" cy="122.5" r="76.56" fill="#fff" opacity="0.2"/>
            <circle cx="122.5" cy="122.5" r="91.88" fill="#fff" opacity="0.2"/>
            <circle cx="122.5" cy="122.5" r="107.19" fill="#fff" opacity="0.2"/>
            <circle cx="122.5" cy="122.5" r="122.5" fill="#fff" opacity="0.2"/>
            <circle cx="122.5" cy="122.5" r="61.25" fill="#fff"/>
            <path d="M83.69,98.21l-9.71,0-.05.15a1.12,1.12,0,0,0,0,.39c0,.13.19,2.18.4,4.56s.74,8.35,1.19,13.29c1.69,18.82,2.39,26.77,3,34.34l.2,2.48.35.09,4.67,1.2c8.17,2.09,11.2,2.94,13.34,3.72a16.8,16.8,0,0,0,2.93.91c1.24.22,2,.07,5-1.06,1.6-.59,6.6-1.95,17.74-4.8.14,0,.23-.1.23-.16,0-.56,1.24-14.81,2.56-29.57,1-11.33,1.58-17.7,2-22.89l.21-2.45-.56,0c-2.51-.16-19.41-.23-43.49-.18Zm18.59,10.72c2,0,6.55.08,10.13.09l6.5,0,0,.17-.17,1.7c-.08.84-.2,2.14-.25,2.88s-.11,1.54-.13,1.78l0,.44-2.58,1.17c-3.11,1.41-5.42,2.42-9.37,4.12-3.41,1.46-3.26,1.31-1.39,1.44.81.06,2.72.08,6.92.06l5.8,0V123c0,1.21-1.69,20.89-1.81,21s-5.32,1.46-10.29,2.74c-.83.21-2,.54-2.55.73s-1.24.38-1.47.43c-1.18.25-2.86,0-5.6-.84-1.36-.42-3.28-1-6.82-1.91-1.86-.5-3.4-.93-3.42-1s-.38-2.19-.57-3.76a49.9,49.9,0,0,1-.41-5.77v-1h6.74l0,.45c0,.56.35,4.22.39,4.66l0,.32.51.19a20.56,20.56,0,0,0,4.47,1c1.21.2,2.57.46,3,.57l.8.19,1-.31c1-.34,1.62-.51,4-1.2.84-.25,2-.58,2.48-.75l.94-.31,0-1.17c0-.64.1-1.84.17-2.64s.15-2.22.17-3.13l0-1.66-.37,0a117.11,117.11,0,0,0-12.91-.22c-4.2.09-12,.12-12.1,0a9.93,9.93,0,0,1-.13-1.12c0-.6-.16-1.76-.24-2.59s-.17-1.75-.19-2.06-.05-.71-.07-.89,0-.33.08-.37,5.85-2.49,8.84-3.79,5.22-2.25,6.78-2.88c.68-.28.68-.28.44-.32a84,84,0,0,0-8.81-.2c-5.08,0-6.8,0-7.38-.1l-.75-.08,0-.56c0-.31-.12-1.07-.2-1.69a26.79,26.79,0,0,1-.34-3.36V109h.67l2-.05c2.18-.07,13.46-.06,17.45,0Z"
                  fill="#3b97d3"/>
            <path d="M83.69,98.21l-9.71,0-.05.15a1.12,1.12,0,0,0,0,.39c0,.13.2,2.18.4,4.56s.74,8.35,1.19,13.29c1.69,18.82,2.39,26.77,3,34.34l.2,2.48.35.09,4.67,1.2c8.17,2.09,11.2,2.94,13.34,3.72a16.8,16.8,0,0,0,2.93.91,5,5,0,0,0,.84.08V148a15.62,15.62,0,0,1-4.85-.92c-1.36-.42-3.28-1-6.82-1.91-1.86-.5-3.4-.93-3.42-1s-.38-2.19-.57-3.76a49.89,49.89,0,0,1-.41-5.77v-1h6.74l0,.45c0,.56.35,4.22.39,4.66l0,.32.51.19a20.56,20.56,0,0,0,4.47,1c1.21.2,2.57.46,3,.57l.8.19.08,0V129.51q-2.11,0-4.57.06c-4.2.09-12,.12-12.1,0a9.94,9.94,0,0,1-.13-1.12c0-.6-.16-1.76-.24-2.59s-.17-1.75-.19-2.06-.05-.71-.07-.89,0-.33.08-.37,5.85-2.49,8.84-3.79,5.22-2.25,6.78-2.88c.68-.28.68-.28.44-.32a84,84,0,0,0-8.81-.2c-5.08,0-6.8,0-7.38-.1l-.75-.08,0-.56c0-.31-.12-1.07-.2-1.69a26.79,26.79,0,0,1-.34-3.36V109h.67l2-.05c2-.06,11.21-.06,16,0V98.2Z"
                  fill="#2880ba"/>
            <path d="M115.21,89.66c0,.27,1.43,16,3.12,35s3.07,34.52,3.08,34.53l14,4,14,3.94,14.05-3.94,14.07-4s1.4-15.55,3.09-34.53,3.09-34.73,3.12-35l.05-.5H115.16l.05.5ZM171,103.73c0,.14-.18,1.86-.35,3.84s-.34,3.77-.37,4l0,.42H137.35l0,.46c.05.47.68,8.14.68,8.29s5.25.08,15.67.08h15.67v.27c0,.31-2.38,26.24-2.41,26.26l-8.48,2.34c-4.66,1.28-8.61,2.37-8.78,2.43s-.53,0-9.14-2.33l-8.85-2.45s-1.06-13-1.06-13.29v-.27l4.23,0,4.23,0,.31,3.38c.17,1.86.32,3.39.32,3.4s9.46,2.57,9.57,2.57,9.47-2.51,9.53-2.58.27-2.37.54-5.2.51-5.32.54-5.53l0-.38h-29.8l0-.42c0-.23-.53-5.93-1.12-12.66S128,104,127.94,103.81l0-.34H171l0,.26Z"
                  fill="#e64c3c"/>
            <path d="M149.45,152.12c-.54-.06-2.16-.5-8.85-2.35l-8.85-2.45s-1.06-13-1.06-13.29v-.27l4.23,0,4.23,0,.31,3.38c.17,1.86.32,3.39.32,3.4s9.46,2.57,9.57,2.57l.08,0V129.48H130.22l0-.42c0-.23-.53-5.93-1.12-12.66S128,104,127.94,103.81l0-.34h21.55V89.16H115.16l.05.5c0,.27,1.43,16,3.12,35s3.07,34.52,3.08,34.53l14,4,14,3.94.08,0Z"
                  fill="#c03b2b"/>
            <path d="M137.4,112.44c.05.47.68,8.14.68,8.29s3.81.07,11.36.08V112H137.35Z" fill="#c03b2b"/>
        </g>
    </g>
</svg>