<svg xmlns="http://www.w3.org/2000/svg" viewBox="0 0 120 120"><title>it-tech</title><g id="Слой_2" data-name="Слой 2"><g id="Слой_1-2" data-name="Слой 1"><circle cx="60" cy="60" r="60" fill="#e64c3c"/><path d="M91.7,45.44c-.75,0-4.34,2.89-9.07,3.19l0,0a9.79,9.79,0,0,0,.71-.71,9.81,9.81,0,0,0,.71-.71,9.79,9.79,0,0,0,.71-.71,9.82,9.82,0,0,0,.71-.71,9.79,9.79,0,0,0,.71-.71,9.81,9.81,0,0,0,.71-.71,9.77,9.77,0,0,0,.71-.71,9.79,9.79,0,0,0,.71-.71A9.69,9.69,0,1,0,74.65,29.24a9.8,9.8,0,0,0-.71.71,9.8,9.8,0,0,0-.71.71,9.79,9.79,0,0,0-.71.71,9.8,9.8,0,0,0-.71.71,9.79,9.79,0,0,0-.71.71,9.79,9.79,0,0,0-.71.71,9.79,9.79,0,0,0-.71.71,9.8,9.8,0,0,0-.71.71,9.8,9.8,0,0,0-.71.71,9.79,9.79,0,0,0-.71.71,9.8,9.8,0,0,0-.71.71l-.28.25a14.49,14.49,0,0,0-17.19,3.06q-.37.34-.71.71t-.71.71q-.37.34-.71.71t-.71.71q-.37.34-.71.71t-.71.71q-.37.34-.71.71t-.71.71q-.37.34-.71.71t-.71.71q-.37.34-.71.71l-.11.1a14.91,14.91,0,0,1-2.5.35l0,0a9.8,9.8,0,0,0,.71-.71,9.79,9.79,0,0,0,.71-.71,9.8,9.8,0,0,0,.71-.71,9.79,9.79,0,0,0,.71-.71,9.79,9.79,0,0,0,.71-.71,9.79,9.79,0,0,0,.71-.71,9.8,9.8,0,0,0,.71-.71,9.8,9.8,0,0,0,.71-.71A9.69,9.69,0,1,0,31,29.24a9.77,9.77,0,0,0-.71.71,9.79,9.79,0,0,0-.71.71,9.81,9.81,0,0,0-.71.71,9.79,9.79,0,0,0-.71.71,9.81,9.81,0,0,0-.71.71,9.79,9.79,0,0,0-.71.71,9.81,9.81,0,0,0-.71.71,9.77,9.77,0,0,0-.71.71,9.79,9.79,0,0,0-.71.71,9.81,9.81,0,0,0-.71.71,9.79,9.79,0,0,0-.71.71,9.81,9.81,0,0,0-.71.71,9.79,9.79,0,0,0-.71.71,9.82,9.82,0,0,0-.71.71,9.82,9.82,0,0,0-.71.71,9.79,9.79,0,0,0-.71.71,9.77,9.77,0,0,0-.71.71,9.79,9.79,0,0,0-.71.71,9.81,9.81,0,0,0-.71.71,9.79,9.79,0,0,0-.71.71,9.81,9.81,0,0,0-.71.71,9.79,9.79,0,0,0-.71.71,9.81,9.81,0,0,0-.71.71,9.81,9.81,0,0,0-.71.71,9.79,9.79,0,0,0-.71.71,9.77,9.77,0,0,0-.71.71,9.79,9.79,0,0,0-.71.71,9.81,9.81,0,0,0-.71.71,9.79,9.79,0,0,0-.71.71,9.82,9.82,0,0,0-.71.71,9.82,9.82,0,0,0-.71.71,9.79,9.79,0,0,0-.71.71,9.77,9.77,0,0,0-.71.71,9.79,9.79,0,0,0-.71.71,9.81,9.81,0,0,0-.71.71,9.79,9.79,0,0,0-.71.71,9.81,9.81,0,0,0-.71.71,9.79,9.79,0,0,0-.71.71,9.81,9.81,0,0,0-.71.71,9.81,9.81,0,0,0-.71.71,9.79,9.79,0,0,0-.71.71,9.77,9.77,0,0,0-.71.71,9.79,9.79,0,0,0-.71.71c-.15.14-.29.28-.43.43a60,60,0,0,0,55.43,59.61c.2-.18.39-.37.57-.57a8.3,8.3,0,0,0,.71-.71,8.3,8.3,0,0,0,.71-.71,8.3,8.3,0,0,0,.71-.71,8.3,8.3,0,0,0,.71-.71,8.3,8.3,0,0,0,.71-.71,8.31,8.31,0,0,0,.71-.71,8.3,8.3,0,0,0,.71-.71,8.29,8.29,0,0,0,.71-.71,8.3,8.3,0,0,0,.71-.71,8.3,8.3,0,0,0,.71-.71,8.3,8.3,0,0,0,.71-.71,8.3,8.3,0,0,0,.71-.71,8.31,8.31,0,0,0,.71-.71,8.3,8.3,0,0,0,.71-.71,8.29,8.29,0,0,0,.71-.71,8.3,8.3,0,0,0,.71-.71,8.3,8.3,0,0,0,.71-.71,8.3,8.3,0,0,0,.71-.71,8.3,8.3,0,0,0,.71-.71,8.3,8.3,0,0,0,.71-.71,8.3,8.3,0,0,0,.71-.71,8.31,8.31,0,0,0,.71-.71,8.3,8.3,0,0,0,.71-.71,8.29,8.29,0,0,0,.71-.71,8.3,8.3,0,0,0,.71-.71,8.3,8.3,0,0,0,.71-.71,8.3,8.3,0,0,0,.71-.71,8.3,8.3,0,0,0,.71-.71,8.3,8.3,0,0,0,.71-.71,8.3,8.3,0,0,0,.71-.71,71301033.07,71301033.07,0,0,0,1.42-1.42,71252009.65,71252009.65,0,0,0,1.42-1.42,11677,11677,0,0,0,1.42-1.42A11676,11676,0,0,0,83,92.26a8.3,8.3,0,0,0,.71-.71,9.54,9.54,0,0,0,3-7.39,41.25,41.25,0,0,0-1.52-11.68l.07-.08a5.39,5.39,0,0,0,.71-.71,5.4,5.4,0,0,0,.71-.71,5.4,5.4,0,0,0,.71-.71,5.39,5.39,0,0,0,.71-.71,5.4,5.4,0,0,0,.71-.71,5.39,5.39,0,0,0,.71-.71,5.39,5.39,0,0,0,.71-.71,5.39,5.39,0,0,0,.71-.71,5.4,5.4,0,0,0,.71-.71,5.39,5.39,0,0,0,.71-.71,5.4,5.4,0,0,0,.71-.71,5.4,5.4,0,0,0,.71-.71,5.39,5.39,0,0,0,.71-.71,5.39,5.39,0,0,0,1.93-4.34C96.4,55.75,96.52,45.44,91.7,45.44Z" fill="#c03b2b"/><path d="M36,64.85H31c-3.79,0-7.36-1.82-7.36-6,0-3.07-.11-13.39,4.7-13.39.79,0,4.74,3.22,9.86,3.22a15.18,15.18,0,0,0,5-.87,18.13,18.13,0,0,0-.19,2.5A17.14,17.14,0,0,0,46.08,60,13.41,13.41,0,0,0,36,64.85Zm2.12-19.42a9.71,9.71,0,1,1,9.71-9.71A9.73,9.73,0,0,1,38.16,45.44ZM76.57,94H43.43C37.36,94,33.3,90.3,33.3,84.16c0-8.57,2-21.73,13.12-21.73,1.29,0,6,5.27,13.58,5.27s12.29-5.27,13.58-5.27c11.11,0,13.12,13.16,13.12,21.73C86.7,90.3,82.64,94,76.57,94ZM60,64.85A14.56,14.56,0,1,1,74.56,50.29,14.57,14.57,0,0,1,60,64.85ZM81.84,45.44a9.71,9.71,0,1,1,9.71-9.71A9.73,9.73,0,0,1,81.84,45.44ZM89,64.85H84a13.41,13.41,0,0,0-10-4.85A17.14,17.14,0,0,0,77,50.29a18.13,18.13,0,0,0-.19-2.5,15.18,15.18,0,0,0,5,.87c5.12,0,9.06-3.22,9.86-3.22,4.82,0,4.7,10.32,4.7,13.39C96.4,63,92.84,64.85,89,64.85Z" fill="#fff"/></g></g></svg>