<svg xmlns="http://www.w3.org/2000/svg" viewBox="0 0 120 120">
    <title>it-tech</title>
    <g id="Слой_2" data-name="Слой 2">
        <g id="Слой_1-2" data-name="Слой 1">
            <circle cx="60" cy="60" r="60" fill="#e64c3c"/>
            <path d="M81.84,49.42l5.78-5.78L75.33,28.54,66.56,37.3,49.37,40.37l-7.81,7.81-4.71,2.55,7.09-7.09L31.66,28.55,0,60.2a60,60,0,0,0,55.43,59.61L83,92.26l-.85-16.77L94.47,63.16Z"
                  fill="#c03b2b"/>
            <path d="M36,64.85H31c-3.79,0-7.36-1.82-7.36-6,0-3.07-.11-13.39,4.7-13.39.79,0,4.74,3.22,9.86,3.22a15.18,15.18,0,0,0,5-.87,18.13,18.13,0,0,0-.19,2.5A17.14,17.14,0,0,0,46.08,60,13.41,13.41,0,0,0,36,64.85Zm2.12-19.42a9.71,9.71,0,1,1,9.71-9.71A9.73,9.73,0,0,1,38.16,45.44ZM76.57,94H43.43C37.36,94,33.3,90.3,33.3,84.16c0-8.57,2-21.73,13.12-21.73,1.29,0,6,5.27,13.58,5.27s12.29-5.27,13.58-5.27c11.11,0,13.12,13.16,13.12,21.73C86.7,90.3,82.64,94,76.57,94ZM60,64.85A14.56,14.56,0,1,1,74.56,50.29,14.57,14.57,0,0,1,60,64.85ZM81.84,45.44a9.71,9.71,0,1,1,9.71-9.71A9.73,9.73,0,0,1,81.84,45.44ZM89,64.85H84a13.41,13.41,0,0,0-10-4.85A17.14,17.14,0,0,0,77,50.29a18.13,18.13,0,0,0-.19-2.5,15.18,15.18,0,0,0,5,.87c5.12,0,9.06-3.22,9.86-3.22,4.82,0,4.7,10.32,4.7,13.39C96.4,63,92.84,64.85,89,64.85Z"
                  fill="#fff"/>
        </g>
    </g>
</svg>