<svg xmlns="http://www.w3.org/2000/svg" viewBox="0 0 245 245"><title>java-course-bg</title><g id="Слой_2" data-name="Слой 2"><g id="Слой_1-2" data-name="Слой 1"><circle cx="122.5" cy="122.5" r="76.56" fill="#fff" opacity="0.2"/><circle cx="122.5" cy="122.5" r="91.88" fill="#fff" opacity="0.2"/><circle cx="122.5" cy="122.5" r="107.19" fill="#fff" opacity="0.2"/><circle cx="122.5" cy="122.5" r="122.5" fill="#fff" opacity="0.2"/><circle cx="122.5" cy="122.5" r="61.25" fill="#fff"/><path d="M131.56,71.74a22.94,22.94,0,0,1,.06,4.21A18,18,0,0,1,130,81.66c-1.27,2.53-2.31,3.5-8.25,7.74a44.17,44.17,0,0,0-6.37,5.16q-4.42,4.4-5.25,8.52a12,12,0,0,0,.09,3.81c.79,3.86,3.61,8.19,8,12.36a24.91,24.91,0,0,0,2.25,2,10.19,10.19,0,0,0-.48-1.09c-3.36-7.12-5.17-14.83-4.09-17.45a9.84,9.84,0,0,1,2.15-3,53.53,53.53,0,0,1,5.2-4.55A61.64,61.64,0,0,0,129.05,90c3.38-3.48,4.74-6.24,4.89-9.88a13.06,13.06,0,0,0-.6-4.63,19.57,19.57,0,0,0-1.7-3.75l-.16-.19.07.19Z" fill="#e57e25"/><path d="M138.14,91.8c-9.11,4-14.75,8.48-15.67,12.41a13.81,13.81,0,0,0,.63,6.09,16.43,16.43,0,0,0,3,5,10.2,10.2,0,0,1,1.65,2.35c.6,1.3.26,3.88-.84,6.33a3,3,0,0,0-.25.66,7.65,7.65,0,0,0,.94-.72,14.45,14.45,0,0,0,4.53-6.25,5.5,5.5,0,0,0,.22-2,5.12,5.12,0,0,0-.31-2.22,15.88,15.88,0,0,0-2.09-4c-1.64-2.51-2-3.38-2-4.76,0-1.73.87-3.47,2.78-5.58a71.35,71.35,0,0,1,7.71-6.89,16.3,16.3,0,0,0,1.38-1.15s-.78.31-1.64.69Z" fill="#e57e25"/><path d="M148.18,121.34a16.42,16.42,0,0,0-4,1.27l-.47.25.38,0c3.88.23,6.78,1.56,7.75,3.56a4.13,4.13,0,0,1-.19,3.92c-1.1,2.26-4.18,5.41-8,8.19a10.27,10.27,0,0,0-1.16.91,33.72,33.72,0,0,0,4.12-1.23q8.09-3,9.78-7.48a4.24,4.24,0,0,0,.3-2.06,6.35,6.35,0,0,0-.26-2.22,12.52,12.52,0,0,0-.71-1.85,5.16,5.16,0,0,0-1.21-1.66,5.26,5.26,0,0,0-2.56-1.51,12.28,12.28,0,0,0-3.74-.1Z" fill="#e57e25"/><path d="M108.5,122.53c-4.89.21-9,.9-10.91,1.85-1.17.58-1.62,1.05-1.77,1.86-.41,2.23,3.06,4,9.58,4.79a97.51,97.51,0,0,0,17.4.14c7.25-.67,13.52-2.45,17.34-4.92a3.24,3.24,0,0,0,.63-.46,6.58,6.58,0,0,0-1,.2c-5.29,1.28-16.85,2.08-26.51,1.83-5.41-.14-8.53-.43-10.23-1-.68-.21-.94-.45-.85-.79.26-1,2.76-2.2,6.77-3.18,1.57-.39,1.85-.47,1.42-.45l-1.89.08Z" fill="#e57e25"/><path d="M105.63,133.89a6.59,6.59,0,0,0-2.73,1.43c-.56.56-.65.94-.36,1.55.72,1.49,4.28,2.75,9.65,3.42a69.14,69.14,0,0,0,10,0,122.69,122.69,0,0,0,13.25-2.09c2.56-.55,2.65-.57,2.63-.63s-.86-.65-1.87-1.36c-1.52-1.07-1.89-1.28-2.08-1.23a96.13,96.13,0,0,1-11.55,1.85c-1.77.16-7.68.23-9.66.1a24.18,24.18,0,0,1-6.18-1c-1.16-.43-1.22-1.39-.15-2.17.22-.16.34-.29.27-.29a12.31,12.31,0,0,0-1.26.38Z" fill="#e57e25"/><path d="M108.62,143.4c-1.64.25-2.88.86-3.31,1.61a2.39,2.39,0,0,0,0,1.89c.54,1.18,2.53,2.21,5.53,2.84a46.13,46.13,0,0,0,10.25.94,34.36,34.36,0,0,0,7.48-.58,41.27,41.27,0,0,0,7.71-2.14l.51-.23-2.44-1.47-2.44-1.47-.62.13c-1,.2-5.51.94-6.84,1.11a35.84,35.84,0,0,1-6.2.15c-4.64-.27-8.29-.89-8.83-1.48a.83.83,0,0,1,0-1.11c.13-.2.19-.35.12-.34l-.9.13Z" fill="#e57e25"/><path d="M99.37,150.09c-6.42.51-10.08,1.54-10.85,3a2.29,2.29,0,0,0,.14,2c1.22,2.09,6.19,3.46,14.69,4.07a194.68,194.68,0,0,0,23.81.1c9.29-.61,17-2.07,21.69-4.11,2.19-.95,3.21-1.89,3.21-2.94a2.31,2.31,0,0,0-.86-1.59c-.15-.12-.15-.1-.06.2.26.86-.26,1.55-1.6,2.07-4.36,1.72-14.41,3.25-24.83,3.76-2.88.14-11.6.06-14.4-.14-9.55-.68-16-1.9-16.56-3.15-.44-1,1.84-2.08,6.32-3.11,1.28-.29,1.35-.32.82-.31-.31,0-1,0-1.51.08Z" fill="#e57e25"/><path d="M155.47,156c-2,1.7-6.28,3.59-10.56,4.66-3.4.85-6,1.18-12.07,1.5-4.5.24-26.69.12-30.34-.17-.84-.07-.31.08,1.51.42a122.92,122.92,0,0,0,30.34,1.56,76.39,76.39,0,0,0,13.29-2c4-1.16,6.82-3.09,7.92-5.39.38-.8.35-1-.1-.6Z" fill="#e57e25"/></g></g></svg>