<svg xmlns="http://www.w3.org/2000/svg" viewBox="0 0 152.73 50">
    <title>logotype</title>
    <g id="Слой_2" data-name="Слой 2">
        <g id="Слой_1-2" data-name="Слой 1">
            <path d="M88.43,19.77a1.13,1.13,0,0,0,.49-.11,1.35,1.35,0,0,0,.41-.3,1.6,1.6,0,0,0,.28-.41,1.06,1.06,0,0,0,.11-.46,1.11,1.11,0,0,0-.23-.68,1.27,1.27,0,0,0-.79-.42,45.44,45.44,0,0,0-4.66-.6q-2.23-.16-4.27-.16-1.5,0-2.91.07a26.23,26.23,0,0,0-2.64.26,14.19,14.19,0,0,0-2.26.52,6.57,6.57,0,0,0-1.76.85,3.71,3.71,0,0,0-1.14,1.25,3.5,3.5,0,0,0-.4,1.72,1.52,1.52,0,0,0,.23.75,1.66,1.66,0,0,0,.56.52,2.67,2.67,0,0,0,2.17,0,1.65,1.65,0,0,0,.56-.5,1.26,1.26,0,0,0,.21-.51q0-.23,0-.26a1.32,1.32,0,0,1,.23-.77,2,2,0,0,1,.62-.56,3.92,3.92,0,0,1,.91-.39,9.58,9.58,0,0,1,1.13-.25q.6-.1,1.24-.16l1.26-.11q-.71,2.23-1.33,4t-1.14,3.32l-1,2.76q-.43,1.25-.77,2.37T73,33.7q-.25,1-.4,2.1a2,2,0,0,0-.07.49,1.18,1.18,0,0,0,.43,1,1.82,1.82,0,0,0,1.1.32,1,1,0,0,0,.48-.13,2,2,0,0,0,.5-.38,2.92,2.92,0,0,0,.43-.58,2.68,2.68,0,0,0,.29-.73q.22-.87.57-2.07t.74-2.63q.4-1.42.83-3T78.75,25q.39-1.58.72-3.09T80,19.05q1.2.06,2.32.18l2.19.23,2,.21Q87.53,19.77,88.43,19.77Z"
                  fill="#c03b2b"/>
            <path d="M130.76,24.12a2.62,2.62,0,0,0,1-.18,2.11,2.11,0,0,0,.71-.47,1.8,1.8,0,0,0,.41-.67A2.36,2.36,0,0,0,133,22a1.66,1.66,0,0,0-.16-.75,1.37,1.37,0,0,0-.43-.51,1.88,1.88,0,0,0-.63-.29,3.09,3.09,0,0,0-.77-.09,2.59,2.59,0,0,0-1.1.21,2.11,2.11,0,0,0-.7.5,2,2,0,0,0-.5,1.25,1.74,1.74,0,0,0,.49,1.29A2.09,2.09,0,0,0,130.76,24.12Z"
                  fill="#c03b2b"/>
            <path d="M146.9,31.77l.12-.46q.06-.22.12-.4a2.56,2.56,0,0,1,.12-.3q.54-1.05,1.15-2.16t1.22-2.25q.61-1.14,1.17-2.3t1-2.31a17.38,17.38,0,0,0,.68-2.3,10.4,10.4,0,0,0,.25-2.24,6.09,6.09,0,0,0-.08-1,2.93,2.93,0,0,0-.26-.85,1.58,1.58,0,0,0-.52-.6,1.42,1.42,0,0,0-.83-.23,2.72,2.72,0,0,0-1.45.45A5.89,5.89,0,0,0,148.22,16,12.24,12.24,0,0,0,147,17.88a21.26,21.26,0,0,0-1.11,2.26,26.6,26.6,0,0,0-.91,2.52q-.4,1.31-.7,2.61t-.45,2.53a18.45,18.45,0,0,0-.15,2.27,14.28,14.28,0,0,0,.22,2.56l-.19.22q-.25.27-.52.52a6.21,6.21,0,0,1-.55.45,3.21,3.21,0,0,1-.54.32,1.24,1.24,0,0,1-.52.12.41.41,0,0,1-.43-.31,2.94,2.94,0,0,1-.1-.86,8.52,8.52,0,0,1,.12-1.37q.12-.72.26-1.44t.26-1.41a7.46,7.46,0,0,0,.12-1.25,2,2,0,0,0-.06-.57.78.78,0,0,0-.18-.33.55.55,0,0,0-.27-.15,1.46,1.46,0,0,0-.33,0h-.53l-.3,0a1.08,1.08,0,0,1-.29-.08.55.55,0,0,1-.23-.19l-.19-.26a1.06,1.06,0,0,0-.25-.24.73.73,0,0,0-.42-.11,3.88,3.88,0,0,0-1.59.35,6.31,6.31,0,0,0-1.48.93,8.19,8.19,0,0,0-1.29,1.37,10.29,10.29,0,0,0-1,1.67,9.87,9.87,0,0,0-.68,1.81,7.08,7.08,0,0,0-.23,1.55l-.36.3a8.36,8.36,0,0,1-1,.71,1.93,1.93,0,0,1-.94.29.46.46,0,0,1-.48-.31,2.43,2.43,0,0,1-.12-.84,7.15,7.15,0,0,1,.12-1.21q.12-.67.29-1.38t.38-1.42l.38-1.32q.18-.62.29-1.1a3.46,3.46,0,0,0,.12-.74.67.67,0,0,0-.18-.49.93.93,0,0,0-.67-.18,3.21,3.21,0,0,0-.6.06,3.08,3.08,0,0,0-.64.2,2.1,2.1,0,0,0-.56.35,1,1,0,0,0-.33.52q-.21.88-.49,1.92c-.13.49-.25,1-.37,1.48a7.08,7.08,0,0,1-.94.48,2.83,2.83,0,0,1-1.09.23.93.93,0,0,1-.36-.07.76.76,0,0,1-.3-.24,1.31,1.31,0,0,1-.22-.45,2.55,2.55,0,0,1-.08-.7,4.05,4.05,0,0,1,.06-.62q.06-.37.13-.76t.13-.75a3.68,3.68,0,0,0,.06-.56,1.1,1.1,0,0,0-.09-.46,1,1,0,0,0-.25-.35,1.12,1.12,0,0,0-.37-.22,1.27,1.27,0,0,0-.43-.08,1.93,1.93,0,0,0-1.14.35,4,4,0,0,0-.88.85,6.84,6.84,0,0,0-.68,1.08l-.53,1h-.13q0-.6,0-1.21v-1q0-.36,0-.57a.63.63,0,0,0-.1-.32.38.38,0,0,0-.25-.14,3,3,0,0,0-.47,0,2.9,2.9,0,0,0-.45,0,.71.71,0,0,0-.3.12.81.81,0,0,0-.22.24,2.3,2.3,0,0,0-.19.41,8.44,8.44,0,0,0-.3,1q-.15.6-.3,1.31l0,.18c-.2-.22-.38-.45-.59-.67a10.42,10.42,0,0,0-1.58-1.33,7.92,7.92,0,0,0-1.82-.93,6.18,6.18,0,0,0-2.09-.35,5.6,5.6,0,0,0-2.34.47,5.12,5.12,0,0,0-1.76,1.3,5.81,5.81,0,0,0-1.11,1.95,7.32,7.32,0,0,0-.39,2.41c0,.16,0,.32,0,.48-.2.16-.4.32-.61.47s-.64.43-1,.62-.63.35-.93.49a6.8,6.8,0,0,1-.81.32,2.11,2.11,0,0,1-.62.12,2,2,0,0,1-.72-.12,1.28,1.28,0,0,1-.54-.4,1.9,1.9,0,0,1-.34-.71,4.15,4.15,0,0,1-.12-1.07q0-.25,0-.54t0-.61l0-.64,0-.63q0-.7.08-1.43l.64-.81.69-.92h4.5a.69.69,0,0,0,.52-.26,1,1,0,0,0,.23-.67,1.31,1.31,0,0,0-.11-.56.38.38,0,0,0-.34-.23l-.5,0-.66,0-.73,0-.7,0-.57,0-.35,0q.42-.67.8-1.35a13.73,13.73,0,0,0,.66-1.34,9.16,9.16,0,0,0,.45-1.3,4.88,4.88,0,0,0,.16-1.21,5.32,5.32,0,0,0-.16-1.31,3.82,3.82,0,0,0-.45-1.1,2.47,2.47,0,0,0-.71-.75,1.61,1.61,0,0,0-.92-.28,2.14,2.14,0,0,0-1.5.7,7.27,7.27,0,0,0-1.32,1.85,17.41,17.41,0,0,0-1.09,2.64,26.48,26.48,0,0,0-.8,3.06,2.34,2.34,0,0,1-.43,0l-.7,0h-.82a5.32,5.32,0,0,0-.79.06,1.89,1.89,0,0,0-.59.18.39.39,0,0,0-.23.36q0,.11,0,.25a.73.73,0,0,0,.08.28.63.63,0,0,0,.22.23,1,1,0,0,0,.43.13l1,.12.55.09.41.08.54.09q-.11.79-.16,1.58t-.06,1.5a20.86,20.86,0,0,0,.23,3.25v.05l-.4.34q-.39.3-.83.58t-.85.49a6,6,0,0,1-.79.35,2,2,0,0,1-.63.13.52.52,0,0,1-.36-.11.66.66,0,0,1-.18-.32,2.08,2.08,0,0,1-.07-.48q0-.28,0-.6a4.83,4.83,0,0,1,.07-.63q.07-.45.18-1l.24-1.29q.13-.69.24-1.34t.18-1.2a7.13,7.13,0,0,0,.07-.86.62.62,0,0,0-.35-.54,1.84,1.84,0,0,0-.95-.21,2.21,2.21,0,0,0-.94.19q-.42.19-.47.47l-1.16,6a3.25,3.25,0,0,1-.28.84,2.6,2.6,0,0,1-.43.62,1.85,1.85,0,0,1-.51.39,1.17,1.17,0,0,1-.53.13.5.5,0,0,1-.3-.09.72.72,0,0,1-.21-.25,1.29,1.29,0,0,1-.12-.35,1.94,1.94,0,0,1,0-.4l.05-.36q.05-.35.15-.93l.21-1.31q.12-.73.25-1.51l.25-1.54q.12-.76.23-1.38,0-.2-.27-.33a2.34,2.34,0,0,0-.89-.16,1.32,1.32,0,0,0-.67.2,2,2,0,0,0-.52.48,3.38,3.38,0,0,0-.39.66,6.52,6.52,0,0,0-.28.71q-.11.35-.18.65t-.09.47q-.32,1.79-.53,3.19a15.52,15.52,0,0,0-.22,2.3,4.29,4.29,0,0,0,.15,1.24,2.19,2.19,0,0,0,.42.8,1.5,1.5,0,0,0,.6.43,2,2,0,0,0,.73.13,2.66,2.66,0,0,0,1-.19,4.68,4.68,0,0,0,1-.53,7.38,7.38,0,0,0,1-.8,9.78,9.78,0,0,0,.89-1,7.77,7.77,0,0,0,.28,1,3,3,0,0,0,.39.76,1.67,1.67,0,0,0,.54.49,1.55,1.55,0,0,0,.76.18,4.15,4.15,0,0,0,1-.12,8,8,0,0,0,1-.33,10.85,10.85,0,0,0,1-.47q.52-.27,1-.56t.84-.59l.32-.26c0,.12.08.25.13.36a4.07,4.07,0,0,0,1.14,1.55,2.46,2.46,0,0,0,1.57.54,3.32,3.32,0,0,0,1-.16,9,9,0,0,0,1.22-.49q.69-.33,1.56-.82l1.44-.82a4.93,4.93,0,0,0,.35.67,3.76,3.76,0,0,0,1.2,1.18,3.3,3.3,0,0,0,1.76.45,3.69,3.69,0,0,0,1.35-.25,4.49,4.49,0,0,0,1.17-.67,5,5,0,0,0,.95-1,6.6,6.6,0,0,0,.7-1.23,7.17,7.17,0,0,0,.44-1.36,6.35,6.35,0,0,0,0-2.84,6.27,6.27,0,0,0-.51-1.44l.09-.13,1,.7q.59.42,1.19.88t1.14,1h0c-.07.42-.14.85-.19,1.26s-.12,1-.16,1.45-.06.86-.06,1.2a7.62,7.62,0,0,0,.05.91,2.63,2.63,0,0,0,.21.79,1.23,1.23,0,0,0,1.22.76,1,1,0,0,0,.39-.08.88.88,0,0,0,.33-.26,2.57,2.57,0,0,0,.3-.49,7.55,7.55,0,0,0,.31-.76l2.1-5.85h.19q.09.74.25,1.46a4.75,4.75,0,0,0,.47,1.3,2.6,2.6,0,0,0,.86.94,2.53,2.53,0,0,0,1.42.36,3.26,3.26,0,0,0,1-.15,6.19,6.19,0,0,0,.84-.33,9.9,9.9,0,0,0-.14,1.5,3.93,3.93,0,0,0,.11,1,1.83,1.83,0,0,0,.37.74,1.71,1.71,0,0,0,.67.47,2.72,2.72,0,0,0,1,.17,4.64,4.64,0,0,0,1.44-.25,10.33,10.33,0,0,0,1.48-.62,11.17,11.17,0,0,0,1.22-.73,3.1,3.1,0,0,0,.5.73,2.85,2.85,0,0,0,.94.66,2.76,2.76,0,0,0,1.1.23,3.32,3.32,0,0,0,1.05-.18,5.73,5.73,0,0,0,1-.45,6.15,6.15,0,0,0,.9-.62A5.69,5.69,0,0,0,139,35a4.06,4.06,0,0,0,.89,1.45,1.78,1.78,0,0,0,1.29.5,2.9,2.9,0,0,0,1.29-.32,6.34,6.34,0,0,0,1.21-.77,8.83,8.83,0,0,0,.92-.87,4.77,4.77,0,0,0,.87,1.34,1.63,1.63,0,0,0,1.18.56,3.63,3.63,0,0,0,.86-.11,7.4,7.4,0,0,0,.94-.3q.48-.19,1-.43l.92-.49a24.17,24.17,0,0,0,2.06-1.34l-1-2.46q-.81.64-1.55,1.14l-.66.42q-.34.21-.66.36a4.71,4.71,0,0,1-.61.25,1.67,1.67,0,0,1-.51.09q-.09,0-.2-.13a1.54,1.54,0,0,1-.2-.36,3.22,3.22,0,0,1-.16-.52,2.69,2.69,0,0,1-.06-.59v-.16Q146.84,32,146.9,31.77Zm-46.15-9.5q.25-1,.54-1.85a8,8,0,0,1,.6-1.38q.31-.54.62-.54a.52.52,0,0,1,.53.33,1.08,1.08,0,0,1,.08.3,2.62,2.62,0,0,1,0,.29,3.13,3.13,0,0,1-.2,1q-.2.59-.5,1.26T101.73,23q-.38.7-.73,1.29l-.36,0-.35,0Q100.49,23.27,100.74,22.27ZM112,31.85a7,7,0,0,1-.45,1.36,3.82,3.82,0,0,1-.66,1,1.07,1.07,0,0,1-.77.4,1.47,1.47,0,0,1-1.31-.71,2.38,2.38,0,0,1-.29-.76,4.37,4.37,0,0,1-.09-.93,6.69,6.69,0,0,1,.7-2.9,3.84,3.84,0,0,1,.76-1,1.32,1.32,0,0,1,.91-.41,1,1,0,0,1,.62.2,1.48,1.48,0,0,1,.42.54,3.08,3.08,0,0,1,.25.8,5.75,5.75,0,0,1,.08,1A6.4,6.4,0,0,1,112,31.85Zm26.37-.52a6.63,6.63,0,0,1-.21.94,6.46,6.46,0,0,1-.42,1.09,3.65,3.65,0,0,1-.61.9,1.06,1.06,0,0,1-.79.38.71.71,0,0,1-.45-.13,1,1,0,0,1-.28-.35,1.69,1.69,0,0,1-.15-.49,3.85,3.85,0,0,1,0-.57,4.93,4.93,0,0,1,.13-1.1,7,7,0,0,1,.38-1.17,7.31,7.31,0,0,1,.59-1.11,5.82,5.82,0,0,1,.74-.94,3.5,3.5,0,0,1,.86-.65,2,2,0,0,1,.94-.24Zm8.32-3.82a16.93,16.93,0,0,1,.16-2.31,21.84,21.84,0,0,1,.45-2.31q.28-1.12.64-2.12a13.92,13.92,0,0,1,.75-1.75,5.91,5.91,0,0,1,.79-1.19,1.06,1.06,0,0,1,.73-.44q.09,0,.11.24t0,.58a11.58,11.58,0,0,1-.49,2.3q-.39,1.24-.91,2.48t-1.12,2.41Q147.18,26.57,146.65,27.5Z"
                  fill="#c03b2b"/>
            <path d="M88.43,18.77a1.13,1.13,0,0,0,.49-.11,1.35,1.35,0,0,0,.41-.3,1.6,1.6,0,0,0,.28-.41,1.06,1.06,0,0,0,.11-.46,1.11,1.11,0,0,0-.23-.68,1.27,1.27,0,0,0-.79-.42,45.44,45.44,0,0,0-4.66-.6q-2.23-.16-4.27-.16-1.5,0-2.91.07a26.23,26.23,0,0,0-2.64.26,14.19,14.19,0,0,0-2.26.52,6.57,6.57,0,0,0-1.76.85,3.71,3.71,0,0,0-1.14,1.25,3.5,3.5,0,0,0-.4,1.72,1.52,1.52,0,0,0,.23.75,1.66,1.66,0,0,0,.56.52,2.67,2.67,0,0,0,2.17,0,1.65,1.65,0,0,0,.56-.5,1.26,1.26,0,0,0,.21-.51q0-.23,0-.26a1.32,1.32,0,0,1,.23-.77,2,2,0,0,1,.62-.56,3.92,3.92,0,0,1,.91-.39,9.58,9.58,0,0,1,1.13-.25q.6-.1,1.24-.16l1.26-.11q-.71,2.23-1.33,4t-1.14,3.32l-1,2.76q-.43,1.25-.77,2.37T73,32.7q-.25,1-.4,2.1a2,2,0,0,0-.07.49,1.18,1.18,0,0,0,.43,1,1.82,1.82,0,0,0,1.1.32,1,1,0,0,0,.48-.13,2,2,0,0,0,.5-.38,2.92,2.92,0,0,0,.43-.58,2.68,2.68,0,0,0,.29-.73q.22-.87.57-2.07t.74-2.63q.4-1.42.83-3T78.75,24q.39-1.58.72-3.09T80,18.05q1.2.06,2.32.18l2.19.23,2,.21Q87.53,18.77,88.43,18.77Z"
                  fill="#fff"/>
            <path d="M130.76,23.12a2.62,2.62,0,0,0,1-.18,2.11,2.11,0,0,0,.71-.47,1.8,1.8,0,0,0,.41-.67A2.36,2.36,0,0,0,133,21a1.66,1.66,0,0,0-.16-.75,1.37,1.37,0,0,0-.43-.51,1.88,1.88,0,0,0-.63-.29,3.09,3.09,0,0,0-.77-.09,2.59,2.59,0,0,0-1.1.21,2.11,2.11,0,0,0-.7.5,2,2,0,0,0-.5,1.25,1.74,1.74,0,0,0,.49,1.29A2.09,2.09,0,0,0,130.76,23.12Z"
                  fill="#fff"/>
            <path d="M146.9,30.77l.12-.46q.06-.22.12-.4a2.56,2.56,0,0,1,.12-.3q.54-1.05,1.15-2.16t1.22-2.25q.61-1.14,1.17-2.3t1-2.31a17.38,17.38,0,0,0,.68-2.3,10.4,10.4,0,0,0,.25-2.24,6.09,6.09,0,0,0-.08-1,2.93,2.93,0,0,0-.26-.85,1.58,1.58,0,0,0-.52-.6,1.42,1.42,0,0,0-.83-.23,2.72,2.72,0,0,0-1.45.45A5.89,5.89,0,0,0,148.22,15,12.24,12.24,0,0,0,147,16.88a21.26,21.26,0,0,0-1.11,2.26,26.6,26.6,0,0,0-.91,2.52q-.4,1.31-.7,2.61t-.45,2.53a18.45,18.45,0,0,0-.15,2.27,14.28,14.28,0,0,0,.22,2.56l-.19.22q-.25.27-.52.52a6.21,6.21,0,0,1-.55.45,3.21,3.21,0,0,1-.54.32,1.24,1.24,0,0,1-.52.12.41.41,0,0,1-.43-.31,2.94,2.94,0,0,1-.1-.86,8.52,8.52,0,0,1,.12-1.37q.12-.72.26-1.44t.26-1.41a7.46,7.46,0,0,0,.12-1.25,2,2,0,0,0-.06-.57.78.78,0,0,0-.18-.33.55.55,0,0,0-.27-.15,1.46,1.46,0,0,0-.33,0h-.53l-.3,0a1.08,1.08,0,0,1-.29-.08.55.55,0,0,1-.23-.19l-.19-.26a1.06,1.06,0,0,0-.25-.24.73.73,0,0,0-.42-.11,3.88,3.88,0,0,0-1.59.35,6.31,6.31,0,0,0-1.48.93,8.19,8.19,0,0,0-1.29,1.37,10.29,10.29,0,0,0-1,1.67,9.87,9.87,0,0,0-.68,1.81,7.08,7.08,0,0,0-.23,1.55l-.36.3a8.36,8.36,0,0,1-1,.71,1.93,1.93,0,0,1-.94.29.46.46,0,0,1-.48-.31,2.43,2.43,0,0,1-.12-.84,7.15,7.15,0,0,1,.12-1.21q.12-.67.29-1.38t.38-1.42l.38-1.32q.18-.62.29-1.1a3.46,3.46,0,0,0,.12-.74.67.67,0,0,0-.18-.49.93.93,0,0,0-.67-.18,3.21,3.21,0,0,0-.6.06,3.08,3.08,0,0,0-.64.2,2.1,2.1,0,0,0-.56.35,1,1,0,0,0-.33.52q-.21.88-.49,1.92c-.13.49-.25,1-.37,1.48a7.08,7.08,0,0,1-.94.48,2.83,2.83,0,0,1-1.09.23.93.93,0,0,1-.36-.07.76.76,0,0,1-.3-.24,1.31,1.31,0,0,1-.22-.45,2.55,2.55,0,0,1-.08-.7,4.05,4.05,0,0,1,.06-.62q.06-.37.13-.76t.13-.75a3.68,3.68,0,0,0,.06-.56,1.1,1.1,0,0,0-.09-.46,1,1,0,0,0-.25-.35,1.12,1.12,0,0,0-.37-.22,1.27,1.27,0,0,0-.43-.08,1.93,1.93,0,0,0-1.14.35,4,4,0,0,0-.88.85,6.84,6.84,0,0,0-.68,1.08l-.53,1h-.13q0-.6,0-1.21v-1q0-.36,0-.57a.63.63,0,0,0-.1-.32.38.38,0,0,0-.25-.14,3,3,0,0,0-.47,0,2.9,2.9,0,0,0-.45,0,.71.71,0,0,0-.3.12.81.81,0,0,0-.22.24,2.3,2.3,0,0,0-.19.41,8.44,8.44,0,0,0-.3,1q-.15.6-.3,1.31l0,.18c-.2-.22-.38-.45-.59-.67a10.42,10.42,0,0,0-1.58-1.33,7.92,7.92,0,0,0-1.82-.93,6.18,6.18,0,0,0-2.09-.35,5.6,5.6,0,0,0-2.34.47,5.12,5.12,0,0,0-1.76,1.3,5.81,5.81,0,0,0-1.11,1.95,7.32,7.32,0,0,0-.39,2.41c0,.16,0,.32,0,.48-.2.16-.4.32-.61.47s-.64.43-1,.62-.63.35-.93.49a6.8,6.8,0,0,1-.81.32,2.11,2.11,0,0,1-.62.12,2,2,0,0,1-.72-.12,1.28,1.28,0,0,1-.54-.4,1.9,1.9,0,0,1-.34-.71,4.15,4.15,0,0,1-.12-1.07q0-.25,0-.54t0-.61l0-.64,0-.63q0-.7.08-1.43l.64-.81.69-.92h4.5a.69.69,0,0,0,.52-.26,1,1,0,0,0,.23-.67,1.31,1.31,0,0,0-.11-.56.38.38,0,0,0-.34-.23l-.5,0-.66,0-.73,0-.7,0-.57,0-.35,0q.42-.67.8-1.35a13.73,13.73,0,0,0,.66-1.34,9.16,9.16,0,0,0,.45-1.3,4.88,4.88,0,0,0,.16-1.21,5.32,5.32,0,0,0-.16-1.31,3.82,3.82,0,0,0-.45-1.1,2.47,2.47,0,0,0-.71-.75,1.61,1.61,0,0,0-.92-.28,2.14,2.14,0,0,0-1.5.7,7.27,7.27,0,0,0-1.32,1.85,17.41,17.41,0,0,0-1.09,2.64,26.48,26.48,0,0,0-.8,3.06,2.34,2.34,0,0,1-.43,0l-.7,0h-.82a5.32,5.32,0,0,0-.79.06,1.89,1.89,0,0,0-.59.18.39.39,0,0,0-.23.36q0,.11,0,.25a.73.73,0,0,0,.08.28.63.63,0,0,0,.22.23,1,1,0,0,0,.43.13l1,.12.55.09.41.08.54.09q-.11.79-.16,1.58t-.06,1.5a20.86,20.86,0,0,0,.23,3.25v.05l-.4.34q-.39.3-.83.58t-.85.49a6,6,0,0,1-.79.35,2,2,0,0,1-.63.13.52.52,0,0,1-.36-.11.66.66,0,0,1-.18-.32,2.08,2.08,0,0,1-.07-.48q0-.28,0-.6a4.83,4.83,0,0,1,.07-.63q.07-.45.18-1l.24-1.29q.13-.69.24-1.34t.18-1.2a7.13,7.13,0,0,0,.07-.86.62.62,0,0,0-.35-.54,1.84,1.84,0,0,0-.95-.21,2.21,2.21,0,0,0-.94.19q-.42.19-.47.47l-1.16,6a3.25,3.25,0,0,1-.28.84,2.6,2.6,0,0,1-.43.62,1.85,1.85,0,0,1-.51.39,1.17,1.17,0,0,1-.53.13.5.5,0,0,1-.3-.09.72.72,0,0,1-.21-.25,1.29,1.29,0,0,1-.12-.35,1.94,1.94,0,0,1,0-.4l.05-.36q.05-.35.15-.93l.21-1.31q.12-.73.25-1.51l.25-1.54q.12-.76.23-1.38,0-.2-.27-.33a2.34,2.34,0,0,0-.89-.16,1.32,1.32,0,0,0-.67.2,2,2,0,0,0-.52.48,3.38,3.38,0,0,0-.39.66,6.52,6.52,0,0,0-.28.71q-.11.35-.18.65t-.09.47q-.32,1.79-.53,3.19a15.52,15.52,0,0,0-.22,2.3,4.29,4.29,0,0,0,.15,1.24,2.19,2.19,0,0,0,.42.8,1.5,1.5,0,0,0,.6.43,2,2,0,0,0,.73.13,2.66,2.66,0,0,0,1-.19,4.68,4.68,0,0,0,1-.53,7.38,7.38,0,0,0,1-.8,9.78,9.78,0,0,0,.89-1,7.77,7.77,0,0,0,.28,1,3,3,0,0,0,.39.76,1.67,1.67,0,0,0,.54.49,1.55,1.55,0,0,0,.76.18,4.15,4.15,0,0,0,1-.12,8,8,0,0,0,1-.33,10.85,10.85,0,0,0,1-.47q.52-.27,1-.56t.84-.59l.32-.26c0,.12.08.25.13.36a4.07,4.07,0,0,0,1.14,1.55,2.46,2.46,0,0,0,1.57.54,3.32,3.32,0,0,0,1-.16,9,9,0,0,0,1.22-.49q.69-.33,1.56-.82l1.44-.82a4.93,4.93,0,0,0,.35.67,3.76,3.76,0,0,0,1.2,1.18,3.3,3.3,0,0,0,1.76.45,3.69,3.69,0,0,0,1.35-.25,4.49,4.49,0,0,0,1.17-.67,5,5,0,0,0,.95-1,6.6,6.6,0,0,0,.7-1.23,7.17,7.17,0,0,0,.44-1.36,6.35,6.35,0,0,0,0-2.84,6.27,6.27,0,0,0-.51-1.44l.09-.13,1,.7q.59.42,1.19.88t1.14,1h0c-.07.42-.14.85-.19,1.26s-.12,1-.16,1.45-.06.86-.06,1.2a7.62,7.62,0,0,0,.05.91,2.63,2.63,0,0,0,.21.79,1.23,1.23,0,0,0,1.22.76,1,1,0,0,0,.39-.08.88.88,0,0,0,.33-.26,2.57,2.57,0,0,0,.3-.49,7.55,7.55,0,0,0,.31-.76l2.1-5.85h.19q.09.74.25,1.46a4.75,4.75,0,0,0,.47,1.3,2.6,2.6,0,0,0,.86.94,2.53,2.53,0,0,0,1.42.36,3.26,3.26,0,0,0,1-.15,6.19,6.19,0,0,0,.84-.33,9.9,9.9,0,0,0-.14,1.5,3.93,3.93,0,0,0,.11,1,1.83,1.83,0,0,0,.37.74,1.71,1.71,0,0,0,.67.47,2.72,2.72,0,0,0,1,.17,4.64,4.64,0,0,0,1.44-.25,10.33,10.33,0,0,0,1.48-.62,11.17,11.17,0,0,0,1.22-.73,3.1,3.1,0,0,0,.5.73,2.85,2.85,0,0,0,.94.66,2.76,2.76,0,0,0,1.1.23,3.32,3.32,0,0,0,1.05-.18,5.73,5.73,0,0,0,1-.45,6.15,6.15,0,0,0,.9-.62A5.69,5.69,0,0,0,139,34a4.06,4.06,0,0,0,.89,1.45,1.78,1.78,0,0,0,1.29.5,2.9,2.9,0,0,0,1.29-.32,6.34,6.34,0,0,0,1.21-.77,8.83,8.83,0,0,0,.92-.87,4.77,4.77,0,0,0,.87,1.34,1.63,1.63,0,0,0,1.18.56,3.63,3.63,0,0,0,.86-.11,7.4,7.4,0,0,0,.94-.3q.48-.19,1-.43l.92-.49a24.17,24.17,0,0,0,2.06-1.34l-1-2.46q-.81.64-1.55,1.14l-.66.42q-.34.21-.66.36a4.71,4.71,0,0,1-.61.25,1.67,1.67,0,0,1-.51.09q-.09,0-.2-.13a1.54,1.54,0,0,1-.2-.36,3.22,3.22,0,0,1-.16-.52,2.69,2.69,0,0,1-.06-.59v-.16Q146.84,31,146.9,30.77Zm-46.15-9.5q.25-1,.54-1.85a8,8,0,0,1,.6-1.38q.31-.54.62-.54a.52.52,0,0,1,.53.33,1.08,1.08,0,0,1,.08.3,2.62,2.62,0,0,1,0,.29,3.13,3.13,0,0,1-.2,1q-.2.59-.5,1.26T101.73,22q-.38.7-.73,1.29l-.36,0-.35,0Q100.49,22.27,100.74,21.27ZM112,30.85a7,7,0,0,1-.45,1.36,3.82,3.82,0,0,1-.66,1,1.07,1.07,0,0,1-.77.4,1.47,1.47,0,0,1-1.31-.71,2.38,2.38,0,0,1-.29-.76,4.37,4.37,0,0,1-.09-.93,6.69,6.69,0,0,1,.7-2.9,3.84,3.84,0,0,1,.76-1,1.32,1.32,0,0,1,.91-.41,1,1,0,0,1,.62.2,1.48,1.48,0,0,1,.42.54,3.08,3.08,0,0,1,.25.8,5.75,5.75,0,0,1,.08,1A6.4,6.4,0,0,1,112,30.85Zm26.37-.52a6.63,6.63,0,0,1-.21.94,6.46,6.46,0,0,1-.42,1.09,3.65,3.65,0,0,1-.61.9,1.06,1.06,0,0,1-.79.38.71.71,0,0,1-.45-.13,1,1,0,0,1-.28-.35,1.69,1.69,0,0,1-.15-.49,3.85,3.85,0,0,1,0-.57,4.93,4.93,0,0,1,.13-1.1,7,7,0,0,1,.38-1.17,7.31,7.31,0,0,1,.59-1.11,5.82,5.82,0,0,1,.74-.94,3.5,3.5,0,0,1,.86-.65,2,2,0,0,1,.94-.24Zm8.32-3.82a16.93,16.93,0,0,1,.16-2.31,21.84,21.84,0,0,1,.45-2.31q.28-1.12.64-2.12a13.92,13.92,0,0,1,.75-1.75,5.91,5.91,0,0,1,.79-1.19,1.06,1.06,0,0,1,.73-.44q.09,0,.11.24t0,.58a11.58,11.58,0,0,1-.49,2.3q-.39,1.24-.91,2.48t-1.12,2.41Q147.18,25.57,146.65,26.5Z"
                  fill="#fff"/>
            <path d="M44.38,4,54.15,21a8.09,8.09,0,0,1,0,8.09L44.38,46a8.09,8.09,0,0,1-7,4H17.85a8.09,8.09,0,0,1-7-4L1.08,29a8.09,8.09,0,0,1,0-8.09L10.85,4a8.09,8.09,0,0,1,7-4H37.38A8.09,8.09,0,0,1,44.38,4Z"
                  fill="#c03b2b"/>
            <path d="M52.3,4,62.07,21a8.09,8.09,0,0,1,0,8.09L52.3,46a8.09,8.09,0,0,1-7,4H25.77a8.09,8.09,0,0,1-7-4L9,29A8.09,8.09,0,0,1,9,21L18.77,4a8.09,8.09,0,0,1,7-4H45.3A8.09,8.09,0,0,1,52.3,4Z"
                  fill="#e64c3c"/>
            <path d="M52.3,4,62.07,21a8.09,8.09,0,0,1,0,8.09L52.3,46a8.09,8.09,0,0,1-7,4H25.77a8.09,8.09,0,0,1-7-4L9,29A8.09,8.09,0,0,1,9,21L18.77,4a8.09,8.09,0,0,1,7-4H45.3A8.09,8.09,0,0,1,52.3,4Z"
                  fill="none"/>
            <path d="M52.3,4,62.07,21a8.09,8.09,0,0,1,0,8.09L52.3,46a8.09,8.09,0,0,1-7,4H25.77a8.09,8.09,0,0,1-7-4L9,29A8.09,8.09,0,0,1,9,21L18.77,4a8.09,8.09,0,0,1,7-4H45.3A8.09,8.09,0,0,1,52.3,4Z"
                  fill="none"/>
            <path d="M54.74,18a5,5,0,0,0-1.68-1,7,7,0,0,0-2.35-.36,5.57,5.57,0,0,0-1.93.33,6.05,6.05,0,0,0-1.68.94,7.09,7.09,0,0,0-.95.93,7.13,7.13,0,0,0-.71.71,7.13,7.13,0,0,0-.71.71A7.13,7.13,0,0,0,44,21a7.13,7.13,0,0,0-.71.71,7.15,7.15,0,0,0-.71.71l-.31.28c0-.09,0-.19,0-.28a11.14,11.14,0,0,0,.09-1.41,6.88,6.88,0,0,0-.14-1.39,4.41,4.41,0,0,0-.39-1.15,2.27,2.27,0,0,0-.63-.78,1.4,1.4,0,0,0-.87-.29,2.84,2.84,0,0,0-1.36.35,4.32,4.32,0,0,0-1.22,1l-.07.09a4.79,4.79,0,0,0-.64.62l-.07.09a4.79,4.79,0,0,0-.64.62l-.07.09-.2.19v-.1c0-.09,0-.16,0-.2A5.22,5.22,0,0,0,36,19a2.66,2.66,0,0,0-.35-.85,1.43,1.43,0,0,0-.54-.5,1.47,1.47,0,0,0-.68-.16,2.09,2.09,0,0,0-1,.27,4.28,4.28,0,0,0-1,.77c-.11.12-.23.25-.34.38a5,5,0,0,0-.38.33c-.11.12-.23.25-.34.38A5,5,0,0,0,31,20c-.11.12-.23.25-.34.38a5,5,0,0,0-.38.33c-.11.12-.23.25-.34.38l0,0c0-.3,0-.58,0-.81a6.87,6.87,0,0,0-.08-1.06,2.44,2.44,0,0,0-.27-.82,1.37,1.37,0,0,0-.52-.53,1.64,1.64,0,0,0-.82-.19,2.23,2.23,0,0,0-.75.14c-.71-.1-1.41-.19-2.08-.24q-1.52-.11-2.91-.11-1,0-2,0a18,18,0,0,0-1.8.18,9.68,9.68,0,0,0-1.54.36,4.48,4.48,0,0,0-1.2.58,2.55,2.55,0,0,0-.65.68l-.06,0a2.55,2.55,0,0,0-.65.68l-.06,0a2.55,2.55,0,0,0-.65.68l-.06,0a2.55,2.55,0,0,0-.65.68l-.06,0a2.55,2.55,0,0,0-.65.68l-.06,0a2.55,2.55,0,0,0-.65.68l-.06,0a2.55,2.55,0,0,0-.65.68l-.06,0a2.55,2.55,0,0,0-.65.68l-.06,0a2.55,2.55,0,0,0-.65.68l-.06,0a2.55,2.55,0,0,0-.65.68l-.06,0a2.55,2.55,0,0,0-.65.68l-.06,0-.1.09A8.05,8.05,0,0,0,9,29L18.77,46a8.09,8.09,0,0,0,7,4h6c.07-.08.14-.15.2-.23s.17-.12.25-.2a4.1,4.1,0,0,0,.46-.52c.08-.06.17-.12.25-.2a4.1,4.1,0,0,0,.46-.52c.08-.06.17-.12.25-.2a4.1,4.1,0,0,0,.46-.52c.08-.06.17-.12.25-.2a4.1,4.1,0,0,0,.46-.52c.08-.06.17-.12.25-.2a4.1,4.1,0,0,0,.46-.52c.08-.06.17-.12.25-.2a4.1,4.1,0,0,0,.46-.52c.08-.06.17-.12.25-.2a4.1,4.1,0,0,0,.46-.52c.08-.06.17-.12.25-.2a4.1,4.1,0,0,0,.46-.52c.08-.06.17-.12.25-.2a4.1,4.1,0,0,0,.46-.52c.08-.06.17-.12.25-.2a4.1,4.1,0,0,0,.46-.52c.08-.06.17-.12.25-.2a4.1,4.1,0,0,0,.46-.52c.08-.06.17-.12.25-.2a4.1,4.1,0,0,0,.46-.52c.08-.06.17-.12.25-.2a4.1,4.1,0,0,0,.46-.52c.08-.06.17-.12.25-.2a4.1,4.1,0,0,0,.46-.52c.08-.06.17-.12.25-.2a4.1,4.1,0,0,0,.46-.52c.08-.06.17-.12.25-.2a4.1,4.1,0,0,0,.46-.52c.08-.06.17-.12.25-.2a4.1,4.1,0,0,0,.46-.52c.08-.06.17-.12.25-.2a4.1,4.1,0,0,0,.46-.52c.08-.06.17-.12.25-.2a4.1,4.1,0,0,0,.46-.52c.08-.06.17-.12.25-.2a4.1,4.1,0,0,0,.46-.52c.08-.06.17-.12.25-.2a4.1,4.1,0,0,0,.46-.52c.08-.06.17-.12.25-.2a4.1,4.1,0,0,0,.46-.52c.08-.06.17-.12.25-.2a4.1,4.1,0,0,0,.46-.52c.08-.06.17-.12.25-.2a4.1,4.1,0,0,0,.46-.52c.08-.06.17-.12.25-.2a4.21,4.21,0,0,0,.74-.9,6.56,6.56,0,0,0,.54-1.09,7,7,0,0,0,.34-1.18,7.28,7.28,0,0,0,.13-1.16s0-.09,0-.18v-.18c.07-.07.16-.13.23-.2s.15-.2.23-.29a4.94,4.94,0,0,0,.48-.42c.09-.09.15-.2.23-.29a4.94,4.94,0,0,0,.48-.42c.09-.09.15-.2.23-.29a4.94,4.94,0,0,0,.48-.42c.09-.09.15-.2.23-.29a4.94,4.94,0,0,0,.48-.42c.09-.09.15-.2.23-.29a4.94,4.94,0,0,0,.48-.42,4.42,4.42,0,0,0,.91-1.41,4.17,4.17,0,0,0,.3-1.55,4,4,0,0,0-.34-1.62A4,4,0,0,0,54.74,18Z"
                  fill="#c03b2b"/>
            <path d="M55.75,19.42a4,4,0,0,0-1-1.39,5,5,0,0,0-1.68-1,7,7,0,0,0-2.35-.36,5.57,5.57,0,0,0-1.93.33,6.05,6.05,0,0,0-1.68.94,7.29,7.29,0,0,0-1.39,1.45,9.32,9.32,0,0,0-1,1.87A11.34,11.34,0,0,0,44,23.5a12.58,12.58,0,0,0-.23,2.44q0,.73.08,1.57c0,.08,0,.15,0,.23-.15.2-.29.4-.44.57s-.25.29-.38.44a4,4,0,0,1-.4.38,2.18,2.18,0,0,1-.41.26.88.88,0,0,1-.39.1.6.6,0,0,1-.5-.21,1.08,1.08,0,0,1-.17-.68,5.15,5.15,0,0,1,.09-.89q.09-.51.23-1.12l.29-1.29q.16-.68.29-1.39t.23-1.43a11.14,11.14,0,0,0,.09-1.41,6.88,6.88,0,0,0-.14-1.39,4.41,4.41,0,0,0-.39-1.15,2.27,2.27,0,0,0-.63-.78,1.4,1.4,0,0,0-.87-.29,2.84,2.84,0,0,0-1.36.35,4.32,4.32,0,0,0-1.22,1,7.33,7.33,0,0,0-1,1.6A11.8,11.8,0,0,0,36,22.53h-.17l.14-1,.05-.4q0-.2,0-.38c0-.12,0-.22,0-.31s0-.16,0-.2A5.22,5.22,0,0,0,36,19a2.66,2.66,0,0,0-.35-.85,1.43,1.43,0,0,0-.54-.5,1.47,1.47,0,0,0-.68-.16,2.09,2.09,0,0,0-1,.27,4.28,4.28,0,0,0-1,.77,8,8,0,0,0-1,1.19,12.64,12.64,0,0,0-.87,1.54,18.22,18.22,0,0,0-.76,1.83,20.3,20.3,0,0,0-.6,2q.12-.58.25-1.24t.24-1.32q.11-.66.18-1.26a8.94,8.94,0,0,0,.07-1,6.87,6.87,0,0,0-.08-1.06,2.44,2.44,0,0,0-.27-.82,1.37,1.37,0,0,0-.52-.53,1.64,1.64,0,0,0-.82-.19,2.23,2.23,0,0,0-.75.14c-.71-.1-1.41-.19-2.08-.24q-1.52-.11-2.91-.11-1,0-2,0a18,18,0,0,0-1.8.18,9.68,9.68,0,0,0-1.54.36,4.48,4.48,0,0,0-1.2.58,2.53,2.53,0,0,0-.77.85A2.39,2.39,0,0,0,15,20.64a1,1,0,0,0,.16.51,1.12,1.12,0,0,0,.38.35,1.82,1.82,0,0,0,1.48,0,1.12,1.12,0,0,0,.38-.34.86.86,0,0,0,.14-.35c0-.11,0-.17,0-.18a.9.9,0,0,1,.16-.53,1.35,1.35,0,0,1,.42-.38,2.69,2.69,0,0,1,.62-.26,6.63,6.63,0,0,1,.77-.17q.41-.07.85-.11l.86-.07q-.49,1.52-.91,2.76t-.78,2.27L18.88,26q-.3.86-.53,1.62T18,29.1q-.17.7-.28,1.43a1.33,1.33,0,0,0,0,.34.8.8,0,0,0,.3.69,1.24,1.24,0,0,0,.75.22.72.72,0,0,0,.33-.09,1.36,1.36,0,0,0,.34-.26,2,2,0,0,0,.3-.4,1.83,1.83,0,0,0,.2-.5q.15-.59.39-1.41l.51-1.79.56-2q.29-1.07.56-2.14T22.34,21q.22-1,.37-1.93.81,0,1.58.12l1.49.16h.11A7.78,7.78,0,0,0,25.25,21a.11.11,0,0,0,0,.08.9.9,0,0,0,0,.2,1.48,1.48,0,0,0,.06.2.87.87,0,0,0,.08.16s.06.07.08.07a.51.51,0,0,0,.23-.05.31.31,0,0,0,.15-.17A5.79,5.79,0,0,1,27,20.28a3.64,3.64,0,0,1,.58-.36,1.13,1.13,0,0,1,.47-.13.22.22,0,0,1,.18.07.42.42,0,0,1,.08.17.9.9,0,0,1,0,.21v.18L28.23,22q-.06.73-.12,1.41T28,24.76q-.09.68-.21,1.39t-.29,1.52q-.17.8-.39,1.74A5.12,5.12,0,0,0,27,30a5.33,5.33,0,0,0,0,.6.53.53,0,0,0,.09.3.74.74,0,0,0,.24.22,1.13,1.13,0,0,0,.35.14,1.84,1.84,0,0,0,.4,0,2,2,0,0,0,.37,0,1.28,1.28,0,0,0,.36-.12.89.89,0,0,0,.29-.24.79.79,0,0,0,.15-.39q.1-.77.31-1.64T30,27q.27-.91.6-1.83t.67-1.75q.35-.84.7-1.56a14.3,14.3,0,0,1,.68-1.26,5.28,5.28,0,0,1,.62-.84.78.78,0,0,1,.51-.3.64.64,0,0,1,.44.14.91.91,0,0,1,.25.42,2.73,2.73,0,0,1,.11.66q0,.39,0,.89a14.19,14.19,0,0,1-.1,1.57q-.1.85-.24,1.73t-.32,1.72l-.32,1.55q-.15.71-.24,1.21a4.51,4.51,0,0,0-.1.72,1.6,1.6,0,0,0,.08.53,1.06,1.06,0,0,0,.2.36.74.74,0,0,0,.29.2.9.9,0,0,0,.33.06,1.71,1.71,0,0,0,.38,0,1.37,1.37,0,0,0,.36-.14,1.1,1.1,0,0,0,.3-.25,1,1,0,0,0,.2-.38q.14-.8.31-1.69t.36-1.81q.19-.92.42-1.83T37,23.38q.26-.83.55-1.54a7.54,7.54,0,0,1,.63-1.23,3.31,3.31,0,0,1,.71-.82,1.27,1.27,0,0,1,.8-.3.55.55,0,0,1,.36.11.7.7,0,0,1,.21.32,2,2,0,0,1,.1.5q0,.29,0,.65a10,10,0,0,1-.08,1.23q-.08.64-.2,1.3t-.26,1.32q-.14.66-.28,1.3t-.24,1.24a10.4,10.4,0,0,0-.14,1.14s0,.1,0,.14,0,.09,0,.14a2.55,2.55,0,0,0,.19,1,2.2,2.2,0,0,0,.51.74,2.14,2.14,0,0,0,.73.45,2.42,2.42,0,0,0,.84.15,3.07,3.07,0,0,0,1.79-.58,4.81,4.81,0,0,0,.86-.8l.16-.21c.09.35.17.71.29,1A5.92,5.92,0,0,0,45.18,32a3.25,3.25,0,0,0,.9.91,2.08,2.08,0,0,0,1.17.34,2.79,2.79,0,0,0,1.13-.23,3.36,3.36,0,0,0,.94-.62,4.21,4.21,0,0,0,.74-.9,6.56,6.56,0,0,0,.54-1.09,7,7,0,0,0,.34-1.18,7.28,7.28,0,0,0,.13-1.16s0-.09,0-.18v-.3c0-.11,0-.24,0-.38l0-.42q0-.49,0-1.07a7.25,7.25,0,0,0,2.19-.66A5.55,5.55,0,0,0,54.87,24a4.42,4.42,0,0,0,.91-1.41,4.17,4.17,0,0,0,.3-1.55A4,4,0,0,0,55.75,19.42ZM54,22.11a2.36,2.36,0,0,1-.55.79,3.39,3.39,0,0,1-.94.62,5,5,0,0,1-1.35.38l.07-.63.49-2.05a.25.25,0,0,1,0-.05.5.5,0,0,0,0-.08.59.59,0,0,0-.08-.33.66.66,0,0,0-.21-.2.82.82,0,0,0-.28-.1l-.3,0a1.29,1.29,0,0,0-.79.24,1.84,1.84,0,0,0-.52.6,3.13,3.13,0,0,0-.3.79,6.78,6.78,0,0,0-.15.83q0,.4,0,.7t0,.41l-.32-.1-.37-.15-.48-.24-.17-.09a.35.35,0,0,0-.15,0,.26.26,0,0,0-.19.07.44.44,0,0,0-.1.18.92.92,0,0,0,0,.25c0,.09,0,.19,0,.28a1.91,1.91,0,0,0,.05.48.82.82,0,0,0,.24.39,2.55,2.55,0,0,0,.57.38,11.21,11.21,0,0,0,1,.46v.38q0,.37,0,.89t-.07,1.1q-.06.57-.17,1.15a5.14,5.14,0,0,1-.3,1,2.25,2.25,0,0,1-.48.74,1,1,0,0,1-.7.28.8.8,0,0,1-.65-.33,2.78,2.78,0,0,1-.43-.85,6.6,6.6,0,0,1-.26-1.17Q46,28.43,46,27.8t0-1.19q0-.56,0-.88A12.08,12.08,0,0,1,46,24.08a10.41,10.41,0,0,1,.36-1.64,8.36,8.36,0,0,1,.62-1.5,5.43,5.43,0,0,1,.89-1.23,4,4,0,0,1,1.17-.83,3.4,3.4,0,0,1,1.46-.31,5.51,5.51,0,0,1,1.79.25,3.28,3.28,0,0,1,1.13.63,2.15,2.15,0,0,1,.6.85,2.65,2.65,0,0,1,.17.91A2.29,2.29,0,0,1,54,22.11Z"
                  fill="#fff"/>
        </g>
    </g>
</svg>