<svg xmlns="http://www.w3.org/2000/svg" viewBox="0 0 120 120"><title>lvl-up</title><g id="Слой_2" data-name="Слой 2"><g id="Слой_1-2" data-name="Слой 1"><circle cx="60" cy="60" r="60" fill="#e64c3c"/><path d="M89.25,101.34V54.84h-11l-8,14H62.5l-4.75,8.25h-11L42,84.59H31L17.53,102.38a60,60,0,0,0,85.93-1H89.25Z" fill="#c03b2b"/><path d="M72.73,27.37,58.5,50.59l-32,5.25L19.25,60,3.08,79a60.1,60.1,0,0,0,20.56,28.74l34.11-20.3L84.11,41.25Z" fill="#c03b2b"/><path d="M77,32.57,57,49,21.86,54.64l-20,20c.42,1.66.91,3.29,1.47,4.9L24,58.85l34.88-5.62,21-17.18,4.26,5.2,6.33-16.8L72.73,27.37Z" fill="#fff"/><path d="M89.25,101.34V54.84h-11v46.5H73.5V68.84h-11v32.5H57.75V77.09h-11v24.25H42V84.59H31v16.75H16.54a60.33,60.33,0,0,0,4.77,4.5H98.69a60.33,60.33,0,0,0,4.77-4.5Z" fill="#fff"/></g></g></svg>