<svg xmlns="http://www.w3.org/2000/svg" viewBox="0 0 610 330.84"><title>mackbook-img</title><g id="Слой_2" data-name="Слой 2"><g id="Слой_1-2" data-name="Слой 1"><path d="M71.62,0H539a10,10,0,0,1,10,10V304.68a0,0,0,0,1,0,0H61.58a0,0,0,0,1,0,0V10a10,10,0,0,1,10-10Z" fill="#262728"/><rect x="76.93" y="14.73" width="456.78" height="273.96" fill="#35495e"/><rect x="0.64" y="304.68" width="609.36" height="9.65" fill="#e2e2e2"/><path d="M581.94,324H27.42C19,324,0,319.66,0,314.33H609.36C609.36,319.66,590.35,324,581.94,324Z" fill="#bfc0c1"/><path d="M27.42,324H581.94c8.41,0,27.42,3.07,27.42,6.86H0C0,327,19,324,27.42,324Z" fill="#2b2b2b"/><path d="M266.6,304.68h76.17a0,0,0,0,1,0,0v2.2a4.21,4.21,0,0,1-4.21,4.21H270.8a4.21,4.21,0,0,1-4.21-4.21v-2.2A0,0,0,0,1,266.6,304.68Z" fill="#bfc0c1"/><path d="M280.18,300.3,278,294.52h0q.06.69.06,1.63v4.15h-.7v-6.53h1.14l2.07,5.38h0l2.08-5.38h1.13v6.53H283v-4.2q0-.72.06-1.57h0l-2.23,5.78Z" fill="#dddbdc"/><path d="M288.44,300.3l-.15-.7h0a2.07,2.07,0,0,1-.73.62,2.23,2.23,0,0,1-.91.16,1.64,1.64,0,0,1-1.14-.37,1.37,1.37,0,0,1-.41-1.07q0-1.48,2.37-1.55l.83,0v-.3a1.24,1.24,0,0,0-.25-.85,1,1,0,0,0-.79-.27,3.23,3.23,0,0,0-1.38.38l-.23-.57a3.48,3.48,0,0,1,.79-.31,3.44,3.44,0,0,1,.86-.11,1.86,1.86,0,0,1,1.3.39A1.62,1.62,0,0,1,289,297v3.34Zm-1.67-.52a1.5,1.5,0,0,0,1.09-.38,1.4,1.4,0,0,0,.4-1.06v-.44l-.74,0a2.69,2.69,0,0,0-1.27.27.83.83,0,0,0-.39.76.76.76,0,0,0,.24.61A1,1,0,0,0,286.76,299.78Z" fill="#dddbdc"/><path d="M292.47,300.39a2.09,2.09,0,0,1-1.64-.65,2.69,2.69,0,0,1-.58-1.85,2.78,2.78,0,0,1,.59-1.9,2.13,2.13,0,0,1,1.69-.67,3.4,3.4,0,0,1,.71.08,2.33,2.33,0,0,1,.55.18l-.23.63A3.47,3.47,0,0,0,293,296a2.41,2.41,0,0,0-.51-.07q-1.49,0-1.49,1.9a2.27,2.27,0,0,0,.36,1.38,1.27,1.27,0,0,0,1.08.48,3.29,3.29,0,0,0,1.25-.26v.66A2.67,2.67,0,0,1,292.47,300.39Z" fill="#dddbdc"/><path d="M295,293.77h1.84a3.48,3.48,0,0,1,1.88.39,1.37,1.37,0,0,1,.58,1.23,1.42,1.42,0,0,1-.32,1,1.56,1.56,0,0,1-.94.49v0q1.49.25,1.49,1.56a1.68,1.68,0,0,1-.59,1.37,2.52,2.52,0,0,1-1.65.49H295Zm.76,2.79H297a2,2,0,0,0,1.16-.25,1,1,0,0,0,.35-.85.86.86,0,0,0-.39-.79,2.46,2.46,0,0,0-1.25-.24h-1.12Zm0,.64v2.44h1.36a1.94,1.94,0,0,0,1.19-.31,1.13,1.13,0,0,0,.4-1,1,1,0,0,0-.41-.89,2.18,2.18,0,0,0-1.24-.29Z" fill="#dddbdc"/><path d="M305,297.85a2.7,2.7,0,0,1-.6,1.87,2.12,2.12,0,0,1-1.67.67,2.2,2.2,0,0,1-1.16-.31,2,2,0,0,1-.79-.88,3.08,3.08,0,0,1-.28-1.35,2.69,2.69,0,0,1,.6-1.86,2.11,2.11,0,0,1,1.66-.67,2.07,2.07,0,0,1,1.63.68A2.69,2.69,0,0,1,305,297.85Zm-3.73,0a2.32,2.32,0,0,0,.38,1.43,1.49,1.49,0,0,0,2.21,0,2.31,2.31,0,0,0,.38-1.43,2.27,2.27,0,0,0-.38-1.42,1.32,1.32,0,0,0-1.11-.48,1.3,1.3,0,0,0-1.1.48A2.3,2.3,0,0,0,301.28,297.85Z" fill="#dddbdc"/><path d="M310.53,297.85a2.7,2.7,0,0,1-.6,1.87,2.12,2.12,0,0,1-1.67.67,2.2,2.2,0,0,1-1.16-.31,2,2,0,0,1-.79-.88,3.08,3.08,0,0,1-.28-1.35,2.69,2.69,0,0,1,.6-1.86,2.11,2.11,0,0,1,1.66-.67,2.07,2.07,0,0,1,1.63.68A2.69,2.69,0,0,1,310.53,297.85Zm-3.73,0a2.32,2.32,0,0,0,.38,1.43,1.49,1.49,0,0,0,2.21,0,2.31,2.31,0,0,0,.38-1.43,2.27,2.27,0,0,0-.38-1.42,1.32,1.32,0,0,0-1.11-.48,1.3,1.3,0,0,0-1.1.48A2.3,2.3,0,0,0,306.8,297.85Z" fill="#dddbdc"/><path d="M312.56,297.8a8.77,8.77,0,0,1,.58-.71l1.58-1.67h.88l-2,2.08,2.12,2.81h-.9L313.12,298l-.56.48v1.83h-.73v-6.94h.73V297q0,.25,0,.76Z" fill="#dddbdc"/><path d="M323.25,295.68a1.83,1.83,0,0,1-.68,1.52,3.06,3.06,0,0,1-1.94.53h-.77v2.57h-.76v-6.53h1.69Q323.25,293.77,323.25,295.68Zm-3.38,1.41h.68a2.53,2.53,0,0,0,1.46-.33,1.2,1.2,0,0,0,.45-1,1.12,1.12,0,0,0-.42-1,2.21,2.21,0,0,0-1.32-.32h-.85Z" fill="#dddbdc"/><path d="M326.74,295.32a2.94,2.94,0,0,1,.58.05l-.1.69a2.56,2.56,0,0,0-.54-.07,1.3,1.3,0,0,0-1,.48,1.76,1.76,0,0,0-.42,1.2v2.62h-.74v-4.89h.61l.08.91h0a2.14,2.14,0,0,1,.66-.74A1.48,1.48,0,0,1,326.74,295.32Z" fill="#dddbdc"/><path d="M332.46,297.85a2.7,2.7,0,0,1-.6,1.87,2.12,2.12,0,0,1-1.67.67,2.2,2.2,0,0,1-1.16-.31,2,2,0,0,1-.79-.88,3.08,3.08,0,0,1-.28-1.35,2.69,2.69,0,0,1,.6-1.86,2.11,2.11,0,0,1,1.66-.67,2.07,2.07,0,0,1,1.63.68A2.69,2.69,0,0,1,332.46,297.85Zm-3.73,0a2.32,2.32,0,0,0,.38,1.43,1.49,1.49,0,0,0,2.21,0,2.31,2.31,0,0,0,.38-1.43,2.27,2.27,0,0,0-.38-1.42,1.32,1.32,0,0,0-1.11-.48,1.3,1.3,0,0,0-1.1.48A2.3,2.3,0,0,0,328.73,297.85Z" fill="#dddbdc"/><circle cx="88.17" cy="25.2" r="3.81" fill="#e64c3c"/><circle cx="100.39" cy="25.2" r="3.81" fill="#f0c419"/><circle cx="112.6" cy="25.2" r="3.81" fill="#4eba6f"/><rect x="100.16" y="50.53" width="8.76" height="7.62" rx="2.5" ry="2.5" fill="#bdc3c7"/><rect x="100.16" y="65.15" width="8.76" height="7.62" rx="2.5" ry="2.5" fill="#bdc3c7"/><rect x="100.16" y="79.78" width="8.76" height="7.62" rx="2.5" ry="2.5" fill="#bdc3c7"/><rect x="100.16" y="94.4" width="8.76" height="7.62" rx="2.5" ry="2.5" fill="#bdc3c7"/><rect x="100.16" y="109.02" width="8.76" height="7.62" rx="2.5" ry="2.5" fill="#bdc3c7"/><rect x="100.16" y="123.65" width="8.76" height="7.62" rx="2.5" ry="2.5" fill="#bdc3c7"/><rect x="100.16" y="138.27" width="8.76" height="7.62" rx="2.5" ry="2.5" fill="#bdc3c7"/><rect x="100.16" y="152.9" width="8.76" height="7.62" rx="2.5" ry="2.5" fill="#bdc3c7"/><rect x="100.16" y="167.52" width="8.76" height="7.62" rx="2.5" ry="2.5" fill="#bdc3c7"/><rect x="94.83" y="182.15" width="14.09" height="7.62" rx="2.5" ry="2.5" fill="#bdc3c7"/><rect x="94.83" y="196.77" width="14.09" height="7.62" rx="2.5" ry="2.5" fill="#bdc3c7"/><rect x="94.83" y="211.4" width="14.09" height="7.62" rx="2.5" ry="2.5" fill="#bdc3c7"/><rect x="94.83" y="226.02" width="14.09" height="7.62" rx="2.5" ry="2.5" fill="#bdc3c7"/><rect x="94.83" y="240.65" width="14.09" height="7.62" rx="2.5" ry="2.5" fill="#bdc3c7"/><rect x="94.83" y="255.27" width="14.09" height="7.62" rx="2.5" ry="2.5" fill="#bdc3c7"/><rect x="94.83" y="269.9" width="14.09" height="7.62" rx="2.5" ry="2.5" fill="#bdc3c7"/><rect x="132.41" y="50.53" width="45.7" height="7.62" rx="2.5" ry="2.5" fill="#3b97d3"/><rect x="155.26" y="65.15" width="73.63" height="7.62" rx="2.5" ry="2.5" fill="#e5635a"/><rect x="231.68" y="65.15" width="40.37" height="7.62" rx="2.5" ry="2.5" fill="#e57e25"/><rect x="275.61" y="65.15" width="98.89" height="7.62" rx="2.5" ry="2.5" fill="#e5635a"/><rect x="218.48" y="79.78" width="53.07" height="7.62" rx="2.5" ry="2.5" fill="#e5635a"/><rect x="274.34" y="79.78" width="126.82" height="7.62" rx="2.5" ry="2.5" fill="#e57e25"/><rect x="155.26" y="79.78" width="60.94" height="7.62" rx="2.5" ry="2.5" fill="#e5635a"/><rect x="155.26" y="94.4" width="97.5" height="7.62" rx="2.5" ry="2.5" fill="#6ab7cc"/><rect x="155.26" y="226.02" width="97.5" height="7.62" rx="2.5" ry="2.5" fill="#6ab7cc"/><rect x="178.11" y="109.02" width="45.7" height="7.62" rx="2.5" ry="2.5" fill="#e57e25"/><rect x="325.31" y="109.02" width="45.7" height="7.62" rx="2.5" ry="2.5" fill="#e57e25"/><rect x="227.49" y="109.02" width="95.21" height="7.62" rx="2.5" ry="2.5" fill="#e5635a"/><rect x="294.97" y="123.65" width="43.23" height="7.62" rx="2.5" ry="2.5" fill="#eddba2"/><rect x="341.31" y="123.65" width="91.34" height="7.62" rx="2.5" ry="2.5" fill="#e5635a"/><rect x="178.11" y="123.65" width="113.51" height="7.62" rx="2.5" ry="2.5" fill="#e5635a"/><rect x="261.45" y="138.27" width="43.23" height="7.62" rx="2.5" ry="2.5" fill="#eddba2"/><rect x="307.6" y="138.27" width="113.51" height="7.62" rx="2.5" ry="2.5" fill="#e5635a"/><rect x="178.11" y="138.27" width="80.61" height="7.62" rx="2.5" ry="2.5" fill="#4eba6f"/><rect x="330.2" y="152.9" width="45.7" height="7.62" rx="2.5" ry="2.5" fill="#e57e25"/><rect x="236.14" y="152.9" width="91.34" height="7.62" rx="2.5" ry="2.5" fill="#4eba6f"/><rect x="178.11" y="152.9" width="55.22" height="7.62" rx="2.5" ry="2.5" fill="#eddba2"/><rect x="344.53" y="167.52" width="29.52" height="7.62" rx="2.5" ry="2.5" fill="#eddba2"/><rect x="378.07" y="167.52" width="91.34" height="7.62" rx="2.5" ry="2.5" fill="#e5635a"/><rect x="227.49" y="167.52" width="113.51" height="7.62" rx="2.5" ry="2.5" fill="#e5635a"/><rect x="178.11" y="167.52" width="45.7" height="7.62" rx="2.5" ry="2.5" fill="#e57e25"/><rect x="343.75" y="182.15" width="43.23" height="7.62" rx="2.5" ry="2.5" fill="#e57e25"/><rect x="249.3" y="182.15" width="91.34" height="7.62" rx="2.5" ry="2.5" fill="#e5635a"/><rect x="178.11" y="182.15" width="66.97" height="7.62" rx="2.5" ry="2.5" fill="#eddba2"/><rect x="210.23" y="196.77" width="113.51" height="7.62" rx="2.5" ry="2.5" fill="#e5635a"/><rect x="327.72" y="196.77" width="55.22" height="7.62" rx="2.5" ry="2.5" fill="#4eba6f"/><rect x="178.11" y="196.77" width="28.82" height="7.62" rx="2.5" ry="2.5" fill="#eddba2"/><rect x="355.22" y="211.4" width="45.7" height="7.62" rx="2.5" ry="2.5" fill="#eddba2"/><rect x="322.99" y="211.4" width="29.52" height="7.62" rx="2.5" ry="2.5" fill="#4eba6f"/><rect x="227.5" y="211.4" width="91.34" height="7.62" rx="2.5" ry="2.5" fill="#e5635a"/><rect x="178.11" y="211.4" width="45.7" height="7.62" rx="2.5" ry="2.5" fill="#e57e25"/><rect x="155.26" y="255.27" width="66.59" height="7.62" rx="2.5" ry="2.5" fill="#eddba2"/><rect x="225.04" y="255.27" width="130.29" height="7.62" rx="2.5" ry="2.5" fill="#e5635a"/><rect x="359.29" y="255.27" width="37.56" height="7.62" rx="2.5" ry="2.5" fill="#4eba6f"/><rect x="155.26" y="240.65" width="144.47" height="7.62" rx="2.5" ry="2.5" fill="#e5635a"/><rect x="302.46" y="240.65" width="45.7" height="7.62" rx="2.5" ry="2.5" fill="#eddba2"/><rect x="350.89" y="240.65" width="77.57" height="7.62" rx="2.5" ry="2.5" fill="#4eba6f"/><rect x="132.41" y="269.9" width="45.7" height="7.62" rx="2.5" ry="2.5" fill="#3b97d3"/></g></g></svg>