<svg xmlns="http://www.w3.org/2000/svg" viewBox="0 0 120 120">
    <title>on-line-learning</title>
    <g id="Слой_2" data-name="Слой 2">
        <g id="Слой_1-2" data-name="Слой 1">
            <circle cx="60" cy="60" r="60" fill="#e64c3c"/>
            <path d="M84.76,32.14l-5.6,1.55L66.62,46.24l-7.85,2.61-1.35,1.35L31.79,45.62l-2.9,2.9H26.31L1.52,73.31v0A60,60,0,0,0,58.44,120l.14,0L89.85,88.66,87.21,64.4l3.59-3.59,2.29-18.69.68-.68L85.62,31.28Z"
                  fill="#c03b2b"/>
            <path d="M83.31,40.08a1.9,1.9,0,0,1,1.46-1.51V31.25a8.59,8.59,0,0,0-8.19,8.58v1.43A28,28,0,0,1,83.31,40.08Z"
                  fill="#fff"/>
            <path d="M85.58,38.57A1.9,1.9,0,0,1,87,40.13a30.6,30.6,0,0,1,6.73,1.3v-1.6a8.59,8.59,0,0,0-8.19-8.58Z"
                  fill="#fff"/>
            <path d="M87,40.95a1.89,1.89,0,0,1-3.66,0,27.11,27.11,0,0,0-6.76,1.22V54.3a8.6,8.6,0,0,0,17.2,0v-12A29.9,29.9,0,0,0,87,40.95Z"
                  fill="#fff"/>
            <path d="M34.64,85.57a5.49,5.49,0,0,1-5.38-5.48V48.43h-3V88.66H51.39A135.68,135.68,0,0,0,34.64,85.57Z"
                  fill="#fff"/>
            <path d="M74.93,54.3V44.68a63.26,63.26,0,0,0-16,4.07l-.16,0L58,62.64l-.69-13.85-.15,0C46.73,44.2,34.74,44.2,34.74,44.2A3.84,3.84,0,0,0,30.9,48V80.1a3.84,3.84,0,0,0,3.84,3.84,131.75,131.75,0,0,1,22.67,4.72,2.14,2.14,0,0,0,1.25,0,147.88,147.88,0,0,1,22.67-4.72,3.84,3.84,0,0,0,3.84-3.84V64.54A10.25,10.25,0,0,1,74.93,54.3Z"
                  fill="#fff"/>
            <path d="M86.81,64.4V80.1a5.49,5.49,0,0,1-5.37,5.48,150.89,150.89,0,0,0-16.53,3.09H89.85V63.4A10.15,10.15,0,0,1,86.81,64.4Z"
                  fill="#fff"/>
        </g>
    </g>
</svg>