<svg xmlns="http://www.w3.org/2000/svg" viewBox="0 0 120 120"><title>on-line-learning</title><g id="Слой_2" data-name="Слой 2"><g id="Слой_1-2" data-name="Слой 1"><circle cx="60" cy="60" r="60" fill="#e64c3c"/><path d="M85.58,31.25v.39l-.18,0-.18,0V32l-.18,0-.18,0v.39h-.11V31.25a8.55,8.55,0,0,0-3.26.81A8.65,8.65,0,0,0,78.87,34l-.18.17-.17.18-.18.18-.18.18-.18.18-.18.18-.18.17-.17.18-.18.17-.17.18-.18.18-.18.18-.18.18-.18.18-.18.17-.17.18-.18.17-.17.18-.18.18-.18.18-.18.18L75,37.9l-.18.18-.18.18-.18.17-.17.18-.18.17-.17.18-.18.18-.18.18-.18.18-.18.18-.18.17-.17.18-.18.17-.17.18-.18.18-.18.18-.18.18-.18.18-.18.17-.17.18-.18.17-.17.18-.18.18-.18.18-.18.18-.18.18-.18.17-.17.18-.18.17-.17.18-.18.18-.18.18-.18.18-.18.18-.18.18-.18.18-.18.17-.17.18-.18.17-.17.18-.18.18-.18.18-.18.18-.18.18L67,45.9l-.17.18-.08.08-.08.08c-1.25.31-2.53.67-3.82,1.09s-2.6.89-3.91,1.43l-.08,0-.08,0V49l-.09,0-.09,0-.08,0-.08,0v.24l-.09,0-.09,0-.08,0-.08,0v.24l-.09,0-.09,0-.08,0-.08,0v.24l-.09,0-.09,0h0l0-.7,0-.7-.08,0-.08,0a58,58,0,0,0-15.15-4,61.93,61.93,0,0,0-7.3-.57,3.75,3.75,0,0,0-1.61.36,3.91,3.91,0,0,0-1.27,1l-.18.17-.17.18-.18.17-.17.18L31,46.4l-.17.18-.18.17-.17.18-.18.17-.17.18-.18.17-.17.18-.18.17-.17.18-.18.17-.17.18,0,0,0,0H26.22v.36h-.36v.36h-.36v.36h-.36v.36H24.8v.36h-.36v.36h-.36v.36h-.36v.36h-.36v.36H23V52h-.36v.36h-.36v.36H22v.36H21.6v.36h-.36v.36h-.36v.36h-.36v.36h-.36v.36h-.36v.36h-.36v.36h-.36v.36h-.36v.36H18.4v.36H18V57h-.36v.36h-.36v.36H17V58h-.36v.36h-.36v.36h-.36v.36h-.36v.36h-.36v.36h-.36v.36H14.5v.36h-.36v.36h-.36v.36h-.36v.36h-.36v.36h-.36v.36h-.36v.36H12V63h-.36v.36H11.3v.36h-.36v.36h-.36v.36h-.36v.36H9.88v.36H9.52v.36H9.16v.36H8.81v.36H8.45v.36H8.1v.36H7.74v.36H7.39v.36H7V68H6.68v.36H6.32v.36H6V69H5.61v.36H5.26v.36H4.9v.36H4.54v.36H4.19v.36H3.83v.36H3.48v.36H3.12v.36H2.77v.36H2.41v.36H2.06V73H1.7v.36H1.5a60,60,0,0,0,55.9,46.62h1.17v-.36h.36v-.36h.36v-.36h.36v-.36H60v-.36h.36v-.36h.36v-.36h.36v-.36h.36v-.36h.36v-.36h.36V116h.36v-.36h.36v-.36h.36V115h.36v-.36h.36v-.36h.36v-.36h.36v-.36H65v-.36h.36v-.36h.36v-.36H66v-.36h.36v-.36h.36v-.36h.36V111h.36v-.36h.36v-.36h.36V110h.36v-.36h.36v-.36h.36v-.36h.36v-.36h.36v-.36h.36v-.36h.36v-.36H71v-.36h.36v-.36h.36v-.36h.36v-.36h.36v-.36h.36v-.36h.36V105h.36v-.36h.36v-.36h.36v-.36h.36v-.36h.36v-.36h.36v-.36h.36v-.36H76v-.36h.36v-.36h.36v-.36h.36v-.36h.36v-.36h.36v-.36h.36V100h.36v-.36h.36v-.36h.36V99h.36v-.36h.36v-.36h.36V97.9h.36v-.36H81v-.36h.36v-.36h.36v-.36H82v-.36h.36v-.36h.36v-.36h.36v-.36h.36V94.7h.36v-.36h.36V94h.36v-.36h.36v-.36h.36v-.36h.36v-.36h.36v-.36h.36v-.36h.36V91.5H87v-.36h.36v-.36h.36v-.36h.36v-.36h.36v-.36h.36v-.36h.36V89h.36v-.36h.36V63.4a9.72,9.72,0,0,1-1.21.52,10.53,10.53,0,0,1-1.29.36l.08-.09.08-.09.18-.17.17-.18.18-.18.18-.18.18-.18.18-.18.18-.17.17-.18.18-.17.17-.18.18-.18.18-.18.18-.18.18-.18.18-.17.17-.18.18-.17.17-.18.18-.18.18-.18a8.66,8.66,0,0,0,2-2.79,8.53,8.53,0,0,0,.73-3.46v-12l-.36-.1-.35-.1v-.4l.18,0,.18.05v-.45l.18,0,.18.05v-1.6a8.59,8.59,0,0,0-8.19-8.58Z" fill="#c03b2b"/><path d="M83.31,40.08a1.9,1.9,0,0,1,1.46-1.51V31.25a8.59,8.59,0,0,0-8.19,8.58v1.43A28,28,0,0,1,83.31,40.08Z" fill="#fff"/><path d="M85.58,38.57A1.9,1.9,0,0,1,87,40.13a30.6,30.6,0,0,1,6.73,1.3v-1.6a8.59,8.59,0,0,0-8.19-8.58Z" fill="#fff"/><path d="M87,40.95a1.89,1.89,0,0,1-3.66,0,27.11,27.11,0,0,0-6.76,1.22V54.3a8.6,8.6,0,0,0,17.2,0v-12A29.9,29.9,0,0,0,87,40.95Z" fill="#fff"/><path d="M34.64,85.57a5.49,5.49,0,0,1-5.38-5.48V48.43h-3V88.66H51.39A135.68,135.68,0,0,0,34.64,85.57Z" fill="#fff"/><path d="M74.93,54.3V44.68a63.26,63.26,0,0,0-16,4.07l-.16,0L58,62.64l-.69-13.85-.15,0C46.73,44.2,34.74,44.2,34.74,44.2A3.84,3.84,0,0,0,30.9,48V80.1a3.84,3.84,0,0,0,3.84,3.84,131.75,131.75,0,0,1,22.67,4.72,2.14,2.14,0,0,0,1.25,0,147.88,147.88,0,0,1,22.67-4.72,3.84,3.84,0,0,0,3.84-3.84V64.54A10.25,10.25,0,0,1,74.93,54.3Z" fill="#fff"/><path d="M86.81,64.4V80.1a5.49,5.49,0,0,1-5.37,5.48,150.89,150.89,0,0,0-16.53,3.09H89.85V63.4A10.15,10.15,0,0,1,86.81,64.4Z" fill="#fff"/></g></g></svg>