<svg xmlns="http://www.w3.org/2000/svg" viewBox="0 0 245 245">
    <title>php-course-bg</title>
    <g id="Слой_2" data-name="Слой 2">
        <g id="Слой_1-2" data-name="Слой 1">
            <circle cx="122.5" cy="122.5" r="76.56" fill="#fff" opacity="0.2"/>
            <circle cx="122.5" cy="122.5" r="91.88" fill="#fff" opacity="0.2"/>
            <circle cx="122.5" cy="122.5" r="107.19" fill="#fff" opacity="0.2"/>
            <circle cx="122.5" cy="122.5" r="122.5" fill="#fff" opacity="0.2"/>
            <circle cx="122.5" cy="122.5" r="61.25" fill="#fff"/>
            <path d="M107.23,116.62a9.8,9.8,0,0,1-3.44,7.94q-3.45,2.88-9.43,2.88H92.63l-2,9.74H82.77L89,107.82h7.49q5.2,0,8,2.28A8,8,0,0,1,107.23,116.62ZM94,121H95.3a3.9,3.9,0,0,0,3-1.18,4.14,4.14,0,0,0,1.12-3,2.58,2.58,0,0,0-.72-1.91,2.69,2.69,0,0,0-2-.72H95.48Z"
                  fill="#2880ba"/>
            <path d="M131.1,137.18h-7.85l2.51-12h-7l-2.55,12H108.4l6.21-29.37h7.85l-2.25,10.89h7l2.25-10.89h7.87Z"
                  fill="#2880ba"/>
            <path d="M162.23,116.62a9.8,9.8,0,0,1-3.44,7.94q-3.45,2.88-9.43,2.88h-1.73l-2,9.74h-7.85L144,107.82h7.49q5.2,0,8,2.28A8,8,0,0,1,162.23,116.62ZM149,121h1.27a3.9,3.9,0,0,0,3-1.18,4.14,4.14,0,0,0,1.12-3,2.58,2.58,0,0,0-.72-1.91,2.69,2.69,0,0,0-2-.72h-1.19Z"
                  fill="#2880ba"/>
        </g>
    </g>
</svg>