<svg xmlns="http://www.w3.org/2000/svg" viewBox="0 0 40 40"><title>twitter-footer-ico</title><g id="Слой_2" data-name="Слой 2"><g id="Слой_1-2" data-name="Слой 1"><g id="twitter-ico"><circle cx="20" cy="20" r="20" fill="#fff"/><path d="M27.94,15.93c0,.18,0,.36,0,.53a11.67,11.67,0,0,1-18,9.82,8.47,8.47,0,0,0,6.08-1.7,4.11,4.11,0,0,1-3.83-2.84,5.06,5.06,0,0,0,.77.06,4.33,4.33,0,0,0,1.08-.14,4.1,4.1,0,0,1-3.29-4v-.05a4.12,4.12,0,0,0,1.85.52,4.1,4.1,0,0,1-1.27-5.48,11.65,11.65,0,0,0,8.45,4.29,4.66,4.66,0,0,1-.1-.94,4.1,4.1,0,0,1,7.1-2.8,8.06,8.06,0,0,0,2.6-1,4.1,4.1,0,0,1-1.8,2.26A8.22,8.22,0,0,0,30,13.81,8.79,8.79,0,0,1,27.94,15.93Z" fill="#e64c3c"/></g></g></g></svg>