<svg xmlns="http://www.w3.org/2000/svg" viewBox="0 0 40 40"><defs><style>.cls-1{fill:#fff;}.cls-2{fill:#e64c3c;}</style></defs><title>vimeo-social-footer-ico</title><g id="Слой_2" data-name="Слой 2"><g id="Слой_1-2" data-name="Слой 1"><g id="vimeo-ico"><circle class="cls-1" cx="20" cy="20" r="20"/><path class="cls-2" d="M25.91,23.36c-2.73,3.52-5,5.29-6.9,5.29-1.17,0-2.15-1.08-2.95-3.23L14.44,19.5c-.59-2.15-1.24-3.22-1.93-3.22a6,6,0,0,0-1.56.93L10,16c1-.87,2-1.76,2.92-2.6a6.35,6.35,0,0,1,3-1.79c1.56-.15,2.51.91,2.87,3.18.38,2.46.66,4,.81,4.58.45,2,.93,3.06,1.47,3.06s1-.65,1.89-2a7.84,7.84,0,0,0,1.34-3c.11-1.14-.33-1.71-1.34-1.71a4,4,0,0,0-1.49.32q1.47-4.83,5.64-4.69c2.05.06,3,1.4,2.9,4Q29.86,18.27,25.91,23.36Z"/></g></g></g></svg>