<svg xmlns="http://www.w3.org/2000/svg" viewBox="0 0 40 40"><defs><style>.cls-1{fill:#fff;}.cls-2{fill:#e64c3c;}</style></defs><title>vk-social-footer-ico</title><g id="Слой_2" data-name="Слой 2"><g id="Слой_1-2" data-name="Слой 1"><g id="vk-ico"><circle class="cls-1" cx="20" cy="20" r="20"/><path class="cls-2" d="M28.41,18.18c-2,2.69-2.24,2.44-.57,4a8.75,8.75,0,0,1,2,2.3s.67,1.17-.74,1.18l-2.67,0a2.22,2.22,0,0,1-1.33-.41c-1-.69-1.94-2.47-2.67-2.24,0,0-.75.24-.73,1.84a.8.8,0,0,1-.16.53.9.9,0,0,1-.55.23h-1.2c-2.63.17-5-2.26-5-2.26a27.61,27.61,0,0,1-4.77-7.86c-.15-.34,0-.51,0-.51a.75.75,0,0,1,.59-.2l2.85,0A1.09,1.09,0,0,1,14,15a.76.76,0,0,1,.25.33,21,21,0,0,0,1.07,2.23c1,2.15,1.75,2.51,2.15,2.29,0,0,.53-.32.42-2.91a3.09,3.09,0,0,0-.3-1.36,1.39,1.39,0,0,0-.89-.45c-.16,0,.1-.4.45-.56a6.49,6.49,0,0,1,2.49-.25,5.52,5.52,0,0,1,1.41.14c1,.24.66,1.16.66,3.36,0,.71-.14,1.7.37,2,.22.15.76,0,2.09-2.25a19.17,19.17,0,0,0,1.11-2.34.62.62,0,0,1,.26-.32.68.68,0,0,1,.4-.06l3,0c.9-.11,1.05.3,1.05.3C30.13,15.55,29.64,16.55,28.41,18.18Z"/></g></g></g></svg>