<svg xmlns="http://www.w3.org/2000/svg" viewBox="0 0 245 245">
    <title>web-course-bg_1</title>
    <g id="Слой_2" data-name="Слой 2">
        <g id="Слой_1-2" data-name="Слой 1">
            <circle cx="122.5" cy="122.5" r="76.56" fill="#fff" opacity="0.2"/>
            <circle cx="122.5" cy="122.5" r="91.88" fill="#fff" opacity="0.2"/>
            <circle cx="122.5" cy="122.5" r="107.19" fill="#fff" opacity="0.2"/>
            <circle cx="122.5" cy="122.5" r="122.5" fill="#fff" opacity="0.2"/>
            <circle cx="122.5" cy="122.5" r="61.25" fill="#fff"/>
            <path d="M109.15,123.82l4.47-19.18,1.82-.23v-2.67h-8.11v2.67l2,.35-2.52,12.1-.09,0-4.17-15.13H99.32l-4.14,15.13-.09,0-2.53-12.1,2-.35v-2.67H86.45v2.67l1.8.23,3.88,16.53H90.24v2.67l2.35.45v15.84l-2.35.45v2.65h9.93a9.14,9.14,0,0,0,6.67-2.57,8.88,8.88,0,0,0,2.62-6.63v-3.65a8.92,8.92,0,0,0-2.56-6.57Zm-8.25-14.57H101l3.58,12.88a9.78,9.78,0,0,0-4.41-1H97.6ZM105,134a6.31,6.31,0,0,1-1.35,4.2,4.61,4.61,0,0,1-3.73,1.61H97V124.59h2.93a4.61,4.61,0,0,1,3.73,1.61,6.26,6.26,0,0,1,1.35,4.17Z"
                  fill="#35495e"/>
            <path d="M157.56,114.17a4.69,4.69,0,0,0-3-1.82,4.9,4.9,0,0,0,2.36-1.81,4.79,4.79,0,0,0,.81-2.74,5.15,5.15,0,0,0-2.18-4.53,10.54,10.54,0,0,0-6.08-1.52h-9.81v2.67l2.35.45v15.84l-2.35.45h-3.92v-3.38H132.4l-.2,2.64h-7.12v-6.31h7.47v-3.41h-7.47v-5.55h7.06l.2,2.64h3.4v-6H118.3v2.67l2.35.45v15.84l-2.35.45h-5.12v2.67l2.35.45v15.84l-2.35.45v2.65h17.46v-6h-3.37l-.2,2.64H120v-6.31h7.47v-3.41H120v-5.55H127l.2,2.64h3.4v-3.4h3.61v0l1.82.24,6.52,19.16h4.55l6.5-19.16,1.85-.24v-1a6.41,6.41,0,0,0,1-.61,5.71,5.71,0,0,0,2.09-4.8A5.42,5.42,0,0,0,157.56,114.17Zm-11.1-9h3a4.73,4.73,0,0,1,2.87.73,2.65,2.65,0,0,1,1,2.26,2.5,2.5,0,0,1-1,2.12,4.43,4.43,0,0,1-2.73.73h-3.18Zm0,8.9h4.41a3.23,3.23,0,0,1,2.49.86,3.54,3.54,0,0,1,.79,2.48,2.77,2.77,0,0,1-.92,2.27,4.11,4.11,0,0,1-2.68.77h-4.08Zm-1.31,23.35-.26,1.18h-.09l-.27-1.21-3.91-13.23,1.68-.3v0h5.11v0l1.67.3Z"
                  fill="#35495e"/>
        </g>
    </g>
</svg>