<svg xmlns="http://www.w3.org/2000/svg" viewBox="0 0 245 245"><title>web-course-bg</title><g id="Слой_2" data-name="Слой 2"><g id="Слой_1-2" data-name="Слой 1"><circle cx="122.5" cy="122.5" r="76.56" fill="#fff" opacity="0.2"/><circle cx="122.5" cy="122.5" r="91.88" fill="#fff" opacity="0.2"/><circle cx="122.5" cy="122.5" r="107.19" fill="#fff" opacity="0.2"/><circle cx="122.5" cy="122.5" r="122.5" fill="#fff" opacity="0.2"/><circle cx="122.5" cy="122.5" r="61.25" fill="#fff"/><path d="M151.51,80.45c.52.28,1.61.9,3.88,2.23-.32,1.07-1.38,3.68-1.85,4.73l-.24.54.36.47a9.55,9.55,0,0,1,1.08,1.86l.24.53.58.06a36.06,36.06,0,0,1,5,.79V96.1a36.06,36.06,0,0,1-5,.79l-.59.06-.23.55a8.51,8.51,0,0,1-1.07,1.84l-.36.47.24.54c.47,1.06,1.55,3.69,1.85,4.72l-.13.08c-1.87,1.11-3.13,1.84-3.76,2.19a44.54,44.54,0,0,1-3.15-4l-.34-.5-.6.06c-.38,0-.74.07-1.08.07s-.7,0-1.09-.08l-.6-.06-.33.5a44.51,44.51,0,0,1-3.15,4c-.63-.35-1.89-1.08-3.76-2.19l-.12-.07c.33-1.08,1.4-3.75,1.84-4.73l.24-.54-.36-.47a8.51,8.51,0,0,1-1.07-1.84l-.23-.55-.59-.06a36.06,36.06,0,0,1-5-.79V91.65a36.06,36.06,0,0,1,5-.79l.58-.06.24-.53A9.55,9.55,0,0,1,139,88.42l.36-.47-.24-.54c-.44-1-1.53-3.66-1.85-4.71l1.27-.73c.79-.46,2-1.15,2.62-1.51a43.69,43.69,0,0,1,3.15,3.91l.34.5.6-.06c.38,0,.74-.07,1.08-.07s.7,0,1.09.08l.58.06.34-.47a37.28,37.28,0,0,1,3.17-3.94M146.33,100a6.07,6.07,0,1,0-6.07-6.07,6.08,6.08,0,0,0,6.07,6.07M114.5,89.81a.26.26,0,0,1,.2.14l.91,6.07.09.62.6.19A18.12,18.12,0,0,1,119.12,98l.56.28.5-.38,4.71-3.56a.22.22,0,0,1,.15,0,.27.27,0,0,1,.18.07l.1.09c4.25,3.92,5.09,5.17,5.25,5.53l-.08.14c-.48.64-1,1.27-1.45,1.89-.66.84-1.34,1.72-2,2.62l-.35.48.26.53a25.09,25.09,0,0,1,1.3,3.12l.19.59.61.09,6,.91a.23.23,0,0,1,.15.21v7.33a.37.37,0,0,1-.1.21l-6.1.94-.62.1-.18.6a16.74,16.74,0,0,1-1.2,2.84l-.28.54.35.5c1.19,1.71,2.48,3.27,3.59,4.59.08.13.08.17.08.2s0,.06,0,.06h0l0,0,0,.06c-1,1.32-4.65,5.11-5.64,5.5a.63.63,0,0,1-.2-.09l-4.52-3.54-.51-.4-.57.3a16.18,16.18,0,0,1-2.88,1.15l-.64.19-.07.67,0,.31a36.46,36.46,0,0,1-.85,5.66c0,.13-.13.22-.22.22h-7.37a.26.26,0,0,1-.2-.14l-.91-6.07-.09-.62-.6-.19a18.12,18.12,0,0,1-2.82-1.17l-.56-.28-.5.38L96.77,134l-.06,0,0,0-.12,0a.27.27,0,0,1-.18-.07l-.18-.16c-4.22-3.88-5-5.11-5.18-5.46l.08-.14,1.34-1.73c.7-.9,1.43-1.82,2.13-2.77l.37-.5-.29-.55a20.23,20.23,0,0,1-1.33-3.09l-.19-.58-.61-.1-6-1a.17.17,0,0,1-.1-.16v-7.33a.37.37,0,0,1,.1-.21l6.1-.94.62-.1.18-.6a16.74,16.74,0,0,1,1.2-2.84l.28-.54-.35-.5c-1.19-1.71-2.48-3.27-3.58-4.58a.49.49,0,0,1-.08-.2.22.22,0,0,1,0-.15l0,0,0,0c1-1.31,4.64-5.07,5.64-5.46a.63.63,0,0,1,.2.09l4.52,3.54.51.4.57-.3a20,20,0,0,1,2.91-1.21l.61-.21L106,96l0-.37A36.13,36.13,0,0,1,106.9,90c0-.13.13-.22.23-.22h7.37m-3.69,35.52a11.15,11.15,0,1,0-11.15-11.15,11.16,11.16,0,0,0,11.15,11.15m40.7-4.28c.52.28,1.61.9,3.88,2.23-.32,1.07-1.38,3.68-1.85,4.73l-.24.54.36.47a9.55,9.55,0,0,1,1.08,1.86l.24.53.58.06a36.06,36.06,0,0,1,5,.79v4.45a36.06,36.06,0,0,1-5,.79l-.59.06-.23.55a8.51,8.51,0,0,1-1.07,1.84l-.36.47.24.54c.47,1.06,1.55,3.69,1.85,4.72l-.13.08c-1.87,1.11-3.13,1.84-3.76,2.19a44.54,44.54,0,0,1-3.15-4l-.34-.5-.6.06c-.38,0-.74.07-1.08.07s-.7,0-1.09-.08l-.6-.06-.33.5a44.51,44.51,0,0,1-3.15,4c-.63-.35-1.89-1.08-3.76-2.19l-.12-.07c.33-1.08,1.4-3.75,1.84-4.73l.24-.54-.36-.47a8.51,8.51,0,0,1-1.07-1.84l-.23-.55-.59-.06a36.06,36.06,0,0,1-5-.79v-4.45a36.06,36.06,0,0,1,5-.79l.58-.06.24-.53A9.55,9.55,0,0,1,139,129l.36-.47-.24-.54c-.44-1-1.53-3.66-1.85-4.71l1.27-.73c.79-.46,2-1.15,2.62-1.51a43.7,43.7,0,0,1,3.15,3.91l.34.5.6-.06c.38,0,.74-.07,1.08-.07s.7,0,1.09.08l.58.06.34-.47a37.27,37.27,0,0,1,3.17-3.94m-5.18,19.5a6.07,6.07,0,1,0-6.07-6.07,6.08,6.08,0,0,0,6.07,6.07m5.07-61.26-.24.08a35.59,35.59,0,0,0-3.65,4.44,8.8,8.8,0,0,0-2.38,0c-.4-.6-3.37-4.52-3.88-4.52-.2,0-4.44,2.54-4.92,2.77a.35.35,0,0,0-.16.28,38.62,38.62,0,0,0,2,5.47A10.61,10.61,0,0,0,137,89.87c-.79.08-5.91.64-5.91,1.23v5.55c0,.6,5.11,1.15,5.91,1.23a9.53,9.53,0,0,0,1.19,2.06,38.62,38.62,0,0,0-2,5.47.35.35,0,0,0,.16.28c.48.28,4.72,2.81,4.92,2.81.51,0,3.49-4,3.88-4.56a8.8,8.8,0,0,0,2.38,0c.4.6,3.37,4.56,3.88,4.56.2,0,4.44-2.54,4.92-2.81a.3.3,0,0,0,.16-.28,37.11,37.11,0,0,0-2-5.47,9.53,9.53,0,0,0,1.19-2.06c.79-.08,5.91-.64,5.91-1.23V91.11c0-.6-5.11-1.15-5.91-1.23a10.61,10.61,0,0,0-1.19-2.06,37.11,37.11,0,0,0,2-5.47.35.35,0,0,0-.16-.28c-.48-.28-4.72-2.77-4.92-2.77ZM146.33,99a5.07,5.07,0,1,1,5.07-5.07A5.08,5.08,0,0,1,146.33,99ZM114.5,88.81h-7.37a1.26,1.26,0,0,0-1.19,1,39.68,39.68,0,0,0-.91,6.1A20.94,20.94,0,0,0,102,97.13l-4.56-3.57a1.51,1.51,0,0,0-.83-.28c-1.15,0-5.59,4.8-6.38,5.87a1.22,1.22,0,0,0-.28.79,1.47,1.47,0,0,0,.28.8c1.27,1.5,2.46,3,3.57,4.56a17.92,17.92,0,0,0-1.27,3l-6.14.95a1.24,1.24,0,0,0-.91,1.19v7.33a1.15,1.15,0,0,0,1,1.15l6,1a21.2,21.2,0,0,0,1.39,3.25c-1.15,1.55-2.34,3-3.49,4.52a1.36,1.36,0,0,0-.28.76c0,1.14,4.68,5.39,5.71,6.34a1.29,1.29,0,0,0,.83.32,1.15,1.15,0,0,0,.79-.28l4.68-3.53a19.16,19.16,0,0,0,3,1.23l.91,6.07a1.23,1.23,0,0,0,1.19,1h7.37a1.26,1.26,0,0,0,1.19-1,39.47,39.47,0,0,0,.91-6.14,17.09,17.09,0,0,0,3.05-1.23l4.56,3.57a1.51,1.51,0,0,0,.83.28c1.15,0,5.59-4.84,6.38-5.91a1,1,0,0,0,.28-.75,1.38,1.38,0,0,0-.28-.8c-1.27-1.5-2.46-3-3.57-4.56a17.91,17.91,0,0,0,1.27-3l6.14-.95a1.24,1.24,0,0,0,.91-1.19v-7.33a1.23,1.23,0,0,0-1-1.19l-6-.91a25.86,25.86,0,0,0-1.35-3.25c1.11-1.55,2.3-3,3.45-4.52a1.36,1.36,0,0,0,.28-.76c0-1.11-4.68-5.39-5.71-6.34a1.29,1.29,0,0,0-.83-.32,1.22,1.22,0,0,0-.79.28l-4.68,3.53a19.16,19.16,0,0,0-3-1.23l-.91-6.07a1.22,1.22,0,0,0-1.19-1Zm-3.69,35.52A10.15,10.15,0,1,1,121,114.18a10.17,10.17,0,0,1-10.15,10.15Zm40.59-4.44-.24.08a35.59,35.59,0,0,0-3.65,4.44,8.8,8.8,0,0,0-2.38,0c-.4-.6-3.37-4.52-3.88-4.52-.2,0-4.44,2.54-4.92,2.77a.35.35,0,0,0-.16.28,38.62,38.62,0,0,0,2,5.47,10.61,10.61,0,0,0-1.19,2.06c-.79.08-5.91.64-5.91,1.23v5.55c0,.6,5.11,1.15,5.91,1.23a9.53,9.53,0,0,0,1.19,2.06,38.62,38.62,0,0,0-2,5.47.35.35,0,0,0,.16.28c.48.28,4.72,2.81,4.92,2.81.51,0,3.49-4,3.88-4.56a8.8,8.8,0,0,0,2.38,0c.4.6,3.37,4.56,3.88,4.56.2,0,4.44-2.54,4.92-2.81a.3.3,0,0,0,.16-.28,37.11,37.11,0,0,0-2-5.47,9.53,9.53,0,0,0,1.19-2.06c.79-.08,5.91-.64,5.91-1.23V131.7c0-.6-5.11-1.15-5.91-1.23a10.61,10.61,0,0,0-1.19-2.06,37.11,37.11,0,0,0,2-5.47.35.35,0,0,0-.16-.28c-.48-.28-4.72-2.77-4.92-2.77Zm-5.07,19.66a5.07,5.07,0,1,1,5.07-5.07,5.08,5.08,0,0,1-5.07,5.07Z" fill="#2c3e50"/><path d="M130.62,128.57l0-.06,0,0h0s0,0,0-.06,0-.07-.08-.2c-1.11-1.31-2.39-2.88-3.59-4.59l-.35-.5.28-.54a16.74,16.74,0,0,0,1.2-2.84l.18-.6.62-.1,6.1-.94a.37.37,0,0,0,.1-.21v-7.33a.24.24,0,0,0-.15-.21l-6-.91-.61-.09-.19-.59a25.09,25.09,0,0,0-1.3-3.12l-.26-.53.35-.48c.65-.9,1.33-1.78,2-2.62.49-.62,1-1.24,1.45-1.89l.08-.14c-.16-.36-1-1.61-5.25-5.53l-.1-.09a.27.27,0,0,0-.18-.07.22.22,0,0,0-.15,0l-4.71,3.56-.5.38-.56-.28a18.12,18.12,0,0,0-2.82-1.17l-.6-.19-.09-.62-.91-6.07a.26.26,0,0,0-.2-.14h-7.37c-.09,0-.19.09-.23.22a36.13,36.13,0,0,0-.84,5.57l0,.37-.06.64-.61.21A20,20,0,0,0,102.43,98l-.57.3-.51-.4-4.52-3.54a.63.63,0,0,0-.2-.09c-1,.38-4.66,4.14-5.64,5.46l0,0,0,0a.22.22,0,0,0,0,.15.49.49,0,0,0,.08.2c1.11,1.31,2.39,2.88,3.58,4.58l.35.5-.28.54a16.74,16.74,0,0,0-1.2,2.84l-.18.6-.62.1-6.1.94a.37.37,0,0,0-.1.21v7.33a.17.17,0,0,0,.1.16l6,1,.61.1.19.58a20.23,20.23,0,0,0,1.33,3.09l.29.55-.37.5c-.7.95-1.43,1.87-2.13,2.77l-1.34,1.73-.08.14c.15.35,1,1.58,5.18,5.46l.18.16a.27.27,0,0,0,.18.07l.12,0,0,0,.06,0,4.68-3.53.5-.38.56.28a18.12,18.12,0,0,0,2.82,1.17l.6.19.09.62.91,6.07a.26.26,0,0,0,.2.14h7.37c.09,0,.19-.09.22-.22a36.47,36.47,0,0,0,.85-5.66l0-.31.07-.67.64-.19a16.17,16.17,0,0,0,2.88-1.15l.57-.3.51.4,4.52,3.54a.64.64,0,0,0,.2.09C126,133.67,129.64,129.89,130.62,128.57Zm-19.81-3.24A11.15,11.15,0,1,1,122,114.18,11.16,11.16,0,0,1,110.81,125.33Z" fill="#35495e"/><path d="M139.36,87.95l-.36.47a9.55,9.55,0,0,0-1.07,1.86l-.24.53-.58.06a36.06,36.06,0,0,0-5,.79V96.1a36.06,36.06,0,0,0,5,.79l.59.06.23.55A8.51,8.51,0,0,0,139,99.34l.36.47-.24.54c-.44,1-1.52,3.65-1.84,4.73l.12.07c1.87,1.11,3.13,1.84,3.76,2.19a44.51,44.51,0,0,0,3.15-4l.33-.5.6.06c.39,0,.75.08,1.09.08s.7,0,1.08-.07l.6-.06.34.5a44.55,44.55,0,0,0,3.15,4c.63-.35,1.89-1.08,3.76-2.19l.13-.08c-.31-1-1.38-3.67-1.85-4.72l-.24-.54.36-.47a8.51,8.51,0,0,0,1.07-1.84l.23-.55.59-.06a36.07,36.07,0,0,0,5-.79V91.65a36.06,36.06,0,0,0-5-.79l-.58-.06-.24-.53a9.55,9.55,0,0,0-1.08-1.86l-.36-.47.24-.54c.47-1,1.53-3.66,1.85-4.73-2.27-1.33-3.36-1.95-3.88-2.23a37.28,37.28,0,0,0-3.17,3.94l-.34.47-.58-.06c-.39,0-.75-.08-1.09-.08s-.7,0-1.08.07l-.6.06-.34-.5a43.69,43.69,0,0,0-3.15-3.91c-.65.36-1.84,1.05-2.62,1.51l-1.27.73c.32,1,1.4,3.73,1.85,4.71Zm7-.14a6.07,6.07,0,1,1-6.07,6.07A6.08,6.08,0,0,1,146.33,87.81Z" fill="#35495e"/><path d="M144.64,143.49l.6.06c.39,0,.75.08,1.09.08s.7,0,1.08-.07l.6-.06.34.5a44.54,44.54,0,0,0,3.15,4c.63-.35,1.89-1.08,3.76-2.19l.13-.08c-.31-1-1.38-3.67-1.85-4.72l-.24-.54.36-.47a8.51,8.51,0,0,0,1.07-1.84l.23-.55.59-.06a36.07,36.07,0,0,0,5-.79v-4.45a36.06,36.06,0,0,0-5-.79l-.58-.06-.24-.53a9.55,9.55,0,0,0-1.08-1.86l-.36-.47.24-.54c.47-1,1.53-3.66,1.85-4.73-2.27-1.33-3.36-1.95-3.88-2.23a37.28,37.28,0,0,0-3.17,3.94l-.34.47-.58-.06c-.39,0-.75-.08-1.09-.08s-.7,0-1.08.07l-.6.06-.34-.5a43.69,43.69,0,0,0-3.15-3.91c-.65.36-1.84,1.05-2.62,1.51l-1.27.73c.32,1,1.4,3.73,1.85,4.71l.24.54L139,129a9.55,9.55,0,0,0-1.07,1.86l-.24.53-.58.06a36.06,36.06,0,0,0-5,.79v4.45a36.06,36.06,0,0,0,5,.79l.59.06.23.55a8.51,8.51,0,0,0,1.07,1.84l.36.47-.24.54c-.44,1-1.52,3.65-1.84,4.73l.12.07c1.87,1.11,3.13,1.84,3.76,2.19a44.51,44.51,0,0,0,3.15-4Zm-4.38-9a6.07,6.07,0,1,1,6.07,6.07A6.08,6.08,0,0,1,140.26,134.47Z" fill="#35495e"/><path d="M131.07,110.06h.4a16,16,0,0,1,6.45,1.61l-10.05,5.45-1,.55,0,1.15-.23,8.46,0,1.18,1,.6,7.19,4.24,1,.57,1-.54,2.07-1.18c1.5-.87,4.86-2.8,6.87-3.87a18.49,18.49,0,0,1-.63,2,15.1,15.1,0,0,1-14,9.67h-.39a15,15,0,0,1-14.53-15.33,15,15,0,0,1,14.92-14.54M112.24,135a21.57,21.57,0,0,0,7.84,8.27L95.66,166.42a2.88,2.88,0,0,1-1.94.76h-.07a3,3,0,0,1-2-.88l-3.88-4.16,0,0,0,0a2.74,2.74,0,0,1-.76-2,2.88,2.88,0,0,1,.9-2L112.24,135M96.32,162.36a4.42,4.42,0,0,0,.12-8.84h-.12a4.45,4.45,0,0,0-4.42,4.3,4.44,4.44,0,0,0,4.3,4.54h.12m34.76-54.31a16.93,16.93,0,0,0-.45,33.86h.44a17.13,17.13,0,0,0,15.85-11,13.55,13.55,0,0,0,1-4,1.2,1.2,0,0,0-1.17-1.35h0c-.79,0-9.67,5.27-10.93,5.95l-7.19-4.24.23-8.46,11.24-6.09a1.34,1.34,0,0,0,.63-1,1.25,1.25,0,0,0-.57-1.07,17,17,0,0,0-8.59-2.61ZM112.9,131.62l-26.42,25a4.89,4.89,0,0,0-1.53,3.4,4.74,4.74,0,0,0,1.34,3.44l3.9,4.19a5,5,0,0,0,3.4,1.49h.13A4.87,4.87,0,0,0,97,167.87l26.46-25.08a19.51,19.51,0,0,1-10.59-11.17ZM96.32,160.36h-.06a2.42,2.42,0,0,1,.07-4.84h.06a2.42,2.42,0,0,1-.07,4.84Z" fill="#7f8c8d"/><path d="M131.07,110.06a15,15,0,0,0-14.92,14.54,15,15,0,0,0,14.53,15.33h.39a15.1,15.1,0,0,0,14-9.67,18.48,18.48,0,0,0,.63-2c-2,1.07-5.37,3-6.87,3.87l-2.07,1.18-1,.54-1-.57-7.19-4.24-1-.6,0-1.18.23-8.46,0-1.15,1-.55,10.05-5.45a16,16,0,0,0-6.45-1.61Z" fill="#95a5a5"/><path d="M87.72,162.09l0,0,0,0,3.88,4.16a3,3,0,0,0,2,.88h.07a2.88,2.88,0,0,0,1.94-.76l24.41-23.14a21.57,21.57,0,0,1-7.84-8.27L87.86,158.11a2.88,2.88,0,0,0-.9,2A2.74,2.74,0,0,0,87.72,162.09Zm8.6-8.56h.12a4.42,4.42,0,0,1-.12,8.84H96.2a4.44,4.44,0,0,1-4.3-4.54A4.45,4.45,0,0,1,96.32,153.52Z" fill="#95a5a5"/></g></g></svg>