<svg xmlns="http://www.w3.org/2000/svg" style="display:none">
    <!--Apple course icon bg-->
    <symbol id="apple-course" viewBox="0 0 245 245">
        <circle fill="#ffffff" opacity="0.2" cx="122.5" cy="122.5" r="76.56"/>
        <circle fill="#ffffff" opacity="0.2" cx="122.5" cy="122.5" r="91.88"/>
        <circle fill="#ffffff" opacity="0.2" cx="122.5" cy="122.5" r="107.19"/>
        <circle fill="#ffffff" opacity="0.2" cx="122.5" cy="122.5" r="122.5"/>
        <circle fill="#ffffff" cx="122.5" cy="122.5" r="61.25"/>
        <path fill="#35495e" d="M144.13,146.38c-3.24,4.94-6.49,7.39-9.69,7.39a17.35,17.35,0,0,1-5.28-1.2,16.76,16.76,0,0,0-5.69-1.21,14.63,14.63,0,0,0-5.36,1.25,13.7,13.7,0,0,1-5,1.28c-3.88,0-7.62-3.28-11.35-9.77s-5.55-12.78-5.55-19c0-5.77,1.43-10.45,4.26-14.1a13,13,0,0,1,10.71-5.43,24.92,24.92,0,0,1,6.68,1.13,24,24,0,0,0,5.2,1.13,18.91,18.91,0,0,0,5.39-1.29A21.28,21.28,0,0,1,135,105.3a13.77,13.77,0,0,1,8,2.45,19.3,19.3,0,0,1,3.92,3.77,24.1,24.1,0,0,0-4.3,4.45,13.42,13.42,0,0,0-2.45,7.81,14.42,14.42,0,0,0,2.6,8.41,11.49,11.49,0,0,0,6,4.75A37.56,37.56,0,0,1,144.13,146.38ZM133.49,97.83A15.53,15.53,0,0,1,130,103a10.71,10.71,0,0,1-4.07,2.71,19.74,19.74,0,0,1-3.92.64,17.22,17.22,0,0,1,2.94-9.69c1.89-2.72,5.05-4.56,9.43-5.58.07.34.15.6.19.83s0,.49,0,.75A14.42,14.42,0,0,1,133.49,97.83Z"/>
    </symbol>

    <!--C# course icon bg-->
    <symbol id="c-course" viewBox="0 0 245 245">
        <circle class="cls-1" fill="#ffffff" opacity="0.2" cx="122.5" cy="122.5" r="76.56"/>
        <circle class="cls-1" fill="#ffffff" opacity="0.2" cx="122.5" cy="122.5" r="91.88"/>
        <circle class="cls-1" fill="#ffffff" opacity="0.2" cx="122.5" cy="122.5" r="107.19"/>
        <circle class="cls-1" fill="#ffffff" opacity="0.2" cx="122.5" cy="122.5" r="122.5"/>
        <circle class="cls-2" fill="#ffffff" cx="122.5" cy="122.5" r="61.25"/>
        <path class="cls-3" fill="" stroke="#ffffff" stroke-miterlimit="10" d="M122.5,122.5h46.34A46.34,46.34,0,0,0,122.5,76.16Z"/>
        <path class="cls-4" fill="" stroke="#ffffff" stroke-miterlimit="10" d="M122.5,122.5v46.34a46.34,46.34,0,0,0,46.34-46.34Z"/>
        <path class="cls-5" fill="" stroke="#ffffff" stroke-miterlimit="10" d="M122.5,122.5H76.16a46.34,46.34,0,0,0,46.34,46.34Z"/>
        <path class="cls-6" fill="" stroke="#ffffff" stroke-miterlimit="10" d="M122.5,122.5V76.16A46.34,46.34,0,0,0,76.16,122.5Z"/>
    </symbol>
</svg>