<svg xmlns="http://www.w3.org/2000/svg" style="display:none">
    <!--Logotype site-->
    <symbol id="logotype" viewBox="0 0 152.73 50">
        <path d="M88.43,19.77a1.13,1.13,0,0,0,.49-.11,1.35,1.35,0,0,0,.41-.3,1.6,1.6,0,0,0,.28-.41,1.06,1.06,0,0,0,.11-.46,1.11,1.11,0,0,0-.23-.68,1.27,1.27,0,0,0-.79-.42,45.44,45.44,0,0,0-4.66-.6q-2.23-.16-4.27-.16-1.5,0-2.91.07a26.23,26.23,0,0,0-2.64.26,14.19,14.19,0,0,0-2.26.52,6.57,6.57,0,0,0-1.76.85,3.71,3.71,0,0,0-1.14,1.25,3.5,3.5,0,0,0-.4,1.72,1.52,1.52,0,0,0,.23.75,1.66,1.66,0,0,0,.56.52,2.67,2.67,0,0,0,2.17,0,1.65,1.65,0,0,0,.56-.5,1.26,1.26,0,0,0,.21-.51q0-.23,0-.26a1.32,1.32,0,0,1,.23-.77,2,2,0,0,1,.62-.56,3.92,3.92,0,0,1,.91-.39,9.58,9.58,0,0,1,1.13-.25q.6-.1,1.24-.16l1.26-.11q-.71,2.23-1.33,4t-1.14,3.32l-1,2.76q-.43,1.25-.77,2.37T73,33.7q-.25,1-.4,2.1a2,2,0,0,0-.07.49,1.18,1.18,0,0,0,.43,1,1.82,1.82,0,0,0,1.1.32,1,1,0,0,0,.48-.13,2,2,0,0,0,.5-.38,2.92,2.92,0,0,0,.43-.58,2.68,2.68,0,0,0,.29-.73q.22-.87.57-2.07t.74-2.63q.4-1.42.83-3T78.75,25q.39-1.58.72-3.09T80,19.05q1.2.06,2.32.18l2.19.23,2,.21Q87.53,19.77,88.43,19.77Z"
              fill="#c03b2b"/>
        <path d="M130.76,24.12a2.62,2.62,0,0,0,1-.18,2.11,2.11,0,0,0,.71-.47,1.8,1.8,0,0,0,.41-.67A2.36,2.36,0,0,0,133,22a1.66,1.66,0,0,0-.16-.75,1.37,1.37,0,0,0-.43-.51,1.88,1.88,0,0,0-.63-.29,3.09,3.09,0,0,0-.77-.09,2.59,2.59,0,0,0-1.1.21,2.11,2.11,0,0,0-.7.5,2,2,0,0,0-.5,1.25,1.74,1.74,0,0,0,.49,1.29A2.09,2.09,0,0,0,130.76,24.12Z"
              fill="#c03b2b"/>
        <path d="M146.9,31.77l.12-.46q.06-.22.12-.4a2.56,2.56,0,0,1,.12-.3q.54-1.05,1.15-2.16t1.22-2.25q.61-1.14,1.17-2.3t1-2.31a17.38,17.38,0,0,0,.68-2.3,10.4,10.4,0,0,0,.25-2.24,6.09,6.09,0,0,0-.08-1,2.93,2.93,0,0,0-.26-.85,1.58,1.58,0,0,0-.52-.6,1.42,1.42,0,0,0-.83-.23,2.72,2.72,0,0,0-1.45.45A5.89,5.89,0,0,0,148.22,16,12.24,12.24,0,0,0,147,17.88a21.26,21.26,0,0,0-1.11,2.26,26.6,26.6,0,0,0-.91,2.52q-.4,1.31-.7,2.61t-.45,2.53a18.45,18.45,0,0,0-.15,2.27,14.28,14.28,0,0,0,.22,2.56l-.19.22q-.25.27-.52.52a6.21,6.21,0,0,1-.55.45,3.21,3.21,0,0,1-.54.32,1.24,1.24,0,0,1-.52.12.41.41,0,0,1-.43-.31,2.94,2.94,0,0,1-.1-.86,8.52,8.52,0,0,1,.12-1.37q.12-.72.26-1.44t.26-1.41a7.46,7.46,0,0,0,.12-1.25,2,2,0,0,0-.06-.57.78.78,0,0,0-.18-.33.55.55,0,0,0-.27-.15,1.46,1.46,0,0,0-.33,0h-.53l-.3,0a1.08,1.08,0,0,1-.29-.08.55.55,0,0,1-.23-.19l-.19-.26a1.06,1.06,0,0,0-.25-.24.73.73,0,0,0-.42-.11,3.88,3.88,0,0,0-1.59.35,6.31,6.31,0,0,0-1.48.93,8.19,8.19,0,0,0-1.29,1.37,10.29,10.29,0,0,0-1,1.67,9.87,9.87,0,0,0-.68,1.81,7.08,7.08,0,0,0-.23,1.55l-.36.3a8.36,8.36,0,0,1-1,.71,1.93,1.93,0,0,1-.94.29.46.46,0,0,1-.48-.31,2.43,2.43,0,0,1-.12-.84,7.15,7.15,0,0,1,.12-1.21q.12-.67.29-1.38t.38-1.42l.38-1.32q.18-.62.29-1.1a3.46,3.46,0,0,0,.12-.74.67.67,0,0,0-.18-.49.93.93,0,0,0-.67-.18,3.21,3.21,0,0,0-.6.06,3.08,3.08,0,0,0-.64.2,2.1,2.1,0,0,0-.56.35,1,1,0,0,0-.33.52q-.21.88-.49,1.92c-.13.49-.25,1-.37,1.48a7.08,7.08,0,0,1-.94.48,2.83,2.83,0,0,1-1.09.23.93.93,0,0,1-.36-.07.76.76,0,0,1-.3-.24,1.31,1.31,0,0,1-.22-.45,2.55,2.55,0,0,1-.08-.7,4.05,4.05,0,0,1,.06-.62q.06-.37.13-.76t.13-.75a3.68,3.68,0,0,0,.06-.56,1.1,1.1,0,0,0-.09-.46,1,1,0,0,0-.25-.35,1.12,1.12,0,0,0-.37-.22,1.27,1.27,0,0,0-.43-.08,1.93,1.93,0,0,0-1.14.35,4,4,0,0,0-.88.85,6.84,6.84,0,0,0-.68,1.08l-.53,1h-.13q0-.6,0-1.21v-1q0-.36,0-.57a.63.63,0,0,0-.1-.32.38.38,0,0,0-.25-.14,3,3,0,0,0-.47,0,2.9,2.9,0,0,0-.45,0,.71.71,0,0,0-.3.12.81.81,0,0,0-.22.24,2.3,2.3,0,0,0-.19.41,8.44,8.44,0,0,0-.3,1q-.15.6-.3,1.31l0,.18c-.2-.22-.38-.45-.59-.67a10.42,10.42,0,0,0-1.58-1.33,7.92,7.92,0,0,0-1.82-.93,6.18,6.18,0,0,0-2.09-.35,5.6,5.6,0,0,0-2.34.47,5.12,5.12,0,0,0-1.76,1.3,5.81,5.81,0,0,0-1.11,1.95,7.32,7.32,0,0,0-.39,2.41c0,.16,0,.32,0,.48-.2.16-.4.32-.61.47s-.64.43-1,.62-.63.35-.93.49a6.8,6.8,0,0,1-.81.32,2.11,2.11,0,0,1-.62.12,2,2,0,0,1-.72-.12,1.28,1.28,0,0,1-.54-.4,1.9,1.9,0,0,1-.34-.71,4.15,4.15,0,0,1-.12-1.07q0-.25,0-.54t0-.61l0-.64,0-.63q0-.7.08-1.43l.64-.81.69-.92h4.5a.69.69,0,0,0,.52-.26,1,1,0,0,0,.23-.67,1.31,1.31,0,0,0-.11-.56.38.38,0,0,0-.34-.23l-.5,0-.66,0-.73,0-.7,0-.57,0-.35,0q.42-.67.8-1.35a13.73,13.73,0,0,0,.66-1.34,9.16,9.16,0,0,0,.45-1.3,4.88,4.88,0,0,0,.16-1.21,5.32,5.32,0,0,0-.16-1.31,3.82,3.82,0,0,0-.45-1.1,2.47,2.47,0,0,0-.71-.75,1.61,1.61,0,0,0-.92-.28,2.14,2.14,0,0,0-1.5.7,7.27,7.27,0,0,0-1.32,1.85,17.41,17.41,0,0,0-1.09,2.64,26.48,26.48,0,0,0-.8,3.06,2.34,2.34,0,0,1-.43,0l-.7,0h-.82a5.32,5.32,0,0,0-.79.06,1.89,1.89,0,0,0-.59.18.39.39,0,0,0-.23.36q0,.11,0,.25a.73.73,0,0,0,.08.28.63.63,0,0,0,.22.23,1,1,0,0,0,.43.13l1,.12.55.09.41.08.54.09q-.11.79-.16,1.58t-.06,1.5a20.86,20.86,0,0,0,.23,3.25v.05l-.4.34q-.39.3-.83.58t-.85.49a6,6,0,0,1-.79.35,2,2,0,0,1-.63.13.52.52,0,0,1-.36-.11.66.66,0,0,1-.18-.32,2.08,2.08,0,0,1-.07-.48q0-.28,0-.6a4.83,4.83,0,0,1,.07-.63q.07-.45.18-1l.24-1.29q.13-.69.24-1.34t.18-1.2a7.13,7.13,0,0,0,.07-.86.62.62,0,0,0-.35-.54,1.84,1.84,0,0,0-.95-.21,2.21,2.21,0,0,0-.94.19q-.42.19-.47.47l-1.16,6a3.25,3.25,0,0,1-.28.84,2.6,2.6,0,0,1-.43.62,1.85,1.85,0,0,1-.51.39,1.17,1.17,0,0,1-.53.13.5.5,0,0,1-.3-.09.72.72,0,0,1-.21-.25,1.29,1.29,0,0,1-.12-.35,1.94,1.94,0,0,1,0-.4l.05-.36q.05-.35.15-.93l.21-1.31q.12-.73.25-1.51l.25-1.54q.12-.76.23-1.38,0-.2-.27-.33a2.34,2.34,0,0,0-.89-.16,1.32,1.32,0,0,0-.67.2,2,2,0,0,0-.52.48,3.38,3.38,0,0,0-.39.66,6.52,6.52,0,0,0-.28.71q-.11.35-.18.65t-.09.47q-.32,1.79-.53,3.19a15.52,15.52,0,0,0-.22,2.3,4.29,4.29,0,0,0,.15,1.24,2.19,2.19,0,0,0,.42.8,1.5,1.5,0,0,0,.6.43,2,2,0,0,0,.73.13,2.66,2.66,0,0,0,1-.19,4.68,4.68,0,0,0,1-.53,7.38,7.38,0,0,0,1-.8,9.78,9.78,0,0,0,.89-1,7.77,7.77,0,0,0,.28,1,3,3,0,0,0,.39.76,1.67,1.67,0,0,0,.54.49,1.55,1.55,0,0,0,.76.18,4.15,4.15,0,0,0,1-.12,8,8,0,0,0,1-.33,10.85,10.85,0,0,0,1-.47q.52-.27,1-.56t.84-.59l.32-.26c0,.12.08.25.13.36a4.07,4.07,0,0,0,1.14,1.55,2.46,2.46,0,0,0,1.57.54,3.32,3.32,0,0,0,1-.16,9,9,0,0,0,1.22-.49q.69-.33,1.56-.82l1.44-.82a4.93,4.93,0,0,0,.35.67,3.76,3.76,0,0,0,1.2,1.18,3.3,3.3,0,0,0,1.76.45,3.69,3.69,0,0,0,1.35-.25,4.49,4.49,0,0,0,1.17-.67,5,5,0,0,0,.95-1,6.6,6.6,0,0,0,.7-1.23,7.17,7.17,0,0,0,.44-1.36,6.35,6.35,0,0,0,0-2.84,6.27,6.27,0,0,0-.51-1.44l.09-.13,1,.7q.59.42,1.19.88t1.14,1h0c-.07.42-.14.85-.19,1.26s-.12,1-.16,1.45-.06.86-.06,1.2a7.62,7.62,0,0,0,.05.91,2.63,2.63,0,0,0,.21.79,1.23,1.23,0,0,0,1.22.76,1,1,0,0,0,.39-.08.88.88,0,0,0,.33-.26,2.57,2.57,0,0,0,.3-.49,7.55,7.55,0,0,0,.31-.76l2.1-5.85h.19q.09.74.25,1.46a4.75,4.75,0,0,0,.47,1.3,2.6,2.6,0,0,0,.86.94,2.53,2.53,0,0,0,1.42.36,3.26,3.26,0,0,0,1-.15,6.19,6.19,0,0,0,.84-.33,9.9,9.9,0,0,0-.14,1.5,3.93,3.93,0,0,0,.11,1,1.83,1.83,0,0,0,.37.74,1.71,1.71,0,0,0,.67.47,2.72,2.72,0,0,0,1,.17,4.64,4.64,0,0,0,1.44-.25,10.33,10.33,0,0,0,1.48-.62,11.17,11.17,0,0,0,1.22-.73,3.1,3.1,0,0,0,.5.73,2.85,2.85,0,0,0,.94.66,2.76,2.76,0,0,0,1.1.23,3.32,3.32,0,0,0,1.05-.18,5.73,5.73,0,0,0,1-.45,6.15,6.15,0,0,0,.9-.62A5.69,5.69,0,0,0,139,35a4.06,4.06,0,0,0,.89,1.45,1.78,1.78,0,0,0,1.29.5,2.9,2.9,0,0,0,1.29-.32,6.34,6.34,0,0,0,1.21-.77,8.83,8.83,0,0,0,.92-.87,4.77,4.77,0,0,0,.87,1.34,1.63,1.63,0,0,0,1.18.56,3.63,3.63,0,0,0,.86-.11,7.4,7.4,0,0,0,.94-.3q.48-.19,1-.43l.92-.49a24.17,24.17,0,0,0,2.06-1.34l-1-2.46q-.81.64-1.55,1.14l-.66.42q-.34.21-.66.36a4.71,4.71,0,0,1-.61.25,1.67,1.67,0,0,1-.51.09q-.09,0-.2-.13a1.54,1.54,0,0,1-.2-.36,3.22,3.22,0,0,1-.16-.52,2.69,2.69,0,0,1-.06-.59v-.16Q146.84,32,146.9,31.77Zm-46.15-9.5q.25-1,.54-1.85a8,8,0,0,1,.6-1.38q.31-.54.62-.54a.52.52,0,0,1,.53.33,1.08,1.08,0,0,1,.08.3,2.62,2.62,0,0,1,0,.29,3.13,3.13,0,0,1-.2,1q-.2.59-.5,1.26T101.73,23q-.38.7-.73,1.29l-.36,0-.35,0Q100.49,23.27,100.74,22.27ZM112,31.85a7,7,0,0,1-.45,1.36,3.82,3.82,0,0,1-.66,1,1.07,1.07,0,0,1-.77.4,1.47,1.47,0,0,1-1.31-.71,2.38,2.38,0,0,1-.29-.76,4.37,4.37,0,0,1-.09-.93,6.69,6.69,0,0,1,.7-2.9,3.84,3.84,0,0,1,.76-1,1.32,1.32,0,0,1,.91-.41,1,1,0,0,1,.62.2,1.48,1.48,0,0,1,.42.54,3.08,3.08,0,0,1,.25.8,5.75,5.75,0,0,1,.08,1A6.4,6.4,0,0,1,112,31.85Zm26.37-.52a6.63,6.63,0,0,1-.21.94,6.46,6.46,0,0,1-.42,1.09,3.65,3.65,0,0,1-.61.9,1.06,1.06,0,0,1-.79.38.71.71,0,0,1-.45-.13,1,1,0,0,1-.28-.35,1.69,1.69,0,0,1-.15-.49,3.85,3.85,0,0,1,0-.57,4.93,4.93,0,0,1,.13-1.1,7,7,0,0,1,.38-1.17,7.31,7.31,0,0,1,.59-1.11,5.82,5.82,0,0,1,.74-.94,3.5,3.5,0,0,1,.86-.65,2,2,0,0,1,.94-.24Zm8.32-3.82a16.93,16.93,0,0,1,.16-2.31,21.84,21.84,0,0,1,.45-2.31q.28-1.12.64-2.12a13.92,13.92,0,0,1,.75-1.75,5.91,5.91,0,0,1,.79-1.19,1.06,1.06,0,0,1,.73-.44q.09,0,.11.24t0,.58a11.58,11.58,0,0,1-.49,2.3q-.39,1.24-.91,2.48t-1.12,2.41Q147.18,26.57,146.65,27.5Z"
              fill="#c03b2b"/>
        <path d="M88.43,18.77a1.13,1.13,0,0,0,.49-.11,1.35,1.35,0,0,0,.41-.3,1.6,1.6,0,0,0,.28-.41,1.06,1.06,0,0,0,.11-.46,1.11,1.11,0,0,0-.23-.68,1.27,1.27,0,0,0-.79-.42,45.44,45.44,0,0,0-4.66-.6q-2.23-.16-4.27-.16-1.5,0-2.91.07a26.23,26.23,0,0,0-2.64.26,14.19,14.19,0,0,0-2.26.52,6.57,6.57,0,0,0-1.76.85,3.71,3.71,0,0,0-1.14,1.25,3.5,3.5,0,0,0-.4,1.72,1.52,1.52,0,0,0,.23.75,1.66,1.66,0,0,0,.56.52,2.67,2.67,0,0,0,2.17,0,1.65,1.65,0,0,0,.56-.5,1.26,1.26,0,0,0,.21-.51q0-.23,0-.26a1.32,1.32,0,0,1,.23-.77,2,2,0,0,1,.62-.56,3.92,3.92,0,0,1,.91-.39,9.58,9.58,0,0,1,1.13-.25q.6-.1,1.24-.16l1.26-.11q-.71,2.23-1.33,4t-1.14,3.32l-1,2.76q-.43,1.25-.77,2.37T73,32.7q-.25,1-.4,2.1a2,2,0,0,0-.07.49,1.18,1.18,0,0,0,.43,1,1.82,1.82,0,0,0,1.1.32,1,1,0,0,0,.48-.13,2,2,0,0,0,.5-.38,2.92,2.92,0,0,0,.43-.58,2.68,2.68,0,0,0,.29-.73q.22-.87.57-2.07t.74-2.63q.4-1.42.83-3T78.75,24q.39-1.58.72-3.09T80,18.05q1.2.06,2.32.18l2.19.23,2,.21Q87.53,18.77,88.43,18.77Z"
              fill="#e64c3c"/>
        <path d="M130.76,23.12a2.62,2.62,0,0,0,1-.18,2.11,2.11,0,0,0,.71-.47,1.8,1.8,0,0,0,.41-.67A2.36,2.36,0,0,0,133,21a1.66,1.66,0,0,0-.16-.75,1.37,1.37,0,0,0-.43-.51,1.88,1.88,0,0,0-.63-.29,3.09,3.09,0,0,0-.77-.09,2.59,2.59,0,0,0-1.1.21,2.11,2.11,0,0,0-.7.5,2,2,0,0,0-.5,1.25,1.74,1.74,0,0,0,.49,1.29A2.09,2.09,0,0,0,130.76,23.12Z"
              fill="#e64c3c"/>
        <path d="M146.9,30.77l.12-.46q.06-.22.12-.4a2.56,2.56,0,0,1,.12-.3q.54-1.05,1.15-2.16t1.22-2.25q.61-1.14,1.17-2.3t1-2.31a17.38,17.38,0,0,0,.68-2.3,10.4,10.4,0,0,0,.25-2.24,6.09,6.09,0,0,0-.08-1,2.93,2.93,0,0,0-.26-.85,1.58,1.58,0,0,0-.52-.6,1.42,1.42,0,0,0-.83-.23,2.72,2.72,0,0,0-1.45.45A5.89,5.89,0,0,0,148.22,15,12.24,12.24,0,0,0,147,16.88a21.26,21.26,0,0,0-1.11,2.26,26.6,26.6,0,0,0-.91,2.52q-.4,1.31-.7,2.61t-.45,2.53a18.45,18.45,0,0,0-.15,2.27,14.28,14.28,0,0,0,.22,2.56l-.19.22q-.25.27-.52.52a6.21,6.21,0,0,1-.55.45,3.21,3.21,0,0,1-.54.32,1.24,1.24,0,0,1-.52.12.41.41,0,0,1-.43-.31,2.94,2.94,0,0,1-.1-.86,8.52,8.52,0,0,1,.12-1.37q.12-.72.26-1.44t.26-1.41a7.46,7.46,0,0,0,.12-1.25,2,2,0,0,0-.06-.57.78.78,0,0,0-.18-.33.55.55,0,0,0-.27-.15,1.46,1.46,0,0,0-.33,0h-.53l-.3,0a1.08,1.08,0,0,1-.29-.08.55.55,0,0,1-.23-.19l-.19-.26a1.06,1.06,0,0,0-.25-.24.73.73,0,0,0-.42-.11,3.88,3.88,0,0,0-1.59.35,6.31,6.31,0,0,0-1.48.93,8.19,8.19,0,0,0-1.29,1.37,10.29,10.29,0,0,0-1,1.67,9.87,9.87,0,0,0-.68,1.81,7.08,7.08,0,0,0-.23,1.55l-.36.3a8.36,8.36,0,0,1-1,.71,1.93,1.93,0,0,1-.94.29.46.46,0,0,1-.48-.31,2.43,2.43,0,0,1-.12-.84,7.15,7.15,0,0,1,.12-1.21q.12-.67.29-1.38t.38-1.42l.38-1.32q.18-.62.29-1.1a3.46,3.46,0,0,0,.12-.74.67.67,0,0,0-.18-.49.93.93,0,0,0-.67-.18,3.21,3.21,0,0,0-.6.06,3.08,3.08,0,0,0-.64.2,2.1,2.1,0,0,0-.56.35,1,1,0,0,0-.33.52q-.21.88-.49,1.92c-.13.49-.25,1-.37,1.48a7.08,7.08,0,0,1-.94.48,2.83,2.83,0,0,1-1.09.23.93.93,0,0,1-.36-.07.76.76,0,0,1-.3-.24,1.31,1.31,0,0,1-.22-.45,2.55,2.55,0,0,1-.08-.7,4.05,4.05,0,0,1,.06-.62q.06-.37.13-.76t.13-.75a3.68,3.68,0,0,0,.06-.56,1.1,1.1,0,0,0-.09-.46,1,1,0,0,0-.25-.35,1.12,1.12,0,0,0-.37-.22,1.27,1.27,0,0,0-.43-.08,1.93,1.93,0,0,0-1.14.35,4,4,0,0,0-.88.85,6.84,6.84,0,0,0-.68,1.08l-.53,1h-.13q0-.6,0-1.21v-1q0-.36,0-.57a.63.63,0,0,0-.1-.32.38.38,0,0,0-.25-.14,3,3,0,0,0-.47,0,2.9,2.9,0,0,0-.45,0,.71.71,0,0,0-.3.12.81.81,0,0,0-.22.24,2.3,2.3,0,0,0-.19.41,8.44,8.44,0,0,0-.3,1q-.15.6-.3,1.31l0,.18c-.2-.22-.38-.45-.59-.67a10.42,10.42,0,0,0-1.58-1.33,7.92,7.92,0,0,0-1.82-.93,6.18,6.18,0,0,0-2.09-.35,5.6,5.6,0,0,0-2.34.47,5.12,5.12,0,0,0-1.76,1.3,5.81,5.81,0,0,0-1.11,1.95,7.32,7.32,0,0,0-.39,2.41c0,.16,0,.32,0,.48-.2.16-.4.32-.61.47s-.64.43-1,.62-.63.35-.93.49a6.8,6.8,0,0,1-.81.32,2.11,2.11,0,0,1-.62.12,2,2,0,0,1-.72-.12,1.28,1.28,0,0,1-.54-.4,1.9,1.9,0,0,1-.34-.71,4.15,4.15,0,0,1-.12-1.07q0-.25,0-.54t0-.61l0-.64,0-.63q0-.7.08-1.43l.64-.81.69-.92h4.5a.69.69,0,0,0,.52-.26,1,1,0,0,0,.23-.67,1.31,1.31,0,0,0-.11-.56.38.38,0,0,0-.34-.23l-.5,0-.66,0-.73,0-.7,0-.57,0-.35,0q.42-.67.8-1.35a13.73,13.73,0,0,0,.66-1.34,9.16,9.16,0,0,0,.45-1.3,4.88,4.88,0,0,0,.16-1.21,5.32,5.32,0,0,0-.16-1.31,3.82,3.82,0,0,0-.45-1.1,2.47,2.47,0,0,0-.71-.75,1.61,1.61,0,0,0-.92-.28,2.14,2.14,0,0,0-1.5.7,7.27,7.27,0,0,0-1.32,1.85,17.41,17.41,0,0,0-1.09,2.64,26.48,26.48,0,0,0-.8,3.06,2.34,2.34,0,0,1-.43,0l-.7,0h-.82a5.32,5.32,0,0,0-.79.06,1.89,1.89,0,0,0-.59.18.39.39,0,0,0-.23.36q0,.11,0,.25a.73.73,0,0,0,.08.28.63.63,0,0,0,.22.23,1,1,0,0,0,.43.13l1,.12.55.09.41.08.54.09q-.11.79-.16,1.58t-.06,1.5a20.86,20.86,0,0,0,.23,3.25v.05l-.4.34q-.39.3-.83.58t-.85.49a6,6,0,0,1-.79.35,2,2,0,0,1-.63.13.52.52,0,0,1-.36-.11.66.66,0,0,1-.18-.32,2.08,2.08,0,0,1-.07-.48q0-.28,0-.6a4.83,4.83,0,0,1,.07-.63q.07-.45.18-1l.24-1.29q.13-.69.24-1.34t.18-1.2a7.13,7.13,0,0,0,.07-.86.62.62,0,0,0-.35-.54,1.84,1.84,0,0,0-.95-.21,2.21,2.21,0,0,0-.94.19q-.42.19-.47.47l-1.16,6a3.25,3.25,0,0,1-.28.84,2.6,2.6,0,0,1-.43.62,1.85,1.85,0,0,1-.51.39,1.17,1.17,0,0,1-.53.13.5.5,0,0,1-.3-.09.72.72,0,0,1-.21-.25,1.29,1.29,0,0,1-.12-.35,1.94,1.94,0,0,1,0-.4l.05-.36q.05-.35.15-.93l.21-1.31q.12-.73.25-1.51l.25-1.54q.12-.76.23-1.38,0-.2-.27-.33a2.34,2.34,0,0,0-.89-.16,1.32,1.32,0,0,0-.67.2,2,2,0,0,0-.52.48,3.38,3.38,0,0,0-.39.66,6.52,6.52,0,0,0-.28.71q-.11.35-.18.65t-.09.47q-.32,1.79-.53,3.19a15.52,15.52,0,0,0-.22,2.3,4.29,4.29,0,0,0,.15,1.24,2.19,2.19,0,0,0,.42.8,1.5,1.5,0,0,0,.6.43,2,2,0,0,0,.73.13,2.66,2.66,0,0,0,1-.19,4.68,4.68,0,0,0,1-.53,7.38,7.38,0,0,0,1-.8,9.78,9.78,0,0,0,.89-1,7.77,7.77,0,0,0,.28,1,3,3,0,0,0,.39.76,1.67,1.67,0,0,0,.54.49,1.55,1.55,0,0,0,.76.18,4.15,4.15,0,0,0,1-.12,8,8,0,0,0,1-.33,10.85,10.85,0,0,0,1-.47q.52-.27,1-.56t.84-.59l.32-.26c0,.12.08.25.13.36a4.07,4.07,0,0,0,1.14,1.55,2.46,2.46,0,0,0,1.57.54,3.32,3.32,0,0,0,1-.16,9,9,0,0,0,1.22-.49q.69-.33,1.56-.82l1.44-.82a4.93,4.93,0,0,0,.35.67,3.76,3.76,0,0,0,1.2,1.18,3.3,3.3,0,0,0,1.76.45,3.69,3.69,0,0,0,1.35-.25,4.49,4.49,0,0,0,1.17-.67,5,5,0,0,0,.95-1,6.6,6.6,0,0,0,.7-1.23,7.17,7.17,0,0,0,.44-1.36,6.35,6.35,0,0,0,0-2.84,6.27,6.27,0,0,0-.51-1.44l.09-.13,1,.7q.59.42,1.19.88t1.14,1h0c-.07.42-.14.85-.19,1.26s-.12,1-.16,1.45-.06.86-.06,1.2a7.62,7.62,0,0,0,.05.91,2.63,2.63,0,0,0,.21.79,1.23,1.23,0,0,0,1.22.76,1,1,0,0,0,.39-.08.88.88,0,0,0,.33-.26,2.57,2.57,0,0,0,.3-.49,7.55,7.55,0,0,0,.31-.76l2.1-5.85h.19q.09.74.25,1.46a4.75,4.75,0,0,0,.47,1.3,2.6,2.6,0,0,0,.86.94,2.53,2.53,0,0,0,1.42.36,3.26,3.26,0,0,0,1-.15,6.19,6.19,0,0,0,.84-.33,9.9,9.9,0,0,0-.14,1.5,3.93,3.93,0,0,0,.11,1,1.83,1.83,0,0,0,.37.74,1.71,1.71,0,0,0,.67.47,2.72,2.72,0,0,0,1,.17,4.64,4.64,0,0,0,1.44-.25,10.33,10.33,0,0,0,1.48-.62,11.17,11.17,0,0,0,1.22-.73,3.1,3.1,0,0,0,.5.73,2.85,2.85,0,0,0,.94.66,2.76,2.76,0,0,0,1.1.23,3.32,3.32,0,0,0,1.05-.18,5.73,5.73,0,0,0,1-.45,6.15,6.15,0,0,0,.9-.62A5.69,5.69,0,0,0,139,34a4.06,4.06,0,0,0,.89,1.45,1.78,1.78,0,0,0,1.29.5,2.9,2.9,0,0,0,1.29-.32,6.34,6.34,0,0,0,1.21-.77,8.83,8.83,0,0,0,.92-.87,4.77,4.77,0,0,0,.87,1.34,1.63,1.63,0,0,0,1.18.56,3.63,3.63,0,0,0,.86-.11,7.4,7.4,0,0,0,.94-.3q.48-.19,1-.43l.92-.49a24.17,24.17,0,0,0,2.06-1.34l-1-2.46q-.81.64-1.55,1.14l-.66.42q-.34.21-.66.36a4.71,4.71,0,0,1-.61.25,1.67,1.67,0,0,1-.51.09q-.09,0-.2-.13a1.54,1.54,0,0,1-.2-.36,3.22,3.22,0,0,1-.16-.52,2.69,2.69,0,0,1-.06-.59v-.16Q146.84,31,146.9,30.77Zm-46.15-9.5q.25-1,.54-1.85a8,8,0,0,1,.6-1.38q.31-.54.62-.54a.52.52,0,0,1,.53.33,1.08,1.08,0,0,1,.08.3,2.62,2.62,0,0,1,0,.29,3.13,3.13,0,0,1-.2,1q-.2.59-.5,1.26T101.73,22q-.38.7-.73,1.29l-.36,0-.35,0Q100.49,22.27,100.74,21.27ZM112,30.85a7,7,0,0,1-.45,1.36,3.82,3.82,0,0,1-.66,1,1.07,1.07,0,0,1-.77.4,1.47,1.47,0,0,1-1.31-.71,2.38,2.38,0,0,1-.29-.76,4.37,4.37,0,0,1-.09-.93,6.69,6.69,0,0,1,.7-2.9,3.84,3.84,0,0,1,.76-1,1.32,1.32,0,0,1,.91-.41,1,1,0,0,1,.62.2,1.48,1.48,0,0,1,.42.54,3.08,3.08,0,0,1,.25.8,5.75,5.75,0,0,1,.08,1A6.4,6.4,0,0,1,112,30.85Zm26.37-.52a6.63,6.63,0,0,1-.21.94,6.46,6.46,0,0,1-.42,1.09,3.65,3.65,0,0,1-.61.9,1.06,1.06,0,0,1-.79.38.71.71,0,0,1-.45-.13,1,1,0,0,1-.28-.35,1.69,1.69,0,0,1-.15-.49,3.85,3.85,0,0,1,0-.57,4.93,4.93,0,0,1,.13-1.1,7,7,0,0,1,.38-1.17,7.31,7.31,0,0,1,.59-1.11,5.82,5.82,0,0,1,.74-.94,3.5,3.5,0,0,1,.86-.65,2,2,0,0,1,.94-.24Zm8.32-3.82a16.93,16.93,0,0,1,.16-2.31,21.84,21.84,0,0,1,.45-2.31q.28-1.12.64-2.12a13.92,13.92,0,0,1,.75-1.75,5.91,5.91,0,0,1,.79-1.19,1.06,1.06,0,0,1,.73-.44q.09,0,.11.24t0,.58a11.58,11.58,0,0,1-.49,2.3q-.39,1.24-.91,2.48t-1.12,2.41Q147.18,25.57,146.65,26.5Z"
              fill="#e64c3c"/>
        <path d="M44.38,4,54.15,21a8.09,8.09,0,0,1,0,8.09L44.38,46a8.09,8.09,0,0,1-7,4H17.85a8.09,8.09,0,0,1-7-4L1.08,29a8.09,8.09,0,0,1,0-8.09L10.85,4a8.09,8.09,0,0,1,7-4H37.38A8.09,8.09,0,0,1,44.38,4Z"
              fill="#c03b2b"/>
        <path d="M52.3,4,62.07,21a8.09,8.09,0,0,1,0,8.09L52.3,46a8.09,8.09,0,0,1-7,4H25.77a8.09,8.09,0,0,1-7-4L9,29A8.09,8.09,0,0,1,9,21L18.77,4a8.09,8.09,0,0,1,7-4H45.3A8.09,8.09,0,0,1,52.3,4Z"
              fill="#e64c3c"/>
        <path d="M52.3,4,62.07,21a8.09,8.09,0,0,1,0,8.09L52.3,46a8.09,8.09,0,0,1-7,4H25.77a8.09,8.09,0,0,1-7-4L9,29A8.09,8.09,0,0,1,9,21L18.77,4a8.09,8.09,0,0,1,7-4H45.3A8.09,8.09,0,0,1,52.3,4Z"
              fill="none"/>
        <path d="M52.3,4,62.07,21a8.09,8.09,0,0,1,0,8.09L52.3,46a8.09,8.09,0,0,1-7,4H25.77a8.09,8.09,0,0,1-7-4L9,29A8.09,8.09,0,0,1,9,21L18.77,4a8.09,8.09,0,0,1,7-4H45.3A8.09,8.09,0,0,1,52.3,4Z"
              fill="none"/>
        <path d="M54.74,18a5,5,0,0,0-1.68-1,7,7,0,0,0-2.35-.36,5.57,5.57,0,0,0-1.93.33,6.05,6.05,0,0,0-1.68.94,7.09,7.09,0,0,0-.95.93,7.13,7.13,0,0,0-.71.71,7.13,7.13,0,0,0-.71.71A7.13,7.13,0,0,0,44,21a7.13,7.13,0,0,0-.71.71,7.15,7.15,0,0,0-.71.71l-.31.28c0-.09,0-.19,0-.28a11.14,11.14,0,0,0,.09-1.41,6.88,6.88,0,0,0-.14-1.39,4.41,4.41,0,0,0-.39-1.15,2.27,2.27,0,0,0-.63-.78,1.4,1.4,0,0,0-.87-.29,2.84,2.84,0,0,0-1.36.35,4.32,4.32,0,0,0-1.22,1l-.07.09a4.79,4.79,0,0,0-.64.62l-.07.09a4.79,4.79,0,0,0-.64.62l-.07.09-.2.19v-.1c0-.09,0-.16,0-.2A5.22,5.22,0,0,0,36,19a2.66,2.66,0,0,0-.35-.85,1.43,1.43,0,0,0-.54-.5,1.47,1.47,0,0,0-.68-.16,2.09,2.09,0,0,0-1,.27,4.28,4.28,0,0,0-1,.77c-.11.12-.23.25-.34.38a5,5,0,0,0-.38.33c-.11.12-.23.25-.34.38A5,5,0,0,0,31,20c-.11.12-.23.25-.34.38a5,5,0,0,0-.38.33c-.11.12-.23.25-.34.38l0,0c0-.3,0-.58,0-.81a6.87,6.87,0,0,0-.08-1.06,2.44,2.44,0,0,0-.27-.82,1.37,1.37,0,0,0-.52-.53,1.64,1.64,0,0,0-.82-.19,2.23,2.23,0,0,0-.75.14c-.71-.1-1.41-.19-2.08-.24q-1.52-.11-2.91-.11-1,0-2,0a18,18,0,0,0-1.8.18,9.68,9.68,0,0,0-1.54.36,4.48,4.48,0,0,0-1.2.58,2.55,2.55,0,0,0-.65.68l-.06,0a2.55,2.55,0,0,0-.65.68l-.06,0a2.55,2.55,0,0,0-.65.68l-.06,0a2.55,2.55,0,0,0-.65.68l-.06,0a2.55,2.55,0,0,0-.65.68l-.06,0a2.55,2.55,0,0,0-.65.68l-.06,0a2.55,2.55,0,0,0-.65.68l-.06,0a2.55,2.55,0,0,0-.65.68l-.06,0a2.55,2.55,0,0,0-.65.68l-.06,0a2.55,2.55,0,0,0-.65.68l-.06,0a2.55,2.55,0,0,0-.65.68l-.06,0-.1.09A8.05,8.05,0,0,0,9,29L18.77,46a8.09,8.09,0,0,0,7,4h6c.07-.08.14-.15.2-.23s.17-.12.25-.2a4.1,4.1,0,0,0,.46-.52c.08-.06.17-.12.25-.2a4.1,4.1,0,0,0,.46-.52c.08-.06.17-.12.25-.2a4.1,4.1,0,0,0,.46-.52c.08-.06.17-.12.25-.2a4.1,4.1,0,0,0,.46-.52c.08-.06.17-.12.25-.2a4.1,4.1,0,0,0,.46-.52c.08-.06.17-.12.25-.2a4.1,4.1,0,0,0,.46-.52c.08-.06.17-.12.25-.2a4.1,4.1,0,0,0,.46-.52c.08-.06.17-.12.25-.2a4.1,4.1,0,0,0,.46-.52c.08-.06.17-.12.25-.2a4.1,4.1,0,0,0,.46-.52c.08-.06.17-.12.25-.2a4.1,4.1,0,0,0,.46-.52c.08-.06.17-.12.25-.2a4.1,4.1,0,0,0,.46-.52c.08-.06.17-.12.25-.2a4.1,4.1,0,0,0,.46-.52c.08-.06.17-.12.25-.2a4.1,4.1,0,0,0,.46-.52c.08-.06.17-.12.25-.2a4.1,4.1,0,0,0,.46-.52c.08-.06.17-.12.25-.2a4.1,4.1,0,0,0,.46-.52c.08-.06.17-.12.25-.2a4.1,4.1,0,0,0,.46-.52c.08-.06.17-.12.25-.2a4.1,4.1,0,0,0,.46-.52c.08-.06.17-.12.25-.2a4.1,4.1,0,0,0,.46-.52c.08-.06.17-.12.25-.2a4.1,4.1,0,0,0,.46-.52c.08-.06.17-.12.25-.2a4.1,4.1,0,0,0,.46-.52c.08-.06.17-.12.25-.2a4.1,4.1,0,0,0,.46-.52c.08-.06.17-.12.25-.2a4.1,4.1,0,0,0,.46-.52c.08-.06.17-.12.25-.2a4.1,4.1,0,0,0,.46-.52c.08-.06.17-.12.25-.2a4.1,4.1,0,0,0,.46-.52c.08-.06.17-.12.25-.2a4.21,4.21,0,0,0,.74-.9,6.56,6.56,0,0,0,.54-1.09,7,7,0,0,0,.34-1.18,7.28,7.28,0,0,0,.13-1.16s0-.09,0-.18v-.18c.07-.07.16-.13.23-.2s.15-.2.23-.29a4.94,4.94,0,0,0,.48-.42c.09-.09.15-.2.23-.29a4.94,4.94,0,0,0,.48-.42c.09-.09.15-.2.23-.29a4.94,4.94,0,0,0,.48-.42c.09-.09.15-.2.23-.29a4.94,4.94,0,0,0,.48-.42c.09-.09.15-.2.23-.29a4.94,4.94,0,0,0,.48-.42,4.42,4.42,0,0,0,.91-1.41,4.17,4.17,0,0,0,.3-1.55,4,4,0,0,0-.34-1.62A4,4,0,0,0,54.74,18Z"
              fill="#c03b2b"/>
        <path d="M55.75,19.42a4,4,0,0,0-1-1.39,5,5,0,0,0-1.68-1,7,7,0,0,0-2.35-.36,5.57,5.57,0,0,0-1.93.33,6.05,6.05,0,0,0-1.68.94,7.29,7.29,0,0,0-1.39,1.45,9.32,9.32,0,0,0-1,1.87A11.34,11.34,0,0,0,44,23.5a12.58,12.58,0,0,0-.23,2.44q0,.73.08,1.57c0,.08,0,.15,0,.23-.15.2-.29.4-.44.57s-.25.29-.38.44a4,4,0,0,1-.4.38,2.18,2.18,0,0,1-.41.26.88.88,0,0,1-.39.1.6.6,0,0,1-.5-.21,1.08,1.08,0,0,1-.17-.68,5.15,5.15,0,0,1,.09-.89q.09-.51.23-1.12l.29-1.29q.16-.68.29-1.39t.23-1.43a11.14,11.14,0,0,0,.09-1.41,6.88,6.88,0,0,0-.14-1.39,4.41,4.41,0,0,0-.39-1.15,2.27,2.27,0,0,0-.63-.78,1.4,1.4,0,0,0-.87-.29,2.84,2.84,0,0,0-1.36.35,4.32,4.32,0,0,0-1.22,1,7.33,7.33,0,0,0-1,1.6A11.8,11.8,0,0,0,36,22.53h-.17l.14-1,.05-.4q0-.2,0-.38c0-.12,0-.22,0-.31s0-.16,0-.2A5.22,5.22,0,0,0,36,19a2.66,2.66,0,0,0-.35-.85,1.43,1.43,0,0,0-.54-.5,1.47,1.47,0,0,0-.68-.16,2.09,2.09,0,0,0-1,.27,4.28,4.28,0,0,0-1,.77,8,8,0,0,0-1,1.19,12.64,12.64,0,0,0-.87,1.54,18.22,18.22,0,0,0-.76,1.83,20.3,20.3,0,0,0-.6,2q.12-.58.25-1.24t.24-1.32q.11-.66.18-1.26a8.94,8.94,0,0,0,.07-1,6.87,6.87,0,0,0-.08-1.06,2.44,2.44,0,0,0-.27-.82,1.37,1.37,0,0,0-.52-.53,1.64,1.64,0,0,0-.82-.19,2.23,2.23,0,0,0-.75.14c-.71-.1-1.41-.19-2.08-.24q-1.52-.11-2.91-.11-1,0-2,0a18,18,0,0,0-1.8.18,9.68,9.68,0,0,0-1.54.36,4.48,4.48,0,0,0-1.2.58,2.53,2.53,0,0,0-.77.85A2.39,2.39,0,0,0,15,20.64a1,1,0,0,0,.16.51,1.12,1.12,0,0,0,.38.35,1.82,1.82,0,0,0,1.48,0,1.12,1.12,0,0,0,.38-.34.86.86,0,0,0,.14-.35c0-.11,0-.17,0-.18a.9.9,0,0,1,.16-.53,1.35,1.35,0,0,1,.42-.38,2.69,2.69,0,0,1,.62-.26,6.63,6.63,0,0,1,.77-.17q.41-.07.85-.11l.86-.07q-.49,1.52-.91,2.76t-.78,2.27L18.88,26q-.3.86-.53,1.62T18,29.1q-.17.7-.28,1.43a1.33,1.33,0,0,0,0,.34.8.8,0,0,0,.3.69,1.24,1.24,0,0,0,.75.22.72.72,0,0,0,.33-.09,1.36,1.36,0,0,0,.34-.26,2,2,0,0,0,.3-.4,1.83,1.83,0,0,0,.2-.5q.15-.59.39-1.41l.51-1.79.56-2q.29-1.07.56-2.14T22.34,21q.22-1,.37-1.93.81,0,1.58.12l1.49.16h.11A7.78,7.78,0,0,0,25.25,21a.11.11,0,0,0,0,.08.9.9,0,0,0,0,.2,1.48,1.48,0,0,0,.06.2.87.87,0,0,0,.08.16s.06.07.08.07a.51.51,0,0,0,.23-.05.31.31,0,0,0,.15-.17A5.79,5.79,0,0,1,27,20.28a3.64,3.64,0,0,1,.58-.36,1.13,1.13,0,0,1,.47-.13.22.22,0,0,1,.18.07.42.42,0,0,1,.08.17.9.9,0,0,1,0,.21v.18L28.23,22q-.06.73-.12,1.41T28,24.76q-.09.68-.21,1.39t-.29,1.52q-.17.8-.39,1.74A5.12,5.12,0,0,0,27,30a5.33,5.33,0,0,0,0,.6.53.53,0,0,0,.09.3.74.74,0,0,0,.24.22,1.13,1.13,0,0,0,.35.14,1.84,1.84,0,0,0,.4,0,2,2,0,0,0,.37,0,1.28,1.28,0,0,0,.36-.12.89.89,0,0,0,.29-.24.79.79,0,0,0,.15-.39q.1-.77.31-1.64T30,27q.27-.91.6-1.83t.67-1.75q.35-.84.7-1.56a14.3,14.3,0,0,1,.68-1.26,5.28,5.28,0,0,1,.62-.84.78.78,0,0,1,.51-.3.64.64,0,0,1,.44.14.91.91,0,0,1,.25.42,2.73,2.73,0,0,1,.11.66q0,.39,0,.89a14.19,14.19,0,0,1-.1,1.57q-.1.85-.24,1.73t-.32,1.72l-.32,1.55q-.15.71-.24,1.21a4.51,4.51,0,0,0-.1.72,1.6,1.6,0,0,0,.08.53,1.06,1.06,0,0,0,.2.36.74.74,0,0,0,.29.2.9.9,0,0,0,.33.06,1.71,1.71,0,0,0,.38,0,1.37,1.37,0,0,0,.36-.14,1.1,1.1,0,0,0,.3-.25,1,1,0,0,0,.2-.38q.14-.8.31-1.69t.36-1.81q.19-.92.42-1.83T37,23.38q.26-.83.55-1.54a7.54,7.54,0,0,1,.63-1.23,3.31,3.31,0,0,1,.71-.82,1.27,1.27,0,0,1,.8-.3.55.55,0,0,1,.36.11.7.7,0,0,1,.21.32,2,2,0,0,1,.1.5q0,.29,0,.65a10,10,0,0,1-.08,1.23q-.08.64-.2,1.3t-.26,1.32q-.14.66-.28,1.3t-.24,1.24a10.4,10.4,0,0,0-.14,1.14s0,.1,0,.14,0,.09,0,.14a2.55,2.55,0,0,0,.19,1,2.2,2.2,0,0,0,.51.74,2.14,2.14,0,0,0,.73.45,2.42,2.42,0,0,0,.84.15,3.07,3.07,0,0,0,1.79-.58,4.81,4.81,0,0,0,.86-.8l.16-.21c.09.35.17.71.29,1A5.92,5.92,0,0,0,45.18,32a3.25,3.25,0,0,0,.9.91,2.08,2.08,0,0,0,1.17.34,2.79,2.79,0,0,0,1.13-.23,3.36,3.36,0,0,0,.94-.62,4.21,4.21,0,0,0,.74-.9,6.56,6.56,0,0,0,.54-1.09,7,7,0,0,0,.34-1.18,7.28,7.28,0,0,0,.13-1.16s0-.09,0-.18v-.3c0-.11,0-.24,0-.38l0-.42q0-.49,0-1.07a7.25,7.25,0,0,0,2.19-.66A5.55,5.55,0,0,0,54.87,24a4.42,4.42,0,0,0,.91-1.41,4.17,4.17,0,0,0,.3-1.55A4,4,0,0,0,55.75,19.42ZM54,22.11a2.36,2.36,0,0,1-.55.79,3.39,3.39,0,0,1-.94.62,5,5,0,0,1-1.35.38l.07-.63.49-2.05a.25.25,0,0,1,0-.05.5.5,0,0,0,0-.08.59.59,0,0,0-.08-.33.66.66,0,0,0-.21-.2.82.82,0,0,0-.28-.1l-.3,0a1.29,1.29,0,0,0-.79.24,1.84,1.84,0,0,0-.52.6,3.13,3.13,0,0,0-.3.79,6.78,6.78,0,0,0-.15.83q0,.4,0,.7t0,.41l-.32-.1-.37-.15-.48-.24-.17-.09a.35.35,0,0,0-.15,0,.26.26,0,0,0-.19.07.44.44,0,0,0-.1.18.92.92,0,0,0,0,.25c0,.09,0,.19,0,.28a1.91,1.91,0,0,0,.05.48.82.82,0,0,0,.24.39,2.55,2.55,0,0,0,.57.38,11.21,11.21,0,0,0,1,.46v.38q0,.37,0,.89t-.07,1.1q-.06.57-.17,1.15a5.14,5.14,0,0,1-.3,1,2.25,2.25,0,0,1-.48.74,1,1,0,0,1-.7.28.8.8,0,0,1-.65-.33,2.78,2.78,0,0,1-.43-.85,6.6,6.6,0,0,1-.26-1.17Q46,28.43,46,27.8t0-1.19q0-.56,0-.88A12.08,12.08,0,0,1,46,24.08a10.41,10.41,0,0,1,.36-1.64,8.36,8.36,0,0,1,.62-1.5,5.43,5.43,0,0,1,.89-1.23,4,4,0,0,1,1.17-.83,3.4,3.4,0,0,1,1.46-.31,5.51,5.51,0,0,1,1.79.25,3.28,3.28,0,0,1,1.13.63,2.15,2.15,0,0,1,.6.85,2.65,2.65,0,0,1,.17.91A2.29,2.29,0,0,1,54,22.11Z"
              fill="#fff"/>
    </symbol>

    <!--Macbook image-->
    <symbol id="macbook" viewBox="0 0 610 330.84">
        <path d="M71.62,0H539a10,10,0,0,1,10,10V304.68a0,0,0,0,1,0,0H61.58a0,0,0,0,1,0,0V10a10,10,0,0,1,10-10Z"
              fill="#262728"/>
        <rect x="76.93" y="14.73" width="456.78" height="273.96" fill="#35495e"/>
        <rect x="0.64" y="304.68" width="609.36" height="9.65" fill="#e2e2e2"/>
        <path d="M581.94,324H27.42C19,324,0,319.66,0,314.33H609.36C609.36,319.66,590.35,324,581.94,324Z"
              fill="#bfc0c1"/>
        <path d="M27.42,324H581.94c8.41,0,27.42,3.07,27.42,6.86H0C0,327,19,324,27.42,324Z" fill="#2b2b2b"/>
        <path d="M266.6,304.68h76.17a0,0,0,0,1,0,0v2.2a4.21,4.21,0,0,1-4.21,4.21H270.8a4.21,4.21,0,0,1-4.21-4.21v-2.2A0,0,0,0,1,266.6,304.68Z"
              fill="#bfc0c1"/>
        <path d="M280.18,300.3,278,294.52h0q.06.69.06,1.63v4.15h-.7v-6.53h1.14l2.07,5.38h0l2.08-5.38h1.13v6.53H283v-4.2q0-.72.06-1.57h0l-2.23,5.78Z"
              fill="#dddbdc"/>
        <path d="M288.44,300.3l-.15-.7h0a2.07,2.07,0,0,1-.73.62,2.23,2.23,0,0,1-.91.16,1.64,1.64,0,0,1-1.14-.37,1.37,1.37,0,0,1-.41-1.07q0-1.48,2.37-1.55l.83,0v-.3a1.24,1.24,0,0,0-.25-.85,1,1,0,0,0-.79-.27,3.23,3.23,0,0,0-1.38.38l-.23-.57a3.48,3.48,0,0,1,.79-.31,3.44,3.44,0,0,1,.86-.11,1.86,1.86,0,0,1,1.3.39A1.62,1.62,0,0,1,289,297v3.34Zm-1.67-.52a1.5,1.5,0,0,0,1.09-.38,1.4,1.4,0,0,0,.4-1.06v-.44l-.74,0a2.69,2.69,0,0,0-1.27.27.83.83,0,0,0-.39.76.76.76,0,0,0,.24.61A1,1,0,0,0,286.76,299.78Z"
              fill="#dddbdc"/>
        <path d="M292.47,300.39a2.09,2.09,0,0,1-1.64-.65,2.69,2.69,0,0,1-.58-1.85,2.78,2.78,0,0,1,.59-1.9,2.13,2.13,0,0,1,1.69-.67,3.4,3.4,0,0,1,.71.08,2.33,2.33,0,0,1,.55.18l-.23.63A3.47,3.47,0,0,0,293,296a2.41,2.41,0,0,0-.51-.07q-1.49,0-1.49,1.9a2.27,2.27,0,0,0,.36,1.38,1.27,1.27,0,0,0,1.08.48,3.29,3.29,0,0,0,1.25-.26v.66A2.67,2.67,0,0,1,292.47,300.39Z"
              fill="#dddbdc"/>
        <path d="M295,293.77h1.84a3.48,3.48,0,0,1,1.88.39,1.37,1.37,0,0,1,.58,1.23,1.42,1.42,0,0,1-.32,1,1.56,1.56,0,0,1-.94.49v0q1.49.25,1.49,1.56a1.68,1.68,0,0,1-.59,1.37,2.52,2.52,0,0,1-1.65.49H295Zm.76,2.79H297a2,2,0,0,0,1.16-.25,1,1,0,0,0,.35-.85.86.86,0,0,0-.39-.79,2.46,2.46,0,0,0-1.25-.24h-1.12Zm0,.64v2.44h1.36a1.94,1.94,0,0,0,1.19-.31,1.13,1.13,0,0,0,.4-1,1,1,0,0,0-.41-.89,2.18,2.18,0,0,0-1.24-.29Z"
              fill="#dddbdc"/>
        <path d="M305,297.85a2.7,2.7,0,0,1-.6,1.87,2.12,2.12,0,0,1-1.67.67,2.2,2.2,0,0,1-1.16-.31,2,2,0,0,1-.79-.88,3.08,3.08,0,0,1-.28-1.35,2.69,2.69,0,0,1,.6-1.86,2.11,2.11,0,0,1,1.66-.67,2.07,2.07,0,0,1,1.63.68A2.69,2.69,0,0,1,305,297.85Zm-3.73,0a2.32,2.32,0,0,0,.38,1.43,1.49,1.49,0,0,0,2.21,0,2.31,2.31,0,0,0,.38-1.43,2.27,2.27,0,0,0-.38-1.42,1.32,1.32,0,0,0-1.11-.48,1.3,1.3,0,0,0-1.1.48A2.3,2.3,0,0,0,301.28,297.85Z"
              fill="#dddbdc"/>
        <path d="M310.53,297.85a2.7,2.7,0,0,1-.6,1.87,2.12,2.12,0,0,1-1.67.67,2.2,2.2,0,0,1-1.16-.31,2,2,0,0,1-.79-.88,3.08,3.08,0,0,1-.28-1.35,2.69,2.69,0,0,1,.6-1.86,2.11,2.11,0,0,1,1.66-.67,2.07,2.07,0,0,1,1.63.68A2.69,2.69,0,0,1,310.53,297.85Zm-3.73,0a2.32,2.32,0,0,0,.38,1.43,1.49,1.49,0,0,0,2.21,0,2.31,2.31,0,0,0,.38-1.43,2.27,2.27,0,0,0-.38-1.42,1.32,1.32,0,0,0-1.11-.48,1.3,1.3,0,0,0-1.1.48A2.3,2.3,0,0,0,306.8,297.85Z"
              fill="#dddbdc"/>
        <path d="M312.56,297.8a8.77,8.77,0,0,1,.58-.71l1.58-1.67h.88l-2,2.08,2.12,2.81h-.9L313.12,298l-.56.48v1.83h-.73v-6.94h.73V297q0,.25,0,.76Z"
              fill="#dddbdc"/>
        <path d="M323.25,295.68a1.83,1.83,0,0,1-.68,1.52,3.06,3.06,0,0,1-1.94.53h-.77v2.57h-.76v-6.53h1.69Q323.25,293.77,323.25,295.68Zm-3.38,1.41h.68a2.53,2.53,0,0,0,1.46-.33,1.2,1.2,0,0,0,.45-1,1.12,1.12,0,0,0-.42-1,2.21,2.21,0,0,0-1.32-.32h-.85Z"
              fill="#dddbdc"/>
        <path d="M326.74,295.32a2.94,2.94,0,0,1,.58.05l-.1.69a2.56,2.56,0,0,0-.54-.07,1.3,1.3,0,0,0-1,.48,1.76,1.76,0,0,0-.42,1.2v2.62h-.74v-4.89h.61l.08.91h0a2.14,2.14,0,0,1,.66-.74A1.48,1.48,0,0,1,326.74,295.32Z"
              fill="#dddbdc"/>
        <path d="M332.46,297.85a2.7,2.7,0,0,1-.6,1.87,2.12,2.12,0,0,1-1.67.67,2.2,2.2,0,0,1-1.16-.31,2,2,0,0,1-.79-.88,3.08,3.08,0,0,1-.28-1.35,2.69,2.69,0,0,1,.6-1.86,2.11,2.11,0,0,1,1.66-.67,2.07,2.07,0,0,1,1.63.68A2.69,2.69,0,0,1,332.46,297.85Zm-3.73,0a2.32,2.32,0,0,0,.38,1.43,1.49,1.49,0,0,0,2.21,0,2.31,2.31,0,0,0,.38-1.43,2.27,2.27,0,0,0-.38-1.42,1.32,1.32,0,0,0-1.11-.48,1.3,1.3,0,0,0-1.1.48A2.3,2.3,0,0,0,328.73,297.85Z"
              fill="#dddbdc"/>
        <circle cx="88.17" cy="25.2" r="3.81" fill="#e64c3c"/>
        <circle cx="100.39" cy="25.2" r="3.81" fill="#f0c419"/>
        <circle cx="112.6" cy="25.2" r="3.81" fill="#4eba6f"/>
        <rect x="100.16" y="50.53" width="8.76" height="7.62" rx="2.5" ry="2.5" fill="#bdc3c7"/>
        <rect x="100.16" y="65.15" width="8.76" height="7.62" rx="2.5" ry="2.5" fill="#bdc3c7"/>
        <rect x="100.16" y="79.78" width="8.76" height="7.62" rx="2.5" ry="2.5" fill="#bdc3c7"/>
        <rect x="100.16" y="94.4" width="8.76" height="7.62" rx="2.5" ry="2.5" fill="#bdc3c7"/>
        <rect x="100.16" y="109.02" width="8.76" height="7.62" rx="2.5" ry="2.5" fill="#bdc3c7"/>
        <rect x="100.16" y="123.65" width="8.76" height="7.62" rx="2.5" ry="2.5" fill="#bdc3c7"/>
        <rect x="100.16" y="138.27" width="8.76" height="7.62" rx="2.5" ry="2.5" fill="#bdc3c7"/>
        <rect x="100.16" y="152.9" width="8.76" height="7.62" rx="2.5" ry="2.5" fill="#bdc3c7"/>
        <rect x="100.16" y="167.52" width="8.76" height="7.62" rx="2.5" ry="2.5" fill="#bdc3c7"/>
        <rect x="94.83" y="182.15" width="14.09" height="7.62" rx="2.5" ry="2.5" fill="#bdc3c7"/>
        <rect x="94.83" y="196.77" width="14.09" height="7.62" rx="2.5" ry="2.5" fill="#bdc3c7"/>
        <rect x="94.83" y="211.4" width="14.09" height="7.62" rx="2.5" ry="2.5" fill="#bdc3c7"/>
        <rect x="94.83" y="226.02" width="14.09" height="7.62" rx="2.5" ry="2.5" fill="#bdc3c7"/>
        <rect x="94.83" y="240.65" width="14.09" height="7.62" rx="2.5" ry="2.5" fill="#bdc3c7"/>
        <rect x="94.83" y="255.27" width="14.09" height="7.62" rx="2.5" ry="2.5" fill="#bdc3c7"/>
        <rect x="94.83" y="269.9" width="14.09" height="7.62" rx="2.5" ry="2.5" fill="#bdc3c7"/>
        <rect x="132.41" y="50.53" width="45.7" height="7.62" rx="2.5" ry="2.5" fill="#3b97d3"/>
        <rect x="155.26" y="65.15" width="73.63" height="7.62" rx="2.5" ry="2.5" fill="#e5635a"/>
        <rect x="231.68" y="65.15" width="40.37" height="7.62" rx="2.5" ry="2.5" fill="#e57e25"/>
        <rect x="275.61" y="65.15" width="98.89" height="7.62" rx="2.5" ry="2.5" fill="#e5635a"/>
        <rect x="218.48" y="79.78" width="53.07" height="7.62" rx="2.5" ry="2.5" fill="#e5635a"/>
        <rect x="274.34" y="79.78" width="126.82" height="7.62" rx="2.5" ry="2.5" fill="#e57e25"/>
        <rect x="155.26" y="79.78" width="60.94" height="7.62" rx="2.5" ry="2.5" fill="#e5635a"/>
        <rect x="155.26" y="94.4" width="97.5" height="7.62" rx="2.5" ry="2.5" fill="#6ab7cc"/>
        <rect x="155.26" y="226.02" width="97.5" height="7.62" rx="2.5" ry="2.5" fill="#6ab7cc"/>
        <rect x="178.11" y="109.02" width="45.7" height="7.62" rx="2.5" ry="2.5" fill="#e57e25"/>
        <rect x="325.31" y="109.02" width="45.7" height="7.62" rx="2.5" ry="2.5" fill="#e57e25"/>
        <rect x="227.49" y="109.02" width="95.21" height="7.62" rx="2.5" ry="2.5" fill="#e5635a"/>
        <rect x="294.97" y="123.65" width="43.23" height="7.62" rx="2.5" ry="2.5" fill="#eddba2"/>
        <rect x="341.31" y="123.65" width="91.34" height="7.62" rx="2.5" ry="2.5" fill="#e5635a"/>
        <rect x="178.11" y="123.65" width="113.51" height="7.62" rx="2.5" ry="2.5" fill="#e5635a"/>
        <rect x="261.45" y="138.27" width="43.23" height="7.62" rx="2.5" ry="2.5" fill="#eddba2"/>
        <rect x="307.6" y="138.27" width="113.51" height="7.62" rx="2.5" ry="2.5" fill="#e5635a"/>
        <rect x="178.11" y="138.27" width="80.61" height="7.62" rx="2.5" ry="2.5" fill="#4eba6f"/>
        <rect x="330.2" y="152.9" width="45.7" height="7.62" rx="2.5" ry="2.5" fill="#e57e25"/>
        <rect x="236.14" y="152.9" width="91.34" height="7.62" rx="2.5" ry="2.5" fill="#4eba6f"/>
        <rect x="178.11" y="152.9" width="55.22" height="7.62" rx="2.5" ry="2.5" fill="#eddba2"/>
        <rect x="344.53" y="167.52" width="29.52" height="7.62" rx="2.5" ry="2.5" fill="#eddba2"/>
        <rect x="378.07" y="167.52" width="91.34" height="7.62" rx="2.5" ry="2.5" fill="#e5635a"/>
        <rect x="227.49" y="167.52" width="113.51" height="7.62" rx="2.5" ry="2.5" fill="#e5635a"/>
        <rect x="178.11" y="167.52" width="45.7" height="7.62" rx="2.5" ry="2.5" fill="#e57e25"/>
        <rect x="343.75" y="182.15" width="43.23" height="7.62" rx="2.5" ry="2.5" fill="#e57e25"/>
        <rect x="249.3" y="182.15" width="91.34" height="7.62" rx="2.5" ry="2.5" fill="#e5635a"/>
        <rect x="178.11" y="182.15" width="66.97" height="7.62" rx="2.5" ry="2.5" fill="#eddba2"/>
        <rect x="210.23" y="196.77" width="113.51" height="7.62" rx="2.5" ry="2.5" fill="#e5635a"/>
        <rect x="327.72" y="196.77" width="55.22" height="7.62" rx="2.5" ry="2.5" fill="#4eba6f"/>
        <rect x="178.11" y="196.77" width="28.82" height="7.62" rx="2.5" ry="2.5" fill="#eddba2"/>
        <rect x="355.22" y="211.4" width="45.7" height="7.62" rx="2.5" ry="2.5" fill="#eddba2"/>
        <rect x="322.99" y="211.4" width="29.52" height="7.62" rx="2.5" ry="2.5" fill="#4eba6f"/>
        <rect x="227.5" y="211.4" width="91.34" height="7.62" rx="2.5" ry="2.5" fill="#e5635a"/>
        <rect x="178.11" y="211.4" width="45.7" height="7.62" rx="2.5" ry="2.5" fill="#e57e25"/>
        <rect x="155.26" y="255.27" width="66.59" height="7.62" rx="2.5" ry="2.5" fill="#eddba2"/>
        <rect x="225.04" y="255.27" width="130.29" height="7.62" rx="2.5" ry="2.5" fill="#e5635a"/>
        <rect x="359.29" y="255.27" width="37.56" height="7.62" rx="2.5" ry="2.5" fill="#4eba6f"/>
        <rect x="155.26" y="240.65" width="144.47" height="7.62" rx="2.5" ry="2.5" fill="#e5635a"/>
        <rect x="302.46" y="240.65" width="45.7" height="7.62" rx="2.5" ry="2.5" fill="#eddba2"/>
        <rect x="350.89" y="240.65" width="77.57" height="7.62" rx="2.5" ry="2.5" fill="#4eba6f"/>
        <rect x="132.41" y="269.9" width="45.7" height="7.62" rx="2.5" ry="2.5" fill="#3b97d3"/>

    </symbol>

    <!--About us icon-->
    <symbol id="it-tech" viewBox="0 0 120 120">
        <circle cx="60" cy="60" r="60" fill="#e64c3c"/>
        <path d="M81.84,49.42l5.78-5.78L75.33,28.54,66.56,37.3,49.37,40.37l-7.81,7.81-4.71,2.55,7.09-7.09L31.66,28.55,0,60.2a60,60,0,0,0,55.43,59.61L83,92.26l-.85-16.77L94.47,63.16Z"
              fill="#c03b2b"/>
        <path d="M36,64.85H31c-3.79,0-7.36-1.82-7.36-6,0-3.07-.11-13.39,4.7-13.39.79,0,4.74,3.22,9.86,3.22a15.18,15.18,0,0,0,5-.87,18.13,18.13,0,0,0-.19,2.5A17.14,17.14,0,0,0,46.08,60,13.41,13.41,0,0,0,36,64.85Zm2.12-19.42a9.71,9.71,0,1,1,9.71-9.71A9.73,9.73,0,0,1,38.16,45.44ZM76.57,94H43.43C37.36,94,33.3,90.3,33.3,84.16c0-8.57,2-21.73,13.12-21.73,1.29,0,6,5.27,13.58,5.27s12.29-5.27,13.58-5.27c11.11,0,13.12,13.16,13.12,21.73C86.7,90.3,82.64,94,76.57,94ZM60,64.85A14.56,14.56,0,1,1,74.56,50.29,14.57,14.57,0,0,1,60,64.85ZM81.84,45.44a9.71,9.71,0,1,1,9.71-9.71A9.73,9.73,0,0,1,81.84,45.44ZM89,64.85H84a13.41,13.41,0,0,0-10-4.85A17.14,17.14,0,0,0,77,50.29a18.13,18.13,0,0,0-.19-2.5,15.18,15.18,0,0,0,5,.87c5.12,0,9.06-3.22,9.86-3.22,4.82,0,4.7,10.32,4.7,13.39C96.4,63,92.84,64.85,89,64.85Z"
              fill="#fff"/>
    </symbol>

    <symbol id="on-line-learning" viewBox="0 0 120 120">
        <circle cx="60" cy="60" r="60" fill="#e64c3c"/>
        <path d="M84.76,32.14l-5.6,1.55L66.62,46.24l-7.85,2.61-1.35,1.35L31.79,45.62l-2.9,2.9H26.31L1.52,73.31v0A60,60,0,0,0,58.44,120l.14,0L89.85,88.66,87.21,64.4l3.59-3.59,2.29-18.69.68-.68L85.62,31.28Z"
              fill="#c03b2b"/>
        <path d="M83.31,40.08a1.9,1.9,0,0,1,1.46-1.51V31.25a8.59,8.59,0,0,0-8.19,8.58v1.43A28,28,0,0,1,83.31,40.08Z"
              fill="#fff"/>
        <path d="M85.58,38.57A1.9,1.9,0,0,1,87,40.13a30.6,30.6,0,0,1,6.73,1.3v-1.6a8.59,8.59,0,0,0-8.19-8.58Z"
              fill="#fff"/>
        <path d="M87,40.95a1.89,1.89,0,0,1-3.66,0,27.11,27.11,0,0,0-6.76,1.22V54.3a8.6,8.6,0,0,0,17.2,0v-12A29.9,29.9,0,0,0,87,40.95Z"
              fill="#fff"/>
        <path d="M34.64,85.57a5.49,5.49,0,0,1-5.38-5.48V48.43h-3V88.66H51.39A135.68,135.68,0,0,0,34.64,85.57Z"
              fill="#fff"/>
        <path d="M74.93,54.3V44.68a63.26,63.26,0,0,0-16,4.07l-.16,0L58,62.64l-.69-13.85-.15,0C46.73,44.2,34.74,44.2,34.74,44.2A3.84,3.84,0,0,0,30.9,48V80.1a3.84,3.84,0,0,0,3.84,3.84,131.75,131.75,0,0,1,22.67,4.72,2.14,2.14,0,0,0,1.25,0,147.88,147.88,0,0,1,22.67-4.72,3.84,3.84,0,0,0,3.84-3.84V64.54A10.25,10.25,0,0,1,74.93,54.3Z"
              fill="#fff"/>
        <path d="M86.81,64.4V80.1a5.49,5.49,0,0,1-5.37,5.48,150.89,150.89,0,0,0-16.53,3.09H89.85V63.4A10.15,10.15,0,0,1,86.81,64.4Z"
              fill="#fff"/>
    </symbol>

    <symbol id="lvl-up" viewBox="0 0 120 120">
        <circle cx="60" cy="60" r="60" fill="#e64c3c"/>
        <path d="M89.25,101.34V54.84h-11l-8,14H62.5l-4.75,8.25h-11L42,84.59H31L17.53,102.38a60,60,0,0,0,85.93-1H89.25Z"
              fill="#c03b2b"/>
        <path d="M72.73,27.37,58.5,50.59l-32,5.25L19.25,60,3.08,79a60.1,60.1,0,0,0,20.56,28.74l34.11-20.3L84.11,41.25Z"
              fill="#c03b2b"/>
        <path d="M77,32.57,57,49,21.86,54.64l-20,20c.42,1.66.91,3.29,1.47,4.9L24,58.85l34.88-5.62,21-17.18,4.26,5.2,6.33-16.8L72.73,27.37Z"
              fill="#fff"/>
        <path d="M89.25,101.34V54.84h-11v46.5H73.5V68.84h-11v32.5H57.75V77.09h-11v24.25H42V84.59H31v16.75H16.54a60.33,60.33,0,0,0,4.77,4.5H98.69a60.33,60.33,0,0,0,4.77-4.5Z"
              fill="#fff"/>
    </symbol>

    <!--Course bg image-->
    <symbol id="csharp-course" viewBox="0 0 245 245">
        <circle cx="122.5" cy="122.5" r="76.56" fill="#fff" opacity="0.2"/>
        <circle cx="122.5" cy="122.5" r="91.88" fill="#fff" opacity="0.2"/>
        <circle cx="122.5" cy="122.5" r="107.19" fill="#fff" opacity="0.2"/>
        <circle cx="122.5" cy="122.5" r="122.5" fill="#fff" opacity="0.2"/>
        <circle cx="122.5" cy="122.5" r="61.25" fill="#fff"/>
        <path d="M122.5,122.5h46.34A46.34,46.34,0,0,0,122.5,76.16Z" fill="#4eba6f"/>
        <path d="M122.5,122.5v46.34a46.34,46.34,0,0,0,46.34-46.34Z" fill="#f0c419"/>
        <path d="M122.5,122.5H76.16a46.34,46.34,0,0,0,46.34,46.34Z" fill="#348ec1"/>
        <path d="M122.5,122.5V76.16A46.34,46.34,0,0,0,76.16,122.5Z" fill="#e64c3c"/>
        <path d="M170.79,120.5A48.39,48.39,0,0,0,124.5,74.21v-.05h-4v.05A48.39,48.39,0,0,0,74.21,120.5h-.05v4h.05a48.39,48.39,0,0,0,46.29,46.28v.05h4v-.05a48.39,48.39,0,0,0,46.29-46.28h.05v-4Zm-4,0H124.5V78.21A44.4,44.4,0,0,1,166.79,120.5ZM120.5,78.21V120.5H78.21A44.4,44.4,0,0,1,120.5,78.21ZM78.21,124.5H120.5v42.29A44.4,44.4,0,0,1,78.21,124.5Zm46.29,42.29V124.5h42.29A44.4,44.4,0,0,1,124.5,166.79Z"
              fill="#fff"/>
    </symbol>

    <symbol id="html-course" viewBox="0 0 245 245">
        <circle cx="122.5" cy="122.5" r="76.56" fill="#fff" opacity="0.2"/>
        <circle cx="122.5" cy="122.5" r="91.88" fill="#fff" opacity="0.2"/>
        <circle cx="122.5" cy="122.5" r="107.19" fill="#fff" opacity="0.2"/>
        <circle cx="122.5" cy="122.5" r="122.5" fill="#fff" opacity="0.2"/>
        <circle cx="122.5" cy="122.5" r="61.25" fill="#fff"/>
        <path d="M83.69,98.21l-9.71,0-.05.15a1.12,1.12,0,0,0,0,.39c0,.13.19,2.18.4,4.56s.74,8.35,1.19,13.29c1.69,18.82,2.39,26.77,3,34.34l.2,2.48.35.09,4.67,1.2c8.17,2.09,11.2,2.94,13.34,3.72a16.8,16.8,0,0,0,2.93.91c1.24.22,2,.07,5-1.06,1.6-.59,6.6-1.95,17.74-4.8.14,0,.23-.1.23-.16,0-.56,1.24-14.81,2.56-29.57,1-11.33,1.58-17.7,2-22.89l.21-2.45-.56,0c-2.51-.16-19.41-.23-43.49-.18Zm18.59,10.72c2,0,6.55.08,10.13.09l6.5,0,0,.17-.17,1.7c-.08.84-.2,2.14-.25,2.88s-.11,1.54-.13,1.78l0,.44-2.58,1.17c-3.11,1.41-5.42,2.42-9.37,4.12-3.41,1.46-3.26,1.31-1.39,1.44.81.06,2.72.08,6.92.06l5.8,0V123c0,1.21-1.69,20.89-1.81,21s-5.32,1.46-10.29,2.74c-.83.21-2,.54-2.55.73s-1.24.38-1.47.43c-1.18.25-2.86,0-5.6-.84-1.36-.42-3.28-1-6.82-1.91-1.86-.5-3.4-.93-3.42-1s-.38-2.19-.57-3.76a49.9,49.9,0,0,1-.41-5.77v-1h6.74l0,.45c0,.56.35,4.22.39,4.66l0,.32.51.19a20.56,20.56,0,0,0,4.47,1c1.21.2,2.57.46,3,.57l.8.19,1-.31c1-.34,1.62-.51,4-1.2.84-.25,2-.58,2.48-.75l.94-.31,0-1.17c0-.64.1-1.84.17-2.64s.15-2.22.17-3.13l0-1.66-.37,0a117.11,117.11,0,0,0-12.91-.22c-4.2.09-12,.12-12.1,0a9.93,9.93,0,0,1-.13-1.12c0-.6-.16-1.76-.24-2.59s-.17-1.75-.19-2.06-.05-.71-.07-.89,0-.33.08-.37,5.85-2.49,8.84-3.79,5.22-2.25,6.78-2.88c.68-.28.68-.28.44-.32a84,84,0,0,0-8.81-.2c-5.08,0-6.8,0-7.38-.1l-.75-.08,0-.56c0-.31-.12-1.07-.2-1.69a26.79,26.79,0,0,1-.34-3.36V109h.67l2-.05c2.18-.07,13.46-.06,17.45,0Z"
              fill="#3b97d3"/>
        <path d="M83.69,98.21l-9.71,0-.05.15a1.12,1.12,0,0,0,0,.39c0,.13.2,2.18.4,4.56s.74,8.35,1.19,13.29c1.69,18.82,2.39,26.77,3,34.34l.2,2.48.35.09,4.67,1.2c8.17,2.09,11.2,2.94,13.34,3.72a16.8,16.8,0,0,0,2.93.91,5,5,0,0,0,.84.08V148a15.62,15.62,0,0,1-4.85-.92c-1.36-.42-3.28-1-6.82-1.91-1.86-.5-3.4-.93-3.42-1s-.38-2.19-.57-3.76a49.89,49.89,0,0,1-.41-5.77v-1h6.74l0,.45c0,.56.35,4.22.39,4.66l0,.32.51.19a20.56,20.56,0,0,0,4.47,1c1.21.2,2.57.46,3,.57l.8.19.08,0V129.51q-2.11,0-4.57.06c-4.2.09-12,.12-12.1,0a9.94,9.94,0,0,1-.13-1.12c0-.6-.16-1.76-.24-2.59s-.17-1.75-.19-2.06-.05-.71-.07-.89,0-.33.08-.37,5.85-2.49,8.84-3.79,5.22-2.25,6.78-2.88c.68-.28.68-.28.44-.32a84,84,0,0,0-8.81-.2c-5.08,0-6.8,0-7.38-.1l-.75-.08,0-.56c0-.31-.12-1.07-.2-1.69a26.79,26.79,0,0,1-.34-3.36V109h.67l2-.05c2-.06,11.21-.06,16,0V98.2Z"
              fill="#2880ba"/>
        <path d="M115.21,89.66c0,.27,1.43,16,3.12,35s3.07,34.52,3.08,34.53l14,4,14,3.94,14.05-3.94,14.07-4s1.4-15.55,3.09-34.53,3.09-34.73,3.12-35l.05-.5H115.16l.05.5ZM171,103.73c0,.14-.18,1.86-.35,3.84s-.34,3.77-.37,4l0,.42H137.35l0,.46c.05.47.68,8.14.68,8.29s5.25.08,15.67.08h15.67v.27c0,.31-2.38,26.24-2.41,26.26l-8.48,2.34c-4.66,1.28-8.61,2.37-8.78,2.43s-.53,0-9.14-2.33l-8.85-2.45s-1.06-13-1.06-13.29v-.27l4.23,0,4.23,0,.31,3.38c.17,1.86.32,3.39.32,3.4s9.46,2.57,9.57,2.57,9.47-2.51,9.53-2.58.27-2.37.54-5.2.51-5.32.54-5.53l0-.38h-29.8l0-.42c0-.23-.53-5.93-1.12-12.66S128,104,127.94,103.81l0-.34H171l0,.26Z"
              fill="#e64c3c"/>
        <path d="M149.45,152.12c-.54-.06-2.16-.5-8.85-2.35l-8.85-2.45s-1.06-13-1.06-13.29v-.27l4.23,0,4.23,0,.31,3.38c.17,1.86.32,3.39.32,3.4s9.46,2.57,9.57,2.57l.08,0V129.48H130.22l0-.42c0-.23-.53-5.93-1.12-12.66S128,104,127.94,103.81l0-.34h21.55V89.16H115.16l.05.5c0,.27,1.43,16,3.12,35s3.07,34.52,3.08,34.53l14,4,14,3.94.08,0Z"
              fill="#c03b2b"/>
        <path d="M137.4,112.44c.05.47.68,8.14.68,8.29s3.81.07,11.36.08V112H137.35Z" fill="#c03b2b"/>
    </symbol>

    <symbol id="java-course" viewBox="0 0 245 245">
        <circle cx="122.5" cy="122.5" r="76.56" fill="#fff" opacity="0.2"/>
        <circle cx="122.5" cy="122.5" r="91.88" fill="#fff" opacity="0.2"/>
        <circle cx="122.5" cy="122.5" r="107.19" fill="#fff" opacity="0.2"/>
        <circle cx="122.5" cy="122.5" r="122.5" fill="#fff" opacity="0.2"/>
        <circle cx="122.5" cy="122.5" r="61.25" fill="#fff"/>
        <path d="M131.56,71.74a22.94,22.94,0,0,1,.06,4.21A18,18,0,0,1,130,81.66c-1.27,2.53-2.31,3.5-8.25,7.74a44.17,44.17,0,0,0-6.37,5.16q-4.42,4.4-5.25,8.52a12,12,0,0,0,.09,3.81c.79,3.86,3.61,8.19,8,12.36a24.91,24.91,0,0,0,2.25,2,10.19,10.19,0,0,0-.48-1.09c-3.36-7.12-5.17-14.83-4.09-17.45a9.84,9.84,0,0,1,2.15-3,53.53,53.53,0,0,1,5.2-4.55A61.64,61.64,0,0,0,129.05,90c3.38-3.48,4.74-6.24,4.89-9.88a13.06,13.06,0,0,0-.6-4.63,19.57,19.57,0,0,0-1.7-3.75l-.16-.19.07.19Z"
              fill="#e57e25"/>
        <path d="M138.14,91.8c-9.11,4-14.75,8.48-15.67,12.41a13.81,13.81,0,0,0,.63,6.09,16.43,16.43,0,0,0,3,5,10.2,10.2,0,0,1,1.65,2.35c.6,1.3.26,3.88-.84,6.33a3,3,0,0,0-.25.66,7.65,7.65,0,0,0,.94-.72,14.45,14.45,0,0,0,4.53-6.25,5.5,5.5,0,0,0,.22-2,5.12,5.12,0,0,0-.31-2.22,15.88,15.88,0,0,0-2.09-4c-1.64-2.51-2-3.38-2-4.76,0-1.73.87-3.47,2.78-5.58a71.35,71.35,0,0,1,7.71-6.89,16.3,16.3,0,0,0,1.38-1.15s-.78.31-1.64.69Z"
              fill="#e57e25"/>
        <path d="M148.18,121.34a16.42,16.42,0,0,0-4,1.27l-.47.25.38,0c3.88.23,6.78,1.56,7.75,3.56a4.13,4.13,0,0,1-.19,3.92c-1.1,2.26-4.18,5.41-8,8.19a10.27,10.27,0,0,0-1.16.91,33.72,33.72,0,0,0,4.12-1.23q8.09-3,9.78-7.48a4.24,4.24,0,0,0,.3-2.06,6.35,6.35,0,0,0-.26-2.22,12.52,12.52,0,0,0-.71-1.85,5.16,5.16,0,0,0-1.21-1.66,5.26,5.26,0,0,0-2.56-1.51,12.28,12.28,0,0,0-3.74-.1Z"
              fill="#e57e25"/>
        <path d="M108.5,122.53c-4.89.21-9,.9-10.91,1.85-1.17.58-1.62,1.05-1.77,1.86-.41,2.23,3.06,4,9.58,4.79a97.51,97.51,0,0,0,17.4.14c7.25-.67,13.52-2.45,17.34-4.92a3.24,3.24,0,0,0,.63-.46,6.58,6.58,0,0,0-1,.2c-5.29,1.28-16.85,2.08-26.51,1.83-5.41-.14-8.53-.43-10.23-1-.68-.21-.94-.45-.85-.79.26-1,2.76-2.2,6.77-3.18,1.57-.39,1.85-.47,1.42-.45l-1.89.08Z"
              fill="#e57e25"/>
        <path d="M105.63,133.89a6.59,6.59,0,0,0-2.73,1.43c-.56.56-.65.94-.36,1.55.72,1.49,4.28,2.75,9.65,3.42a69.14,69.14,0,0,0,10,0,122.69,122.69,0,0,0,13.25-2.09c2.56-.55,2.65-.57,2.63-.63s-.86-.65-1.87-1.36c-1.52-1.07-1.89-1.28-2.08-1.23a96.13,96.13,0,0,1-11.55,1.85c-1.77.16-7.68.23-9.66.1a24.18,24.18,0,0,1-6.18-1c-1.16-.43-1.22-1.39-.15-2.17.22-.16.34-.29.27-.29a12.31,12.31,0,0,0-1.26.38Z"
              fill="#e57e25"/>
        <path d="M108.62,143.4c-1.64.25-2.88.86-3.31,1.61a2.39,2.39,0,0,0,0,1.89c.54,1.18,2.53,2.21,5.53,2.84a46.13,46.13,0,0,0,10.25.94,34.36,34.36,0,0,0,7.48-.58,41.27,41.27,0,0,0,7.71-2.14l.51-.23-2.44-1.47-2.44-1.47-.62.13c-1,.2-5.51.94-6.84,1.11a35.84,35.84,0,0,1-6.2.15c-4.64-.27-8.29-.89-8.83-1.48a.83.83,0,0,1,0-1.11c.13-.2.19-.35.12-.34l-.9.13Z"
              fill="#e57e25"/>
        <path d="M99.37,150.09c-6.42.51-10.08,1.54-10.85,3a2.29,2.29,0,0,0,.14,2c1.22,2.09,6.19,3.46,14.69,4.07a194.68,194.68,0,0,0,23.81.1c9.29-.61,17-2.07,21.69-4.11,2.19-.95,3.21-1.89,3.21-2.94a2.31,2.31,0,0,0-.86-1.59c-.15-.12-.15-.1-.06.2.26.86-.26,1.55-1.6,2.07-4.36,1.72-14.41,3.25-24.83,3.76-2.88.14-11.6.06-14.4-.14-9.55-.68-16-1.9-16.56-3.15-.44-1,1.84-2.08,6.32-3.11,1.28-.29,1.35-.32.82-.31-.31,0-1,0-1.51.08Z"
              fill="#e57e25"/>
        <path d="M155.47,156c-2,1.7-6.28,3.59-10.56,4.66-3.4.85-6,1.18-12.07,1.5-4.5.24-26.69.12-30.34-.17-.84-.07-.31.08,1.51.42a122.92,122.92,0,0,0,30.34,1.56,76.39,76.39,0,0,0,13.29-2c4-1.16,6.82-3.09,7.92-5.39.38-.8.35-1-.1-.6Z"
              fill="#e57e25"/>
    </symbol>

    <symbol id="php-course" viewBox="0 0 245 245">
        <circle cx="122.5" cy="122.5" r="76.56" fill="#fff" opacity="0.2"/>
        <circle cx="122.5" cy="122.5" r="91.88" fill="#fff" opacity="0.2"/>
        <circle cx="122.5" cy="122.5" r="107.19" fill="#fff" opacity="0.2"/>
        <circle cx="122.5" cy="122.5" r="122.5" fill="#fff" opacity="0.2"/>
        <circle cx="122.5" cy="122.5" r="61.25" fill="#fff"/>
        <path d="M107.23,116.62a9.8,9.8,0,0,1-3.44,7.94q-3.45,2.88-9.43,2.88H92.63l-2,9.74H82.77L89,107.82h7.49q5.2,0,8,2.28A8,8,0,0,1,107.23,116.62ZM94,121H95.3a3.9,3.9,0,0,0,3-1.18,4.14,4.14,0,0,0,1.12-3,2.58,2.58,0,0,0-.72-1.91,2.69,2.69,0,0,0-2-.72H95.48Z"
              fill="#2880ba"/>
        <path d="M131.1,137.18h-7.85l2.51-12h-7l-2.55,12H108.4l6.21-29.37h7.85l-2.25,10.89h7l2.25-10.89h7.87Z"
              fill="#2880ba"/>
        <path d="M162.23,116.62a9.8,9.8,0,0,1-3.44,7.94q-3.45,2.88-9.43,2.88h-1.73l-2,9.74h-7.85L144,107.82h7.49q5.2,0,8,2.28A8,8,0,0,1,162.23,116.62ZM149,121h1.27a3.9,3.9,0,0,0,3-1.18,4.14,4.14,0,0,0,1.12-3,2.58,2.58,0,0,0-.72-1.91,2.69,2.69,0,0,0-2-.72h-1.19Z"
              fill="#2880ba"/>
    </symbol>

    <symbol id="web-course" viewBox="0 0 245 245">
        <circle cx="122.5" cy="122.5" r="76.56" fill="#fff" opacity="0.2"/>
        <circle cx="122.5" cy="122.5" r="91.88" fill="#fff" opacity="0.2"/>
        <circle cx="122.5" cy="122.5" r="107.19" fill="#fff" opacity="0.2"/>
        <circle cx="122.5" cy="122.5" r="122.5" fill="#fff" opacity="0.2"/>
        <circle cx="122.5" cy="122.5" r="61.25" fill="#fff"/>
        <path d="M109.15,123.82l4.47-19.18,1.82-.23v-2.67h-8.11v2.67l2,.35-2.52,12.1-.09,0-4.17-15.13H99.32l-4.14,15.13-.09,0-2.53-12.1,2-.35v-2.67H86.45v2.67l1.8.23,3.88,16.53H90.24v2.67l2.35.45v15.84l-2.35.45v2.65h9.93a9.14,9.14,0,0,0,6.67-2.57,8.88,8.88,0,0,0,2.62-6.63v-3.65a8.92,8.92,0,0,0-2.56-6.57Zm-8.25-14.57H101l3.58,12.88a9.78,9.78,0,0,0-4.41-1H97.6ZM105,134a6.31,6.31,0,0,1-1.35,4.2,4.61,4.61,0,0,1-3.73,1.61H97V124.59h2.93a4.61,4.61,0,0,1,3.73,1.61,6.26,6.26,0,0,1,1.35,4.17Z"
              fill="#35495e"/>
        <path d="M157.56,114.17a4.69,4.69,0,0,0-3-1.82,4.9,4.9,0,0,0,2.36-1.81,4.79,4.79,0,0,0,.81-2.74,5.15,5.15,0,0,0-2.18-4.53,10.54,10.54,0,0,0-6.08-1.52h-9.81v2.67l2.35.45v15.84l-2.35.45h-3.92v-3.38H132.4l-.2,2.64h-7.12v-6.31h7.47v-3.41h-7.47v-5.55h7.06l.2,2.64h3.4v-6H118.3v2.67l2.35.45v15.84l-2.35.45h-5.12v2.67l2.35.45v15.84l-2.35.45v2.65h17.46v-6h-3.37l-.2,2.64H120v-6.31h7.47v-3.41H120v-5.55H127l.2,2.64h3.4v-3.4h3.61v0l1.82.24,6.52,19.16h4.55l6.5-19.16,1.85-.24v-1a6.41,6.41,0,0,0,1-.61,5.71,5.71,0,0,0,2.09-4.8A5.42,5.42,0,0,0,157.56,114.17Zm-11.1-9h3a4.73,4.73,0,0,1,2.87.73,2.65,2.65,0,0,1,1,2.26,2.5,2.5,0,0,1-1,2.12,4.43,4.43,0,0,1-2.73.73h-3.18Zm0,8.9h4.41a3.23,3.23,0,0,1,2.49.86,3.54,3.54,0,0,1,.79,2.48,2.77,2.77,0,0,1-.92,2.27,4.11,4.11,0,0,1-2.68.77h-4.08Zm-1.31,23.35-.26,1.18h-.09l-.27-1.21-3.91-13.23,1.68-.3v0h5.11v0l1.67.3Z"
              fill="#35495e"/>
    </symbol>

    <symbol id="apple-course" viewBox="0 0 245 245">
        <circle cx="122.5" cy="122.5" r="76.56" fill="#fff" opacity="0.2"/>
        <circle cx="122.5" cy="122.5" r="91.88" fill="#fff" opacity="0.2"/>
        <circle cx="122.5" cy="122.5" r="107.19" fill="#fff" opacity="0.2"/>
        <circle cx="122.5" cy="122.5" r="122.5" fill="#fff" opacity="0.2"/>
        <circle cx="122.5" cy="122.5" r="61.25" fill="#fff"/>
        <path d="M144.13,146.38c-3.24,4.94-6.49,7.39-9.69,7.39a17.35,17.35,0,0,1-5.28-1.2,16.76,16.76,0,0,0-5.69-1.21,14.63,14.63,0,0,0-5.36,1.25,13.7,13.7,0,0,1-5,1.28c-3.88,0-7.62-3.28-11.35-9.77s-5.55-12.78-5.55-19c0-5.77,1.43-10.45,4.26-14.1a13,13,0,0,1,10.71-5.43,24.92,24.92,0,0,1,6.68,1.13,24,24,0,0,0,5.2,1.13,18.91,18.91,0,0,0,5.39-1.29A21.28,21.28,0,0,1,135,105.3a13.77,13.77,0,0,1,8,2.45,19.3,19.3,0,0,1,3.92,3.77,24.1,24.1,0,0,0-4.3,4.45,13.42,13.42,0,0,0-2.45,7.81,14.42,14.42,0,0,0,2.6,8.41,11.49,11.49,0,0,0,6,4.75A37.56,37.56,0,0,1,144.13,146.38ZM133.49,97.83A15.53,15.53,0,0,1,130,103a10.71,10.71,0,0,1-4.07,2.71,19.74,19.74,0,0,1-3.92.64,17.22,17.22,0,0,1,2.94-9.69c1.89-2.72,5.05-4.56,9.43-5.58.07.34.15.6.19.83s0,.49,0,.75A14.42,14.42,0,0,1,133.49,97.83Z"
              fill="#35495e"/>
    </symbol>

    <!--Social footer icon-->
    <symbol id="facebook-footer-ico" viewBox="0 0 40 40">
        <circle cx="20" cy="20" r="20" fill="#fff"/>
        <path d="M25.19,13.32H23.31c-1.48,0-1.76.71-1.76,1.73v2.27h3.52l-.47,3.56H21.55V30H17.87V20.88H14.81V17.32h3.06V14.7c0-3,1.86-4.7,4.58-4.7a23.52,23.52,0,0,1,2.74.14Z"
              fill="#e64c3c"/>
    </symbol>

    <symbol id="github-footer-ico" viewBox="0 0 40 40">
        <circle cx="20" cy="20" r="20" fill="#fff"/>
        <path d="M30,20.25a10,10,0,0,1-6.84,9.49c-.51.09-.69-.22-.69-.48s0-1.41,0-2.75a2.35,2.35,0,0,0-.68-1.85c2.23-.25,4.57-1.09,4.57-4.93a3.87,3.87,0,0,0-1-2.68,3.62,3.62,0,0,0-.1-2.66c-.83-.26-2.75,1-2.75,1a9.42,9.42,0,0,0-5,0s-1.91-1.29-2.75-1a3.62,3.62,0,0,0-.1,2.66,3.87,3.87,0,0,0-1,2.68c0,3.83,2.33,4.69,4.56,4.93A2.21,2.21,0,0,0,17.54,26a2.11,2.11,0,0,1-2.9-.83,2.09,2.09,0,0,0-1.54-1c-1,0-.07.61-.07.61.65.3,1.11,1.46,1.11,1.46.59,1.78,3.37,1.18,3.37,1.18,0,.83,0,1.61,0,1.86s-.18.57-.69.48A10,10,0,1,1,30,20.25ZM13.7,24.45c-.08,0-.14,0-.17,0s0,.12.09.16a.12.12,0,0,0,.17,0C13.82,24.56,13.78,24.49,13.7,24.45Zm.47.39c-.06-.06-.16-.09-.21,0s0,.13,0,.21.16.09.21,0S14.23,24.92,14.17,24.84Zm.42.55a.16.16,0,0,0-.22-.08c-.06,0-.06.14,0,.24s.17.13.22.09A.18.18,0,0,0,14.58,25.39Zm.49.55c-.09-.09-.21-.1-.26,0s0,.17.05.25.21.1.26,0S15.16,26,15.08,25.94Zm.62.36a.21.21,0,0,0-.25.09c0,.08.05.17.17.2a.19.19,0,0,0,.25-.08C15.9,26.43,15.82,26.34,15.7,26.3Zm.77.13c-.12,0-.21.07-.21.14s.09.16.22.14.21-.06.21-.14S16.59,26.42,16.47,26.43Zm.74-.1c-.12,0-.2.1-.18.2s.12.13.24.1.19-.1.18-.18S17.33,26.31,17.21,26.33Z"
              fill="#e64c3c"/>
    </symbol>

    <symbol id="twitter-footer-ico" viewBox="0 0 40 40">
        <circle cx="20" cy="20" r="20" fill="#fff"/>
        <path d="M27.94,15.93c0,.18,0,.36,0,.53a11.67,11.67,0,0,1-18,9.82,8.47,8.47,0,0,0,6.08-1.7,4.11,4.11,0,0,1-3.83-2.84,5.06,5.06,0,0,0,.77.06,4.33,4.33,0,0,0,1.08-.14,4.1,4.1,0,0,1-3.29-4v-.05a4.12,4.12,0,0,0,1.85.52,4.1,4.1,0,0,1-1.27-5.48,11.65,11.65,0,0,0,8.45,4.29,4.66,4.66,0,0,1-.1-.94,4.1,4.1,0,0,1,7.1-2.8,8.06,8.06,0,0,0,2.6-1,4.1,4.1,0,0,1-1.8,2.26A8.22,8.22,0,0,0,30,13.81,8.79,8.79,0,0,1,27.94,15.93Z"
              fill="#e64c3c"/>
    </symbol>

    <symbol id="vimeo-footer-ico" viewBox="0 0 40 40">
        <circle cx="20" cy="20" r="20" fill="#fff"/>
        <path d="M25.91,23.36c-2.73,3.52-5,5.29-6.9,5.29-1.17,0-2.15-1.08-2.95-3.23L14.44,19.5c-.59-2.15-1.24-3.22-1.93-3.22a6,6,0,0,0-1.56.93L10,16c1-.87,2-1.76,2.92-2.6a6.35,6.35,0,0,1,3-1.79c1.56-.15,2.51.91,2.87,3.18.38,2.46.66,4,.81,4.58.45,2,.93,3.06,1.47,3.06s1-.65,1.89-2a7.84,7.84,0,0,0,1.34-3c.11-1.14-.33-1.71-1.34-1.71a4,4,0,0,0-1.49.32q1.47-4.83,5.64-4.69c2.05.06,3,1.4,2.9,4Q29.86,18.27,25.91,23.36Z"
              fill="#e64c3c"/>
    </symbol>

    <symbol id="vk-footer-ico" viewBox="0 0 40 40">
        <circle cx="20" cy="20" r="20" fill="#fff"/>
        <path d="M28.41,18.18c-2,2.69-2.24,2.44-.57,4a8.75,8.75,0,0,1,2,2.3s.67,1.17-.74,1.18l-2.67,0a2.22,2.22,0,0,1-1.33-.41c-1-.69-1.94-2.47-2.67-2.24,0,0-.75.24-.73,1.84a.8.8,0,0,1-.16.53.9.9,0,0,1-.55.23h-1.2c-2.63.17-5-2.26-5-2.26a27.61,27.61,0,0,1-4.77-7.86c-.15-.34,0-.51,0-.51a.75.75,0,0,1,.59-.2l2.85,0A1.09,1.09,0,0,1,14,15a.76.76,0,0,1,.25.33,21,21,0,0,0,1.07,2.23c1,2.15,1.75,2.51,2.15,2.29,0,0,.53-.32.42-2.91a3.09,3.09,0,0,0-.3-1.36,1.39,1.39,0,0,0-.89-.45c-.16,0,.1-.4.45-.56a6.49,6.49,0,0,1,2.49-.25,5.52,5.52,0,0,1,1.41.14c1,.24.66,1.16.66,3.36,0,.71-.14,1.7.37,2,.22.15.76,0,2.09-2.25a19.17,19.17,0,0,0,1.11-2.34.62.62,0,0,1,.26-.32.68.68,0,0,1,.4-.06l3,0c.9-.11,1.05.3,1.05.3C30.13,15.55,29.64,16.55,28.41,18.18Z"
              fill="#e64c3c"/>
    </symbol>

    <symbol id="brackets" viewBox="0 0 13 11">
        <path fill="#e74c3c" d="M6,9.5A1.5,1.5,0,0,1,4.5,11h-3A1.5,1.5,0,0,1,0,9.5V4A4,4,0,0,1,4,0h.5A.5.5,0,0,1,5,.5v1a.5.5,0,0,1-.5.5H4A2,2,0,0,0,2,4v.25A.75.75,0,0,0,2.75,5H4.5A1.5,1.5,0,0,1,6,6.5Zm7,0A1.5,1.5,0,0,1,11.5,11h-3A1.5,1.5,0,0,1,7,9.5V4a4,4,0,0,1,4-4h.5a.5.5,0,0,1,.5.5v1a.5.5,0,0,1-.5.5H11A2,2,0,0,0,9,4v.25A.75.75,0,0,0,9.75,5H11.5A1.5,1.5,0,0,1,13,6.5Z"/>
    </symbol>
</svg>